<svg version="1.2" xmlns="http://www.w3.org/2000/svg" viewBox="0 0 2000 2000" width="2000" height="2000">
	<title>it-svg</title>
	<style>
		.s0 { fill: #000000 } 
		.s1 { fill: #fafbfa } 
		.s2 { fill: #49faaf } 
		.s3 { fill: #fafbfb } 
		.s4 { fill: #10402d } 
		.s5 { fill: #fbfcfb } 
		.s6 { fill: #f9faf9 } 
		.s7 { fill: #f9fafa } 
		.s8 { fill: #fbfcfc } 
		.s9 { fill: #103f2d } 
		.s10 { fill: #0f3e2c } 
		.s11 { fill: #12412e } 
		.s12 { fill: #11402e } 
		.s13 { fill: #144230 } 
		.s14 { fill: #174432 } 
		.s15 { fill: #000101 } 
		.s16 { fill: #3fe5dc } 
		.s17 { fill: #42e3d7 } 
		.s18 { fill: #3ee5dc } 
		.s19 { fill: #104732 } 
		.s20 { fill: #114833 } 
		.s21 { fill: #0e412c } 
		.s22 { fill: #40e4da } 
		.s23 { fill: #134a35 } 
		.s24 { fill: #0d3a28 } 
		.s25 { fill: #0b3524 } 
	</style>
	<path id="Layer" fill-rule="evenodd" class="s0" d="m1485 1501c-495 0-989.5 0-1484 0q0-500 0-1000 1000 0 2000 0 0 500 0 1000c-171.8 0-343.7 0-516 0zm3.4-410.4c0-0.6 0.1-1.3 0.2-2 0 0 0.1 0 0.7 0.4 2.4 2.7 4.9 5.4 7.1 8.9-1.7 4.7-3.5 9.4-5.9 14.5-0.2 0.7-0.5 1.3-0.7 1.9-1.2 4.1-2 8.4 1.4 11.7 3.1 2.9 7.4 3.9 11.5 1.9 5.2-2.5 10.2-5.7 15.2-8.5 3.7 10 9.8 13.2 20.9 10.6 8.9-2 15.4-7.3 21.2-13.3 0 0.8 0 1.5-0.2 2.9q-0.5 2.8-0.9 5.6c2.1 0.3 4.9 1.4 6.2 0.5 1.8-1.4 2.7-4.3 4.6-6.9 0.6-2.1 1.1-4.2 1.9-7.2-3.5 0.2-6 0.4-8.5-0.2 0-1.3 0-2.5 0.1-4.2 0 0 0.3-0.3 0.9 0.1 0.3-0.7 0.6-1.5 1.1-3q1.1-2.3 2.1-4.6-0.6-0.6-1.2-1.1c-1 1-2.3 1.8-3 3-5 7.7-10.9 14.6-19.9 17.7-6.3 2.1-13.9 0.9-13.4-7.3 6.3-2.7 13-4.8 18.8-8.4 4.2-2.7 8.4-6.7 8.6-13.5 0.4-0.7 0.9-1.3 1.2-2 1.6-3.9 2.4-8.1-0.4-11.3-2.8-3.4-6.9-3.3-11.2-1.9-12.4 4-20.1 13.1-24.5 24.5-2.5 6.5-7 10.5-11.4 15-1.3 1.4-3.6 2.1-5.6 2.5-4 0.8-5.9-1.1-4.8-5.1 0.9-3.3 2.5-6.5 3.8-9.7 2.7-6.4 3.5-16.4-4.9-20.5-3.4-1.6-7.1-4.2-4.5-9.4 0.6-1.1-0.1-2.7-0.2-4.2-5.6 1.6-7.9 5.6-6.7 10.5 0.4 1.7 0.1 3.9-0.6 5.5-2.4 5.6-4.7 11.3-7.7 16.6-4.9 8.2-11 15.4-20.5 18.6-6.6 2.3-14 0.7-13.4-7.2 6.3-2.7 13-4.8 18.8-8.4 4.2-2.7 8.4-6.7 8.6-13.5 0.4-0.7 0.9-1.3 1.2-2 1.6-3.9 2.4-8.1-0.4-11.3-2.8-3.3-6.8-3.3-11.1-1.9-12.6 4.1-20.4 13.2-24.7 24.9-3.5 9.3-8.8 16.1-18 19.4-8.2 3-12.5 1.6-13.9-4-0.9-3.8 0.3-8.1 1.2-12.6 0-0.6-0.1-1.3 0-2 0 0 0-0.1 0.7 0 3.2-3.7 6.3-7.6 9.8-11 3.4-3.4 6.2-2.6 6.8 2.1-0.2 1.2-0.5 2.3-1.1 4.1q-1.3 2.3-2.6 4.6c6.2 2.9 9.3 0.9 10.6-6.6 2-5.3 3.2-10.7-1.5-15-4.3-3.8-9.1-1.8-13.6 0.1-9.8 4-15.1 12-18.2 21.4-2.6 7.9-8.1 12.6-14.6 16.7-3.6 2.3-5.9 0-5.6-2.9 0.6-4.4 2.7-8.6 4.2-12.8 0.8-2.1 1.7-4.1 2.6-6.9 0.3-1.1 0.6-2.3 1.2-4.2 2.3-6.3 0.7-11.2-4.5-12.9-5.7-1.9-11.3-1-16.6 2-9.7 5.6-16 13.9-21.3 23.7-2.7 4.9-7.3 9-11.5 12.9-1.4 1.2-4.9 1.3-6.9 0.6-1.2-0.5-2.4-3.6-2.2-5.3 0.5-4.7 1.3-9.5 3.1-13.8 1.8-4.5 5.2-8.4 7.3-12.8 0.9-2 0.2-4.8 0.3-7.2-2.2 0.6-4.9 0.5-6.4 1.9-2.5 2.2-4.8 5-6.1 8.1-2.5 5.7-4.3 11.7-7 18.1 0 1 0 2.1 0 3.3 0 0-0.1 0.2-0.8 0.6-0.5 1.4-1 2.8-1.3 4.2-1.7 9.7 2.6 17.5 14.4 14.2 4.3-1.2 8.2-3.9 12.3-5.9 3.6 8.3 5.4 9.9 11.6 9 2.3-0.4 4.8-1.5 6.7-2.9 3.3-2.5 6.1-5.6 9.4-8.6 1.2 8.6 7.3 12.3 14.7 8.7 4.8-2.4 8.9-6.1 13.3-9.1 1.9 12 10.8 16.3 23.5 11.2 5.8-2.4 10.7-7 15.8-10.5 2.9 8.2 9.7 12.7 17.9 11.2 11.2-2.1 19.7-8.4 25.9-17.7 2.3-3.4 3.4-7.7 5.1-12.3 1.3-2.7 2.5-5.4 4.4-8.2 0.2-0.7 0.3-1.3 0.7-1.7 0 0-0.3-0.2 0.4-0.4zm-287 0c0-0.6 0.1-1.3 0.2-2 0 0 0.1 0 0.7 0.4 2.4 2.7 4.9 5.4 7.1 8.9-1.7 4.7-3.5 9.4-5.9 14.5-3.7 10.3-0.2 16.9 8.8 16.5 9.4-0.4 23.3-13.4 24.9-23.7q1.1-2.9 2.1-5.8c-1.7-0.1-2.4 0.2-2.9 0.8-3.7 4.3-7.2 8.8-11.2 12.9-1.7 1.8-4.2 3.1-6.6 3.8-4.1 1.1-6.2-1.1-5.1-5.3 0.9-3.2 2.2-6.3 3.6-9.2 4.2-8.5 2.6-15.2-4.8-20.8-2.9-2.1-6.8-4-4.4-9 0.6-1.2 0.1-2.9 0.1-4.5-5.1 0.8-8.1 5.2-7.3 9.5 0.4 2.1 0.4 4.6-0.4 6.5-2.3 5.6-4.6 11.3-7.7 16.5-4.8 8.3-10.9 15.5-20.4 18.6-6.5 2.2-14 0.8-13.4-7.2 6.3-2.7 13-4.8 18.8-8.4 4.2-2.7 8.4-6.7 8.6-13.5 0.6-1.7 1.4-3.5 1.8-5.3 1.8-7-1.5-11.5-8.4-10.6-3.8 0.4-7.9 1.9-11.1 4-9.6 6.4-16.1 15.3-19.5 27.4 0.1 0.3 0.2 0.6 0.4 1.2 0 0-0.2 0.2-0.8 0.6-2.5 6.3-3 12.8 1.5 18.3 3.7 4.6 9.1 6.1 14.8 5.1 11.3-1.9 19.7-8.3 25.9-17.6 2.3-3.5 3.4-7.7 5.1-12.3 1.3-2.7 2.5-5.4 4.4-8.2 0.2-0.7 0.3-1.3 0.7-1.7 0 0-0.3-0.2 0.4-0.4zm688.9-129.9c0.2-0.3 0.4-0.6 0.7-1.6q1-2.8 2.1-5.6-0.7-0.5-1.3-1c-1.3 1.4-2.5 2.9-3.8 4.3-4.7 4.8-9.3 9.7-14.4 14.1-3.2 2.8-5.8 0.1-5.4-2.9 0.6-4.4 2.7-8.5 4.2-12.8 0.8-2 1.7-4 2.6-6.8 0.3-1.1 0.6-2.3 1.2-4.2 2.8-7.6 0.8-11.8-6.9-13.1-3.4-0.6-7.4-0.3-10.6 0.9-11.3 3.9-18.6 12.6-23.6 23-3.6 7.5-8.3 13.3-17.4 16.2-0.6-2.5-1.9-5-1.5-7.3 0.8-6 1.4-12.3 3.6-17.9 7.2-17.5 15.1-34.6 22.6-52 1.2-3 1.6-6.3 2.4-9.5q-1-0.7-2-1.4c-2.3 1.7-5.4 2.8-6.7 5.1-5 9.2-9.6 18.7-14 28.3-3.6 7.8-6.7 15.7-10.1 22.8 0.1-5.1-3.5-5.2-6.7-6.1q4.2 0.5 8.5 0.9c0.3-4.4-1.4-6.8-5.7-6-4 0.8-8.2 2.1-11.6 4.1-7.8 4.7-13.3 11.7-17.5 19.7-3.7 7-7.5 14-14.8 18.3-4.1 2.4-9.3 0.8-9.1-3.3 0.3-4.8 0.9-9.9 2.6-14.4 2-5 5.7-9.3 8-14.2 0.9-1.8 0.3-4.5 0.4-6.7-2.2 0.4-4.9 0.3-6.5 1.5-6.1 4.6-7.9 11.9-10.6 18.6-3.3 8.1-8.3 14.7-15.8 19.1-1.8 1.1-4.5 1.2-6.6 0.8-0.8-0.2-1.8-3.3-1.5-4.7 1.7-6.2 3.2-12.5 5.9-18.2 3.3-7 3.3-8-4.5-9.7-1.3 2.6-2.3 5.3-3.8 7.7-4.7 7.5-9.4 15-14.4 22.3-0.8 1.2-3.4 2.2-4.6 1.7-1.2-0.5-2.6-2.8-2.5-4.3 0.1-4.7 0.3-9.6 1.6-14.1 1.4-4.7 4-9.1 6.1-13.7-5-4-7.1-3.8-9.6 1.7-2.5 5.6-4.4 11.4-7.1 16.9-3.3 6.8-9 11.3-15.6 15 2.8-9.8 5.3-19.1 8-28.3 0.9-3.3 0.4-5.3-3.8-5.4-0.3-0.6-0.5-1.1 0-1.5 0.8-1.1 2.3-2.6 2-3.1-0.7-1.5-2.3-3.7-3.6-3.7-4.2 0.2-8.8 0.4-12.7 1.9-11.6 4.4-19.8 12.3-23.1 25.4-0.8 2.5-1.7 5-2.2 7.6-1.5 7.5 2.6 15.3 8.8 15 4.1-0.1 8.2-3.1 12.3-5 2.2-1 4.2-2.4 6.2-2.9-0.7 5.4-4.7 7.8-9.2 9.8-2.8 1.2-5.8 2.4-7.9 4.4-4.2 4-9.9 7.3-9.8 14.9-2.5 3.7-2.3 7.3 0.8 10.4 3 3.1 6.9 3.2 10.4 0.8 9.2-6.2 14.2-15.2 17.1-25.6 0 0-0.1-0.1 0.5-0.3 0.1-0.6 0.3-1.2 0.5-1.7 0 0-0.1-0.1 0.5-0.2 6.6-4.8 13.1-9.6 19.5-14.3 0 4.9 0.7 10.5 6.7 12.2 9.1 2.5 12.3-5.6 17.1-10.8 1.1 11 7.3 14.5 17.1 9.2 4.3-2.4 7.9-6.1 11.9-9.1 0.9 9.2 6.7 12.7 15.6 9.7 4.9-1.7 9.3-5.2 13.6-7.7 0.8 6.3 3.7 9.7 9.7 8.9 3.8-0.6 7.9-2.6 10.9-5.1 4.5-3.8 8.1-8.6 11.5-12.4 0 2.7-0.1 6 0 9.2 0.2 5.9 3.7 9.2 9.4 7.7 5-1.4 9.8-4 14.7-6 3.4 7.9 5.3 9.6 11.5 8.7 2.4-0.4 4.8-1.5 6.7-2.9 3.3-2.5 6.2-5.6 9.4-8.6 1 7.7 3.6 10.1 11 9.5 8-0.6 12.9-6.2 17.3-12.1 1.7-2.3 2.2-5.5 3.4-8.4 0 0 0.1-0.1 0.8 0.1 0.1-0.6 0.3-1.2 0.7-1.6 0 0-0.2-0.2 0.4-0.2zm-748.1 10.8c0.1-0.6 0.1-1.2 0.2-2 0 0 0.1-0.2 0.8 0.1 0.7-0.9 1.5-1.7 2.2-2.5 5-5.9 9.7-12 14.9-17.8 1.3-1.3 4-2.1 5.7-1.8 1 0.2 1.4 3.3 2 5.1 0.2 0.6 0.2 1.3 0.2 2.6-2.1 5.6-4.1 11.1-6.4 17.4-0.2 0.7-0.4 1.3-0.5 1.9-0.7 2.6-2.6 5.3 1.6 7 3.9 1.5 5.1-0.8 6.7-3.6 4.3-7.2 8.6-14.4 13.5-21.2 1.3-1.9 4.6-2.4 6.9-3.6 0.7 2.1 1.4 4.1 2.1 6.8-0.4 1-0.7 2-1.6 3.6-0.8 2.7-1.9 5.3-2.1 8.1-0.5 5.5 1.6 11.8 9.3 11.5 7.1-0.2 10.6-5.2 14.9-9.3 2.9 7 3.6 8 9.6 8.6 2.8 0.3 5.8-0.6 8.6-1.5 7.6-2.6 14.7-11.6 15.2-17.9 0 0-0.4-0.3 0.3-0.4 0.2-0.7 0.4-1.3 1.1-2.5 1.9-5.9 1.9-5.9 1.2-6.4-5.2 5.6-10 11.2-15.4 16.2-1.3 1.3-4.8 1.3-6.8 0.5-1.3-0.4-2.4-3.5-2.2-5.3 0.5-4.6 1.3-9.4 3.1-13.7 1.8-4.6 5.2-8.4 7.4-12.9 0.9-1.9 1.4-5.4 0.3-6.6-2-2.2-4.5-0.8-6.7 1.2-6.3 5.8-8.2 13.7-11.2 21.1-2.5 6.5-5.3 12.9-11.7 16.6-1.2 0.7-3.9 0.9-4.6 0.2-1-1.1-1.5-3.5-1.1-5 1.1-5.2 2.7-10.2 4-15.3 1.8-6.9-3.3-12.1-10.3-10.7-6.8 1.3-10.2 6.5-14.6 12.6 0.3-2.6 0.4-4.1 0.7-5.6 1.4-5.4 0.2-13.7-2.7-14.6-5.6-1.7-10.7 0-14.8 4.1-3.9 4-7.6 8.2-11.7 11.8-0.1-0.1-0.3-0.2-0.3-1.2 0-1 0.1-2 0-3-0.1-1.9-0.2-3.8-0.3-5.8-2.3 0.3-5-0.1-6.9 1-1.5 0.8-2.5 3.4-2.6 5.3-0.6 12.7-9.1 19.9-18.5 26.4-3.5 2.5-5.9 0-5.5-3 0.6-4.3 2.7-8.5 4.2-12.7 0.8-2.1 1.7-4.1 2.6-6.9 0.3-1.1 0.6-2.3 1.2-4.2 2.8-7.6 0.8-11.8-6.9-13.1-3.4-0.6-7.4-0.4-10.6 0.8-12.9 4.9-20.3 15.2-25.7 27.3-2.8 6.1-6.7 11-14.8 13.1-0.2-2.9-1-5.4-0.5-7.6 0.8-3.6 2.5-7 3.7-10.6 1.8-5.4 0.4-14.2-3-15.8-5.3-2.6-10.8-2.3-15.5 1.7-4.5 3.9-8.7 8.2-12.9 12.1 0.3-2.2 0.6-4.7 1-7.3 0.5-3 0.8-5.8-3.6-5.8-4 0-5.8 1.8-6.5 5.8-0.8 4.4-2.1 8.8-4 12.8-3.2 6.7-9 10.9-15.3 14.6 2.8-9.8 5.3-19.1 8-28.3 0.9-3.3 0.4-5.3-3.8-5.4-0.3-0.6-0.5-1.1 0-1.5 0.7-1.2 2.4-3 2-3.6-0.9-1.4-2.6-3.2-4.1-3.3-12.1-0.9-21.4 4.8-28.5 13.8-3.3 4.2-3.7 10.8-7 15-4.9 6.3-10.6 12.4-18.8 14.9-7 2.2-12.4-1-12.6-7.8 6.3-2.7 13-4.8 18.8-8.4 4.2-2.7 8.4-6.7 8.6-13.5 0.4-0.7 0.9-1.3 1.2-2 1.6-3.9 2.4-8.1-0.4-11.3-2.8-3.4-6.9-3.3-11.2-1.9-12.5 4.1-20 13.3-24.7 24.9-2.5 6.2-6.7 10-11.6 11.8-1.6-7.9-3.2-15.6-4.8-23.3-0.9-4.5-1.7-9.1-2.5-13.7q-0.4-2.3-0.8-4.5c-1.8 0.9-4.5 1.3-5.1 2.7-1.1 2.4 0 5.9-1.4 7.9-4.8 6.6-10.2 12.8-15.3 19.1-1.4 1.7-3.5 3.2-3.8 5.1-1 5.9-5.6 8.6-9.8 11.4-4.7 3.1-9.3 0.4-8.9-5.1 0.4-4.7 1.4-9.5 3.2-13.8 1.8-4.5 5.2-8.4 7.3-12.8 0.9-2 0.2-4.8 0.3-7.2-2.2 0.6-4.9 0.5-6.4 1.9-2.5 2.2-4.8 5-6.1 8.1-2.5 5.7-4.3 11.7-7 18.1 0 1 0 2.1 0 3.3 0 0-0.1 0.2-0.8 0.6-0.5 1.6-1.2 3.1-1.4 4.7-1.4 9.6 2.9 16.9 14.5 13.6 4.6-1.3 8.7-4.3 13-6.5 4.4 12.7 20.2 13.4 26.8 6.2 4.7-5.2 10.4-7.4 16-10.7 2.4 11.8 9.4 16 21.2 13.4 8.3-1.8 14.4-6.8 20.2-12.6 4 8.4 6.3 10.3 12.3 8.4 3.5-1 6.5-3.6 9.8-5.4 1.9-1 3.8-2 5.5-2.3-0.7 5.5-4.7 7.8-9.2 9.8-2.8 1.2-5.8 2.4-7.9 4.4-4.2 4-9.9 7.3-9.8 14.9-3.2 6.4-0.4 12.8 6 12.5 3-0.2 7-1.6 8.6-3.9 5.1-6.9 9.2-14.5 13.8-22.5-0.1-0.2-0.2-0.4-0.1-0.4 0 0-0.1-0.2 0.5-0.4 0.1-0.6 0.2-1.2 0.6-1.6 0 0-0.2-0.2 0.4-0.3 5-3.4 9.9-6.8 15.2-10.5-0.7 5.3 2 8.2 5.8 6.6 1.6-0.7 2.6-2.8 3.8-4.3 5.5-7.3 10.7-14.8 16.7-21.6 2-2.2 6.4-2.4 9.7-3.5q1.2 4 2.4 8c0.1 0.3 0.2 0.7 0.2 1.7-0.4 1.3-0.8 2.6-1.8 4.4-0.3 0.9-0.9 1.8-0.9 2.8-0.4 4-2.1 8.4 1.9 11.5 4 3.1 8.4 2.7 12.7 0.6 2.4-1.3 4.7-2.9 7.1-4.3 3 9.4 9.2 11.8 17.3 6.5 3.7-2.4 6.7-5.9 10.2-9 1.2 8.6 7.4 12.1 15.1 8.4 4-1.9 7.5-4.7 11.2-6.2-0.3 1.4-0.6 2.8-1 4.8 2.4 0.8 4.8 1.7 7.8 2.8 0.8-2.9 1.5-5.2 2.1-7.5 0 0-0.1 0 0.5-0.3 0.1-0.6 0.3-1.2 0.5-1.7 0 0-0.2-0.1 0.5-0.3 0-0.6 0-1.3 0.1-2 0 0 0.1-0.1 0.7-0.1zm-207.8-263c0 0 0.1-0.2 0.8 0.2 7.2-3.6 11.4-9 11.5-17.9 0-2.6 0.3-5.3-0.3-7.8-3.5-17.1-15.3-25.8-31.1-29.7-6.1-1.5-12.8-2.8-17.6 4.3-2.7 3.9-6.4 7.2-11.4 8.9-2.4 0.8-4.2 3.8-6.1 5.9-11.2 12.5-22.3 25.1-33.6 37.5-13.5 14.7-27.2 29.2-40.8 43.8-8.2 8.8-16.5 17.6-24.5 26.6-4.2 4.7-8.7 9.4-11.7 14.9-7.8 14-14.9 28.3-22 42.7-3.1 6.5-5.2 13.4-8.1 20-1.7 3.8-3.3 8.8-6.5 10.8-7 4.3-15.4 5.8-23.5 4.3-6.7-1.3-13.5-3.4-19.4-6.7-12.1-6.7-23.3-5.8-35.3 0.2-11 5.4-22.8 9.4-33.8 14.7-3.9 1.8-7.9 5.1-9.7 8.8-3.6 7.3-5.3 15.4-8.4 22.9-2.1 5.1-4.5 10.6-8.2 14.5-3.8 3.8-9.4 5.9-14.6 8.2q-11.8-14.7-23.5-29.5c-7.6-9.6-15.2-19.3-22.9-28.9-9.3-11.6-18.6-23.2-27.9-34.8-8.7-11-17.3-22.1-26-33.1-8.5-10.9-17.1-21.8-25.9-32.5-3.7-4.6-7.4-9.8-12.3-12.5-8-4.4-17.3-3.9-26.2-2-10.9 2.4-21.9 4.7-32.5 7.8-16.5 4.8-32.8 10.3-43.6 26-6.2 4.7-5.7 11.7 0.6 19.1 4.3 5 9.7 9.1 14.5 13.7q15.1 14.5 30.1 29.1c12.8 12.4 25.6 25 38.5 37.5 10.1 9.8 20.4 19.5 30.4 29.5 3.8 3.7 7 8.1 9.7 12-14.7-4.1-29.8-5.5-44.9-5.9-8.6-0.2-17.3 1-26 1.9-17.1 1.9-33.2 6.9-49 13.9-28 12.5-49.7 32.9-70.4 54.8-13.6 14.3-26.9 29.2-41.7 42.2-14 12.2-30.2 21.8-44.9 33.2-16.8 12.9-31.9 27.4-36.4 50.5-0.2 2.2-0.9 4.6-0.7 6.8 0.4 4.1 4.2 7.1 7.9 6.5 4.9-0.7 9.3-3 10.8-7.6 4.6-15.1 16.5-22.3 29.8-27.1 22.7-8.3 45-17.1 63.4-33.3 8.9-8 18.3-16.3 25-26 9.8-14.3 17.3-30.2 26.2-45 2.5-4.2 6.7-7.3 10.1-10-0.9 2-1.8 4.1-2.8 6.1-3 5.7-6.3 11.2-8.9 17-3.4 7.5-0.5 14.9 0.9 22.2 2.7 13.7 5.9 27.3 2.7 41.3-0.3 1.3-0.1 3-0.9 3.7-3.4 3.4-6.6 7.2-10.6 9.7-8.4 5.1-17.4 9.5-26.1 14.2-4.3 2.3-7.6 5.5-8.2 11.4-1.8 10.4-4 20.9-5.3 31.4-1.2 10.3-1.2 20.8-2.3 31.1-0.3 3.3-1.9 6.8-3.9 9.4-5 6.6-7 13.6-5.1 21.7 0.3 1.2 0.3 2.9-0.4 3.9-5 7.2-4.8 15.2-4.6 23.6 0.4 9.9 6.1 15.5 13.8 19.4 2.6 1.3 7.4 1 9.8-0.5 11.2-7.4 19.1-17.6 22.7-30.8 0.2-0.8-0.1-1.8-0.1-3.4 0.6-1.5 1.3-3 1.9-4.5 6.2-18.4 12.5-36.7 19.4-55.1 0.5-0.4 1.1-0.8 1.4-1.3 6.4-9.7 13.4-18.8 23.4-25 1.2-0.7 2.7-0.8 4-0.4-0.1 1.2 0.2 2.5-0.3 3.4-4.1 6.7-8.4 13.1-12.5 19.8-1.4 2.4-2.1 5.1-3.5 8.4-2 4-0.3 7.2 1.9 10.6 6.1 9.3 12.8 18.4 17.9 28.3 8.4 16.4 15.7 33.3 23.6 49.9 4.4 9.3 12 14.5 22 16.7 10.5 2.2 20.7 0.2 30.9-1.6 4.6-0.9 5.9-3.2 4.6-7.6 0.7-1.2 2.2-2.6 2-3.6-1.3-5.2-2.7-10.5-4.9-15.4-1.6-3.6-3.5-7.7-9.6-5.2-5.8 2.3-16.6-2.8-17.8-7.9-1.9-8-3.9-16.2-4.2-24.4-0.2-11.1 1.2-22.2 1.8-33.4 0.9-16 7.5-29.7 16.6-42.6 3.7-5.3 6.9-10.9 10.8-16.8 6.1-10 12.1-20 18.3-30.1 2.6 1.2 4.4 2 6.2 2.9 17.2 8.6 34.4 17.1 51.6 25.9 10.7 5.4 23.2 6.5 32.9 14.3 0.3 0.3 0.9 0.4 1.4 0.4 4.9-0.1 9.8-0.4 14.7-0.2 1.2 0 3.2 1.2 3.3 2 1.3 8.5 2.2 17 3.2 25.5 0.7 6.3 1.6 12.5 1.7 18.8 0.1 5.4 1.6 10.7-0.2 16.5-2 6.8-3.8 14.5 1 21.2 6.5 8.9 13.1 17.8 20.2 26.3 8.8 10.5 17.8 20.9 24 33.3 1.9 3.7 4.8 5.7 9.2 5.6 5.8-0.1 11.6 0.1 17.5 0 8.8-0.2 17.3-8.5 17.9-17.9 2.8-8.6-1.5-17.4-11.2-17.2-0.6 0-1.4-0.7-1.7-1.6 1.8-1.9 3.7-3.6 5.3-5.6 7.5-9 14.9-18 19.3-29 0.6-1.5 0.3-3.2 0.7-5.6 4.8-5.7 3.3-12.4 2-18.4-3.2-15.1-7.7-29.9-8.8-45.5-0.9-14-2.9-27.9-3.8-41.9-0.4-7.3 0.3-14.8 1.2-22.3 0.9-0.9 1.8-1.9 3.5-3 7-7.2 9.2-16.2 10.1-26.1 3.3-5.3 6.4-10.8 9.8-16 4.5-6.8 9.8-13 13.7-20 5.3-9.5 9.4-19.7 14.4-29.4 5.2-9.7 11.6-18.2 22.2-23.2 9.2-4.4 18.3-9.5 26.6-15.4 7.8-5.5 13.2-13.4 14.2-24.2 3.7-10.2 6.8-20.5 6-32.9-1.5 1.8-2.5 2.5-2.7 3.4-1.2 4.3-1.6 8.9-3.2 13.1-4 10.1-8.3 20.2-18.1 26.3-8.2 5-16.7 9.8-25.3 14.1-12.5 6.4-20.9 16-25.5 29.2-4 11.6-8.8 22.8-16.1 32.7-6.7 9-13.6 17.8-19.8 27.1-2.1 3.3-2.3 7.9-3.6 12.6-3.8-0.7-7.7-1.5-11.6-2.3-14.4-3.2-28.2-7.9-40.8-15.9-12.1-7.8-23.9-16.1-33.3-27-8.2-9.6-14.3-20.8-17.3-33.1 4-1.7 7.9-4.6 11.8-4.7 7.9-0.2 14.2-2.7 20.4-7.5 8.6-6.9 18.9-11.9 23.5-22.7 1.8-4.2 2.8-8.8 4.3-14 1.4-4.1 2.8-8.1 4.9-12.4 3.8-5.5 9.7-7.3 15.6-7.9-3.9 9.4-7.8 18.9-11.6 28.3-1.3 3.3-2.2 6.6-3.7 10.6-0.1 2.6-1.4 5.9-0.2 7.7 5.6 8.6 10.7 18.2 18.2 24.9 9.3 8.2 21.1 13.3 34 14.9 10.1 1.3 15.4-2.5 16.3-13.4 0.3-1.2 0.7-2.4 1-3.6 1.5-6.6-2.9-11.6-4.8-17.3-4.4-13.7-7.8-27.6-11.7-41.9-3.2 1.4-2.2 5-3.1 8.6-0.4 3.9-1.7 8-0.9 11.7 2.4 12.3 5.6 24.4 7.7 36.7-1.3-0.3-2.5-0.7-3.7-1-14.1-3.5-27.4-7.9-36.7-20.4-4.5-6.1-7.5-11.1-3.8-18.9 2.9-5.9 4.6-12.5 5.8-19.1 0.8-4.1 1.7-7.2 6-8.7 0.7-0.2 0.8-2.1 1.1-3.1-0.5 0-1 0.1-1.6-0.6 6.6-3.7 13-7.9 19.9-11 9.1-4.1 18-3.2 26.3 2.9 3.2 2.4 6.8 4.1 10.4 5.8 10.7 5 21.1 4.6 31.3-1.4 3.7-2.1 7.6-3.8 11.5-5.5 2.2-0.9 4.9-0.9 7-2 20.4-10.5 40.7-21.1 60.9-32 4.1-2.2 8-5.2 11.3-8.6 10.8-11.1 21.2-22.5 31.9-33.7 15-15.7 30.1-31.4 45.1-47.1 11.1-11.7 22-23.5 33.5-34.8 3.5-3.5 5.1-7.1 4.6-11.8 0 0 0 0 0.5-0.3 0-0.1 0.1-0.2 0.1-0.3-0.1-0.2-0.2-0.4-0.2-0.9zm496.1 246.1c0 0 0-0.1 0.7 0 3.2-3.7 6.3-7.6 9.8-11 3.4-3.4 6.2-2.6 6.8 2.1-0.2 1.2-0.5 2.3-1.1 4.1q-1.3 2.3-2.6 4.6c6.2 2.9 9.3 0.9 10.6-6.6 0.6-2.3 1.6-4.6 1.8-6.9 0.6-5.7-3.4-9.8-9-9.9-11.7-0.4-24.4 13-27.1 26.5-0.8 5.2-2.1 10.4-2.2 15.6-0.2 6.6 4.4 12 10.4 12.8 5.8 0.7 11.6 0.2 16.6-3.5 3.2-2.3 6.4-4.6 9.9-7.1 0.6 1.9 1 3.6 1.7 5.2 2.2 4.6 8.1 6.4 13.4 3.2 4.5-2.7 8.4-6.5 12.5-9.8 1.3 8.3 7.4 11.7 15.1 8.1 3.6-1.7 6.8-4 10.2-6 0 0 0 0 0 0.8 1.4 1.4 2.9 4 4.1 3.9 2-0.2 4.3-1.8 5.7-3.5 5.8-7.3 11-15.2 17.1-22.3 2-2.2 6.2-3.8 9.2-3.4 4 0.5 2.7 4.9 2.9 7.9 0.1 0.3 0.2 0.7 0.2 1.7-0.4 1.3-0.8 2.6-1.8 4.4-2.6 7.6-2 12.7 1.8 15 5.6 3.5 13.7 0.8 20.3-6.8 6.1 11.2 12.2 13.9 24.3 9.3 5.3-2 10.5-5.3 14.5-9.2 3.1-3.1 8-6.3 6.9-12.6 0 0 0.3-0.3 0.9 0.1 0.3-0.7 0.6-1.5 1.1-3q1.1-2.3 2.1-4.6-0.6-0.6-1.2-1.1c-1 1-2.3 1.8-3 3-5 7.7-10.9 14.6-19.9 17.7-6.3 2.1-13.9 0.9-13.4-7.3 6.3-2.7 13-4.8 18.8-8.4 4.2-2.7 8.4-6.7 8.6-13.5 0.4-0.7 0.9-1.3 1.2-2 1.6-3.9 2.4-8.1-0.4-11.3-2.8-3.3-6.9-3.4-11.1-1.9-13.7 4.8-21.4 14.8-25.9 28.1-2.5 7.2-6.9 12.7-15.7 15.5-0.3-3-1-5.5-0.6-7.8 0.8-3.6 2.5-7 3.6-10.5 1.9-5.5 0.6-14.3-2.9-15.9-5.3-2.6-10.8-2.3-15.4 1.7-4.5 3.9-8.8 8.2-13 12.1 0.3-2.3 0.5-5 1.1-7.7 0.5-2.9 0.4-5.1-3.2-5.4-3.9-0.3-6.8 1.3-6.8 5.3-0.1 12.9-8.9 19.8-17.9 26.5-3.4 2.6-6.6 0.7-6.1-3.7 0.5-4.1 2.8-7.9 4.3-11.8 0.8-2.1 1.7-4.1 2.6-6.9 0.3-1.1 0.6-2.3 1.2-4.2 2.3-6.2 0.7-11.2-4.4-12.9-5.8-1.9-11.3-1-16.6 1.9-10.3 5.8-17.2 14.5-21.8 25-3.3 7.5-8.8 12.4-16.2 15-8.1 3-12.5 1.6-13.9-4-0.9-3.8 0.3-8.1 1.2-12.6 0-0.6-0.1-1.3 0-2zm-747-46.1c-1.1 2.8-2.8 5.7 0.3 8 2.6-3.3 4.4-7.5 7.5-9.1 3.1-1.5 7.6-0.3 12.2-0.3-3.5-6.2-8.3-4.9-12.2-5.9q6.3-0.5 12.6-0.9c-0.9-3.5-5.5-6-10.2-5.3-6.1 0.8-9.8 5.9-10.2 13.5zm1081.1 9.8c-2.2 3-2.5 6 1.5 7.5 5.4 2.1 10.8-2.3 11.2-8.7 2.6-2.7 3.1-6 0-7.8-5-2.9-12.3 2.6-12.7 9zm-518.3-1.2c2.6-2.7 3.1-6 0-7.8-5-2.9-12.3 2.6-12.7 9-2.2 3-2.5 6 1.5 7.5 5.4 2.1 10.8-2.3 11.2-8.7zm86.3 147.2c-2.2 3-2.5 6 1.5 7.5 5.4 2.1 10.8-2.3 11.2-8.7 2.6-2.7 3.1-6 0-7.8-5-2.9-12.3 2.6-12.7 9zm-437.3-147.2c2.6-2.7 3.1-6 0-7.8-5-2.9-12.3 2.6-12.7 9-2.2 3-2.5 6 1.5 7.5 5.4 2.1 10.8-2.3 11.2-8.7zm411.9 190.3c0.2-0.9 0.5-1.7 0.9-3.3 1-2.9 1.8-5.8 3-8.5 2.6-5.7-0.8-14.8-5.1-16.9-5.7-2.9-11.6-2.8-16.8 1.6-3.1 2.6-6.1 5.4-9.5 8.5 0.4-2.3 0.6-4.2 1-6.1 1.8-6.9-0.8-9.9-8.7-9.5-0.5 4.7-1 9.5-1.5 14.3-2.1 21.2-8.7 41.3-16 61.9-0.4 1.4-1.4 3-1.1 4.2 0.6 2.1 2 4 3.1 6.1 1.4-1.1 3.2-1.9 4.1-3.2 0.9-1.3 0.9-3.1 1.5-5.4 4.4-14.7 8.7-29.4 13.5-44.5 0-0.4 0-0.8-0.1-1.4 0 0 0.2-0.2 0.9-0.5 3.6-4.1 6.9-8.5 10.8-12.3 5.2-5 11.5-3.1 13.4 3.8 0.4 1.5 0.5 3 0.6 5.1-5.5 10.6-13.5 17.9-26.5 17.9q0 0.9 0 1.8c2.8 0.7 5.5 1.4 7.7 2.7q-4.6 1-9.2 2 0 0.8 0 1.5c2.2 0.6 4.6 1.8 6.8 1.6 9.2-0.6 17-4.4 22.4-12 1.9-2.7 2.6-6.1 3.9-9.4 0 0 0.2-0.2 0.9 0zm-164 0c0.2-0.9 0.5-1.7 0.9-3.3 1-2.9 1.8-5.8 3-8.5 2.6-5.7-0.8-14.8-5.1-16.9-5.7-2.9-11.6-2.8-16.8 1.6-3.1 2.6-6.1 5.4-9.5 8.5 0.4-2.3 0.6-4.2 1-6.1 1.8-6.9-0.8-9.9-8.7-9.5-0.5 4.7-1 9.5-1.5 14.3-2.1 21.2-8.7 41.3-16 61.9-0.4 1.4-1.4 3-1.1 4.2 0.6 2.1 2 4 3.1 6.1 1.4-1.1 3.2-1.9 4.1-3.2 0.9-1.3 0.9-3.1 1.5-5.4 4.4-14.7 8.7-29.4 13.5-44.5 0-0.4 0-0.8-0.1-1.4 0 0 0.2-0.2 0.9-0.5 3.6-4.1 6.9-8.5 10.8-12.3 5.2-5 11.5-3.1 13.4 3.8 0.4 1.5 0.5 3 0.6 5.1-5.5 10.6-13.5 17.9-26.5 17.9q0 0.9 0 1.8c2.8 0.7 5.5 1.4 7.7 2.7q-4.6 1-9.2 2 0 0.8 0 1.5c2.2 0.6 4.6 1.8 6.8 1.6 9.2-0.6 17-4.4 22.4-12 1.9-2.7 2.6-6.1 3.9-9.4 0 0 0.2-0.2 0.9 0zm246.9-145c0.3-0.8 0.6-1.6 1.1-3.1 0.6-1 1.4-1.9 1.7-2.9 0.2-1-0.1-2.1-0.2-3.2-0.9 0.5-2.1 0.8-2.6 1.6-1.2 1.5-2.1 3.2-3.1 4.9-3.3 5.4-6.6 10.9-13.6 12.3-4.1-4.8-1.2-9 0.1-13.5 1.2-4.4 2.4-9.1 2.3-13.7-0.1-3.5-1.9-7.2-6.5-7.8-5.7-0.8-10.5 0.9-14.8 4.8-3.1 2.9-6.7 5.3-10.1 7.8 0.2-1.6 0.4-3.3 0.6-4.9 0.6-3.1 0.6-5.8-3.8-5.7-4 0-6.1 1.9-6.2 5.9-0.2 9.5-9.6 23.5-18.1 26.7-4.4 1.7-7.8-0.4-6.8-4.8 1.5-6.2 3.2-12.5 5.9-18.2 3.3-6.9 3.2-8-4.6-9.5-0.9 1.8-1.6 3.8-2.7 5.5-4.9 8.1-9.9 16.2-15.1 24.1-0.9 1.3-3.7 2.5-4.9 1.9-1.3-0.5-2.6-3.1-2.5-4.7 0.2-4.8 0.5-9.6 1.8-14.1 1.3-4.6 3.9-8.8 6-13.2-5.2-4-7.3-3.8-9.7 1.8-2.2 5.1-3.6 10.4-5.9 16.1 0 0.6-0.1 1.3 0 2.3 0 0-0.2 0.2-0.9 0.6-0.5 4.6-1.9 9.3-1.2 13.7 0.5 3.3 3 7.1 5.7 9 3.5 2.4 7.7 1 10.7-2.3 2.4-2.6 4.7-5.2 7.1-7.9 0.6 8.5 2.8 11.7 9.2 10.9 5.3-0.8 10.3-3.4 15.7-5.3 3.3 5.4 6.5 5.1 10.6-0.9 5.1-7.6 10.6-14.9 16.6-21.6 2-2.3 6.4-2.5 9.7-3.6q1.2 4 2.4 8c0.1 0.3 0.2 0.7 0.2 1.7-0.4 1.3-0.8 2.6-1.8 4.4-0.5 2-1.2 4.1-1.3 6.2-0.4 6.9 2.2 9.9 8.3 10.3 8.3 0.4 18.9-9.5 19.9-19.6 0 0 0.2-0.2 0.8 0zm-45.7-12.8q-0.2 1.5-0.4 2.9-0.6-0.8-1.3-1.7 0.8-0.6 1.7-1.2zm-550.2-41.2c-3.7 9.6-1.9 13.5 6.3 13.8-0.1-1.8-0.3-3.5 0.4-5.2 0.5-0.7 1.5-1.3 1.5-2 0.3-3 0.3-6 1-9.2 4.7-4.2 8.8-9.4 15.5-9.2-6.2 5.3-7.4 13-9.6 20.1-6 19.3-11.4 38.8-17.7 58.7-0.4 1.2-0.8 2.5-1.2 3.8-1.6 6.3-0.7 8.5 5.9 9.8 4.7 1 10 1.3 14.7 0.3 17.2-3.4 30.3-13.2 39.9-27.8 2.5-3.9 4-8.5 6.1-13.5 6.4-11.9 9.1-24.6 7-38.1-1.7-10.6-6-20.4-18.8-24.2-14.6-4.4-28.2-1.3-40.4 7.3-4.9 3.4-9.9 7.9-10.6 15.4zm791 167.4c2.1-3.9 4.3-7.9 6.1-11.9 4.3-9.6 8.6-19.2 12.6-28.9 0.6-1.3-0.4-3.3-0.7-5-1.7 0.6-3.7 0.8-5.3 1.7-1.2 0.7-2.1 2-2.9 3.3-9.7 15.8-15.3 33.3-21.9 50.4-2.4 6.4-3.8 13.2-5.7 19.8q0.8 0.2 1.5 0.5c5.3-9.7 10.7-19.4 16.3-29.9zm313.4-105.9c-0.6-3.8-2.8-5.2-5.5-3.5-4 2.7-7.8 11.9-3.6 16.9 2.9-4.2 5.7-8.5 9.1-13.4z"/>
	<path id="Layer" fill-rule="evenodd" class="s1" d="m313.6 1163.8q-9.3 27.5-18.7 55c-0.6 1.5-1.3 3-2.1 5.1-4.6 10.3-9.9 19.2-19 25.3-5.4 3.6-9.9 3.9-15.1 0-8.8-6.4-11.1-20.7-5.9-31.9 1.5-3 0.9-6.9 1.7-10.3 1.1-4.7 1.2-10.7 4.2-13.8 3.8-3.9 4.9-8 5.3-12.7 1.1-11.9 1.7-23.8 2.6-35.7 0.7-9.3 1.5-18.5 2.3-27.8 0.1-5.4 3.4-8.6 7.7-10.9 8.7-4.7 17.7-9.1 26.1-14.2 4-2.5 7.2-6.3 10.6-9.7 0.8-0.7 0.6-2.4 0.9-3.7 3.2-14 0-27.6-2.7-41.3-1.4-7.3-4.3-14.7-0.9-22.2 2.6-5.8 5.9-11.3 8.9-17 1-2 1.9-4.1 3.1-6.8 0.5-2.9 0.7-5 1-7.2q-0.9-0.7-1.9-1.3c-0.8 1.4-1.5 2.8-2.4 4.3-4.8 7.9-9.6 15.8-14.5 23.7-8.3 13.2-15.1 27.7-25.4 39.2-18.9 21.2-42.5 36.4-69.9 45.3-9.2 3-17.9 8-26.5 12.4-7.7 4-11.2 11.5-14.7 19-2 4.3-5.5 7.1-10.4 7.4-4.9 0.3-5.4-4.2-7.3-7-0.1-0.1-0.3-0.2-0.5-0.2 4.2-22.3 19.3-36.8 36.1-49.7 14.7-11.4 30.9-21 44.9-33.2 14.8-13 28.1-27.9 41.7-42.2 20.7-21.9 42.4-42.3 70.4-54.8 15.8-7 31.9-12 49-13.9 8.7-0.9 17.4-2.1 26-1.9 15.1 0.4 30.2 1.8 45.3 5.9 0.4 0.1 0.4 0.1 0.5 0.4 0.7 0.3 1.4 0.4 2.3 0.6 3.1 2.8 5.9 5.4 8.7 8 0 0 0.1-0.1-0.3 0.2-18.4-5-36.7-8.8-55.6-9.1-18.4-0.3-36.5 0-54.3 6.7-35.8 13.6-64.4 36.3-88.3 65.4-18.9 22.9-40.4 42.8-65.4 58.8-8.9 5.7-17.8 11.8-26.2 18.3-12.4 9.5-22.8 20.9-27.5 36.4 0.1 0 0 0-0.2 0.3-0.2 1.2-0.3 2.1-0.2 3.4 2.3-1 5.3-1.8 6.5-3.7 3-5 5.2-10.4 7.9-15.7 0.5-0.2 0.7-0.4 0.9-0.9 6.4-4.5 12-9.6 18.6-12.9 10-5 20.6-8.9 30.9-13.2 19.8-8.3 36.7-21.3 51.3-36.3 11.8-12.2 20.2-27.7 30.3-41.5 5.2-7.1 11-13.9 16.6-20.6 0.9-1 3.2-1.8 4.3-1.3 1 0.4 1.6 2.6 1.6 4.1 0.1 2.6 0.2 5.4-0.6 7.8-2.4 7.1-5.6 14-7.7 21.2-1.2 4.5-1.9 9.6-1.2 14.1 1.7 10 4.3 19.8 6.7 29.6 2.1 8.6 0.2 16.7-2.4 25-3.5 9-9.3 15.7-17.2 20.4-6.9 4.1-14 7.9-21.3 11.5-4 1.9-6.4 4.3-5.2 9.4-0.3 7.4-0.7 14.3-1 21.2 0 1.3 0.2 2.7 0 4-1.7 11.5-2.6 23.3-5.3 34.6-1.4 6.1-4.8 12.2-8.9 16.9-2.3 2.7-2.9 4.2-2.3 7.4 0.6 3.1 1.2 7.5-0.4 9.4-4.7 5.6-4.3 11.8-4 18 0.2 6.2 9 11 13.7 7.8 8.9-6.1 14.5-14.7 18.1-24.7 5.6-15.5 10.7-31.2 16.4-46.6 2.9-8 6.4-15.7 10.2-23.2 2.8-5.4 5.7-11.4 10.3-15.1 13.6-10.9 27.7-21.3 42.2-31 14.4-9.5 25-21.5 31.4-37.7 5.2-13.2 11.5-26 17.6-38.9 1.6-3.3 4.5-6 6.7-9q0.9 0.6 1.7 1.2c-12.3 14.1-10.6 33.2-19 49.1 11.2-2.7 29.4-3.6 40.7 3.6 5.8 3.8 11.9 7.1 18.1 10.2 19.2 9.3 38.5 18.3 57.9 27.8 0.7 2.6 1.1 4.9 1.6 7.2q-0.6 0.7-1.2 1.4c-26.5-12.6-52.9-25.2-80.3-38.2-5.9 10.2-12.1 20.7-18.1 31.4-1 1.6-0.9 3.8-1.2 5.8-3.4 5.5-6.6 11.1-10.3 16.4-9.1 12.9-15.7 26.6-16.6 42.6-0.6 11.2-2 22.3-1.8 33.4 0.3 8.2 2.3 16.4 4.2 24.4 1.2 5.1 12 10.2 17.8 7.9 6.1-2.5 8 1.6 9.6 5.2 2.2 4.9 3.6 10.2 4.9 15.4 0.2 1-1.3 2.4-2.8 3.6-10.3 1-19.9 2.9-29.5 2.6-9.7-0.3-18.3-4.6-23.2-13.9-4.5-8.5-8.7-17.2-13-25.7-7.4-14.7-14.5-29.5-22.3-43.9-3.1-5.8-7.8-10.8-11.8-16.1 1.1-2.6 1.8-5.3 3.2-7.7 4.1-6.7 8.4-13.1 12.5-19.8 0.5-0.9 0.2-2.2 0.7-3.9 0.9-3.1 1.4-5.7 2.2-9.6-15.2 9.8-26.8 20.6-32.1 36.9zm74.3 12.5c2.2-18.9 8.2-36.1 20-51.3 2.5-3.1 4.8-6.6 6-10.4 4.3-12.7 13.2-22.3 21.9-32.7q2.5-1.9 5-3.8-0.3-0.9-0.7-1.8c-8.5-2.5-17-5.3-25.6-7.5-5.1-1.2-11.1 1.3-12.5 4.6-5.7 14-15.1 24.8-27.6 33.2-8.1 5.4-16.1 11.2-24.2 16.7-2.8 1.9-3.7 3.9-1.2 7.7 0.8 14.7-6.2 26.4-14 37 10.5 17.3 21.3 34.5 31.5 52.1 5.4 9.5 9.6 19.6 14.7 29.3 2.5 4.9 5.3 9.9 12.1 9.7q5.3-0.3 10.5-0.1c5.7 0.2 11.5 0.6 17.9 1.1 0.9 0.3 1.9 0.5 3.3 0.8-0.8-3.5-1.2-6.4-2.1-9.2-0.8-2.6-2.1-5.1-3.2-7.7-10.5 6.7-28.3 2.3-30.8-13.8-0.6-3.7-1.6-7.4-1.8-11.2-0.5-9.7-0.6-19.4-0.7-29.8 0.1-0.7 0.1-1.4 0.6-2.9 0-1.5 0.1-2.9 0.3-4.6 0 0-0.1-0.4 0.2-1.1 0-1.2 0.1-2.4 0.4-4.3z"/>
	<path id="Layer" fill-rule="evenodd" class="s2" d="m550.8 963c3.7 12.3 9.8 23.5 18 33.1 9.4 10.9 21.2 19.2 33.3 27 12.6 8 26.4 12.7 40.8 15.9 3.9 0.8 7.8 1.6 11.9 2.2 2.2 0.6 4.1 1.3 6.2 2.3 0 0.2 0.3 0.6 0.3 0.6-0.3 9.7-2.5 18.7-10.3 25.9-1.6 0.3-2.6 0.9-3.5 0.8-7.4-0.9-14.6-2.5-22-2.9-17.7-0.9-34.2 3.2-48.9 14.2-7.4 7.1-14.6 14.2-22 21.3-4.2 5.2-5.6 11-4.8 17.7-5.4 3.4-10.7 2.5-16 0.8-4.6-1.6-7.9-4.3-8.3-9.8-0.3-5-0.9-10-4.3-14 3.2 2.5 6 5 8.9 7.5 5.2 4.5 13.5 5 16.5 0.7 2.5-3.7 4.5-7.7 7-11.6 1.5-1.4 2.7-2.8 4.7-5-15.7 1.4-29.5-2-43.2-7.2 0.2 1.2 0.1 1.7 0.3 2.1 0.5 1 1.2 2 1.8 3.4 1.3 3.6 2.5 6.9 3.4 10-2.5-4.6-4.6-9.1-6.7-13.5-0.7-1.4-0.9-3.2-1.9-4-6.3-4.6-8.7-11.5-10.3-18.4-2.6-11.6-4.4-23.4-5.7-35.2-2.3-19.6-1.1-39.2 3.3-58.5 0.7-3-0.2-4.4-2.1-6.3-6.6-6.1-13.1-12.4-19.5-18.6-24.8-24.4-49.6-48.8-74.5-73.2-19.8-19.5-39.8-38.8-59.6-58.3-4.5-4.5-6.1-9.9-3.6-16 10.1-15.6 26.4-21.1 42.9-25.9 10.6-3.1 21.6-5.4 32.5-7.8 8.9-1.9 18.2-2.4 26.2 2 4.9 2.7 8.6 7.9 12.3 12.5 8.8 10.7 17.4 21.6 25.9 32.5 8.7 11 17.3 22.1 26 33.1 9.3 11.6 18.6 23.2 27.9 34.8 7.7 9.6 15.3 19.3 22.9 28.9 7.8 9.9 15.7 19.7 23.7 30.1-0.7 1.8-1.7 3-2.9 4.2-2.1-1.8-3.9-3.4-5.5-5.4-41.2-51.9-82.4-103.8-123.4-156-7.2-9-16-12.1-26.8-10.1-12.3 2.3-24.7 5-36.9 8.1-6.4 1.6-12.5 4.6-19 7.3-4.1 2.8-8.3 4.9-11.8 7.9-7.8 6.8-12.6 13.7-2 23.4 9.8 9 19.3 18.4 28.8 27.7 17.6 17.2 35.1 34.5 52.8 51.8 10.9 10.7 22 21.2 32.9 32 20 19.5 39.9 39.1 59.8 58.8 6.4 6.3 12.4 13 18.6 19.4 1.2 1.2 3 1.8 4.8 3 3.1-1.8 3.4-8.7 0.8-11.1-21.9-21-43.9-41.8-65.5-62.9-40.6-39.7-80.9-79.6-121.3-119.5-1.6-1.6-2.4-4-3.5-6.3 3.4-3.2 6.4-6.7 10.1-9 14-9.1 30.1-12.9 45.9-17.4 4.4-1.2 9.4-1.7 13.8-0.8 4.7 0.9 9.4 3.1 13.3 5.9 3.2 2.3 5.3 6.3 7.9 9.5 16.8 20.9 33.7 41.8 50.5 62.8q23.3 29 46.5 58.2c6.7 8.4 13.3 17 19.6 25.7-1 0.4-1.7 0.5-2.7 0.6-7.4-9.2-14.5-18.1-21.7-27.1-33.6-41.6-67.3-83.3-100.9-124.9-5.9-7.4-11.8-9.6-20.9-6.9-8 2.4-16 4.7-23.7 7.8-7.5 2.9-14.7 6.6-22.4 10.1-3.1 2.8-5.9 5.5-9 8.5 8.9 8.4 17.2 16 25.3 23.8 10.9 10.5 21.7 21 32.5 31.5 10.9 10.5 21.7 21 32.6 31.6 15.9 15.5 31.8 31.1 47.7 46.7 0.5 0.4 1 0.7 1.5 1.1q0-0.7 0-1.3c2.7-0.7 5.4-2 8-1.8 7.7 0.8 15.4 2.1 23.1 3.6 3.3 0.6 6.5 2.3 9.8 3.9 0.6 2.7 1.2 5.1 1.8 7.9 0.7 1.7 1.3 3.1 2 4.5zm97.2 102c0 0 0 0.1 0.5-0.3 0.2-0.6 0.4-1.2 0.5-1.7 0 0 0 0 0.6-0.3q0.2-1.4 0.4-2.7c0 0 0.1 0 0.7 0.1q0.2-1.1 0.3-2.1c0 0 0.1 0 0.6 0.1 0.1-0.4 0.3-0.8 0.4-1.1 0 0 0 0.1 0.5-0.3 0.2-0.6 0.4-1.2 0.5-1.7 0 0 0 0.1 0.6-0.3 0.7-1.8 1.5-3.5 2.7-5.8-0.3-1-0.4-2.6-0.8-2.7-12.9-2.5-25.9-4.9-39.3-7.4 0 0.6-0.1 1.8-0.5 3.8-1 4.3-1.7 8.7-3.1 12.9-1.4 4.3 0.8 5.5 4.3 5.4 10.4-0.3 20.4 1.3 30.6 5 0.2-0.3 0.3-0.6 0.5-0.9zm2-5q0 0 0 0 0 0 0 0zm1-2q0 0 0 0 0 0 0 0zm-107 61.8c0.8-2.4 1.6-4.9 2.3-6.9-6.4-1.2-11.9-2.3-17.5-3.4 0.1 0.9 0.3 2 0.3 3.9 2.9 5.5 9 8.3 14.9 6.4zm4.2-130.7c0.4 0.3 0.8 0.6 1.6 1.3q1.5 1.8 3 3.6 0.8-0.3 1.6-0.5c-0.4-1.8-0.4-3.8-1.3-5.2-6-10.3-11.1-20.8-11-33.1 0-2.6-1.1-3.9-3.7-4.3-4.1-0.5-8.2-1.5-12.3-1.9-4.8-0.4-9.6-0.6-14.3-0.6-1.5 0-4.9 0.7-0.7 3.5 0.3 0.5 0.5 1.2 1 1.7 10.9 10.9 21.8 21.8 32.8 32.7 0.8 0.9 2.2 1.2 3.3 2 0 0-0.2 0.1 0 0.8zm57.8 72.6c0.7-0.8 1.9-1.5 2-2.4 1.2-7.6 2.2-15.3 3.3-23.5-18.7-10.3-37.9-21-52-38.7q-0.6 0.4-1.2 0.7c0.4 2 0.7 4 0.6 6.6-0.4 2.3-1.1 4.6-1.3 6.9-0.5 5.9-1.5 11.9-1.2 17.8 0.6 12.7 1.7 25.3 2.8 38 0.6 6.5 1.5 13 2.3 19.3 0.8 0 1.2 0.2 1.4 0 0.7-0.5 1.4-1 1.9-1.6 7.7-8.1 16.9-13.8 27.3-17.8 4.4-1.7 8.9-3.4 14.1-5.3zm-103.6-88.4c-0.8 1.8-2.1 3.5-2.3 5.3-0.5 7.9-1 15.9-1 23.8 0 18.8 2.8 37.2 6.4 55.6 2.4 11.5 7.3 19.9 18.3 23.7 8.2 2.9 16.7 5 25.2 6.9 1.8 0.4 4.1-1.7 6.7-2.4 3.4 1.3 2.8-0.8 2.4-2.7-1.1-5.1-2.6-10.1-3-15.2-1.5-17.3-2.7-34.7-4.1-52.1-0.1-1.7-0.9-3.6-2.1-4.9-1-1.1-3.1-1.2-4.2-2.3-13.3-13.1-26.5-26.2-39.8-39.3-1-1-2-1.8-3-2.6q-0.6 0.4-1.2 0.8c0.8 1.7 1.6 3.4 1.7 5.4z"/>
	<path id="Layer" fill-rule="evenodd" class="s3" d="m548.8 958.1c-0.6-2.4-1.2-4.8-1.5-7.7 4.5-2.2 8.6-3.9 13-5.5 1.6 0.7 2.8 1.3 4 1.9q0.6-1.4 1.1-2.7c0.7-0.2 1.4-0.3 2.8-0.7 1.7-0.5 2.7-0.9 4.1-1 2.7 0.9 5.2 2.1 5.4-2 0.9-1.2 1.9-2.4 2.8-3.9 4.8-3.2 10.4-5.3 14.2-9.1 3.7-3.9 6.1-9.4 8.2-14.5 3.1-7.5 4.8-15.6 8.4-22.9 1.8-3.7 5.8-7 9.7-8.8 11-5.3 22.8-9.3 33.8-14.7 12-6 23.2-6.9 35.3-0.2 5.9 3.3 12.7 5.4 19.4 6.7 8.1 1.5 16.5 0 23.5-4.3 3.2-2 4.8-7 6.5-10.8 2.9-6.6 5-13.5 8.1-20 7.1-14.4 14.2-28.7 22-42.7 3-5.5 7.5-10.2 11.7-14.9 8-9 16.3-17.8 24.5-26.6 13.6-14.6 27.3-29.1 40.8-43.8 11.3-12.4 22.4-25 33.6-37.5 1.9-2.1 3.7-5.1 6.1-5.9 5-1.7 8.7-5 11.4-8.9 4.8-7.1 11.5-5.8 17.6-4.3 15.8 3.9 27.6 12.6 31.1 29.7 0.6 2.5 0.3 5.2-0.3 8.1-2.5 2.4-4 5-6.1 6.6-3.8 2.7-5.7 6-5.5 10.6 0 0-0.1 0.2-0.3 0.5-0.3 0.6-0.3 0.9-0.2 1.2 0 0 0 0-0.3 0.1-2.3 2.4-4.3 4.7-6.4 6.8-17.4 18.3-35 36.6-52.4 54.9-17.9 18.8-35.7 37.8-53.7 56.5-3 3.2-6.5 6.3-10.3 8.5-15.3 8.6-30.8 17-46.3 25.3-6.6 3.5-13 7.9-20.1 9.8-5.6 1.6-10.2 4.6-15.4 6.7-5.2 2.2-10.9 3.7-16.6 4.3-10.2 1.3-18.1-4.9-26-9.9-7.1-4.5-14.2-5.3-21.9-2.9-3.9 1.2-7.7 3.1-11.4 4.9-8.4 4.1-16.4 9.1-25 12.4-7.3 2.7-11.1 7.2-12.5 14.5-1.4 4.1-2.8 8.1-4.5 12.9-5.7 17.6-21 24.7-34 34.1-1.6 1.2-4.1 2-6.1 1.8-8.5-0.7-15.2 3.9-22.3 7.4zm364.8-278.8c0 0-0.1-0.2-0.5-0.6-0.7-0.3-1.4-0.6-2-0.8 0 0 0 0-0.3-0.6-4.2-2.1-8.5-4.3-12.9-7.1-5.6-3.7-9.6-2.2-13.9 5.7 1.8 0 3.4 0 5.7 0.3 1.9 0.8 3.8 1.6 5.6 2.6 13.4 6.5 22.4 17.4 29.8 29.9 0.7 1.3 1.2 5.2 4.7 1.2 3.9-2.4 1.7-5.4 0.7-8.2-2.9-8.6-7.5-15.9-15.5-21.2-0.4-0.4-0.9-0.7-1.4-1.2zm-104.6 153.7c0 0 0.1 0.1 0.8 0.1 1.1-1 2.2-2.1 3.5-3.4 0 0-0.1-0.3 0.6-0.6 3.1-6.6 0.9-12.1-5.3-12-4.1 0.1-5.7-2.2-6.9-5.1-3-6.9-4.7-8-11.9-5.1-3.2 1.3-4.4-0.2-5.3-2.4-0.7-1.6-0.6-3.6-1.3-5.3-0.8-1.9-1.7-4.5-3.3-5.1-2.7-1.1-5 0.2-6.6 3.3-6.4 13.5-13.2 26.8-19.9 40.2q-3.3 6.6-6.6 13.2 0.4 0.3 0.8 0.6c1.8-1.4 3.6-2.8 6.3-4.4 7.4 0 9.5 1.9 8 7.9-0.3 1.4-1.4 2.7-2.9 5.2 8.1-4.3 15.2-8 22.2-11.8 8.6-4.7 17.2-9.5 26.4-14.1 0.5-0.4 1-0.7 1.4-1.2zm92.8-165c14.2 5.2 25.9 13.4 32.1 29 2.4-2.6 4.4-4.8 7-7.3 0.3-1.5 0.9-3.1 0.7-4.6-2.3-13.9-11.4-21.6-23.8-26.3-9.2-3.6-15.8-0.9-20.6 8.3 1.3 0.3 2.6 0.5 4.6 0.9zm-10.5 20.4c0.3-0.6 1-1.4 0.8-1.7-2.8-4.2-12.1-4.8-15.4-1.3q-34 36.8-68 73.6c-9.3 9.9-18.6 19.8-28.4 30.1 1.9 0.3 3.3 0.5 5.5 0.9 2 2.1 4 4.2 6.6 6.9 0.2-0.4 0.7-1.3 1.3-2.1 10.3-11.7 20.6-23.4 31-35 8.2-9 16.5-17.9 24.8-26.8 4.4-4.7 8.8-9.4 13.1-14.2 8.2-9 16.2-18 25.1-27.1 1.1-0.6 2.2-1.2 3.4-1-4.6 5.5-9.1 11.2-13.9 16.6-7.8 8.6-15.7 17.1-23.5 25.6-12.2 13.5-24.4 27-36.7 40.5-7.6 8.4-15.3 16.7-23.4 25.4 2 0 3.2 0 5.2 0.2 7.9 2.1 8.6 2.9 9.6 10.9 0.6 0 1.6 0.3 1.9-0.1 32.3-34.8 64.5-69.8 97.5-104.8 1.4-1.1 2.7-2.2 4.9-4-5.4-4.3-10.2-8.4-15.4-12.1-1.2-0.8-3.5 0-6-0.5zm25.3 27.3c3.2-4.3 2.8-5.7-3.8-12.5-6 6.9-12 13.9-18.2 20.6q-19.7 21.5-39.7 42.8c-8 8.4-16.1 16.7-24.1 25.1-5.5 5.7-10.9 11.5-16.4 17.3-1.3 1.4-2.9 2.9 1.3 3.8 1.8 2.4 3.6 4.9 5.6 7.6 0.2-0.2 1-1.1 1.7-1.9 7.6-8.6 15.1-17.3 22.8-25.8 11.8-12.9 23.8-25.7 35.6-38.6 11.5-12.7 23-25.5 35.2-38.4z"/>
	<path id="Layer" fill-rule="evenodd" class="s3" d="m1014 939.1c4-0.5 4.5 1.5 3.6 4.8-2.7 9.2-5.2 18.5-8 28.3 6.3-3.7 12.1-7.9 15.3-14.6 1.9-4 3.2-8.4 4-12.8 0.7-4 2.5-5.8 6.5-5.8 4.4 0 4.1 2.8 3.6 5.8-0.4 2.6-0.7 5.1-1 7.3 4.2-3.9 8.4-8.2 12.9-12.1 4.7-4 10.2-4.3 15.5-1.7 3.4 1.6 4.8 10.4 3 15.8-1.2 3.6-2.9 7-3.7 10.6-0.5 2.2 0.3 4.7 0.5 7.6 8.1-2.1 12-7 14.8-13.1 5.4-12.1 12.8-22.4 25.7-27.3 3.2-1.2 7.2-1.4 10.6-0.8 7.7 1.3 9.7 5.5 6.4 13.5-1.9 0.3-3.1 0.3-4.6 0.3 1.1-4.3 0.8-7.9-3.9-8.8-4.7-0.9-9.6-0.1-12.5 3.9-4.5 6.3-8.2 13.1-12.2 19.7 0 0 0 0-0.2 0.3-0.3 0.8-0.3 1.4-0.5 2.4-0.3 2.4-0.8 4.3-0.8 6.2 0 4.6 1.9 5.7 5.7 3.4 3.1-1.9 6.1-4 8.3-6.7 4.9-6 9.4-12.3 14.3-18.4 2.1 0.8 3.8 1.6 5.6 2.3-0.8 2-1.7 4-2.5 6.1-1.5 4.2-3.6 8.4-4.2 12.7-0.4 3 2 5.5 5.5 3 9.4-6.5 17.9-13.7 18.5-26.4 0.1-1.9 1.1-4.5 2.6-5.3 1.9-1.1 4.6-0.7 6.9-1 0.1 2 0.2 3.9 0.3 5.8 0.1 1 0 2-0.4 3.5-0.3 1.4-0.4 2.3-0.5 4.1 0.8-1.6 1.2-2.3 1.5-2.9 3.8-4.1 7.5-8.3 11.4-12.3 4.1-4.1 9.2-5.8 14.8-4.1 2.9 0.9 4.1 9.2 2.7 14.6-0.3 1.5-0.4 3-0.7 5.6 4.4-6.1 7.8-11.3 14.6-12.6 7-1.4 12.1 3.8 10.3 10.7-1.3 5.1-2.9 10.1-4 15.3-0.4 1.5 0.1 3.9 1.1 5 0.7 0.7 3.4 0.5 4.6-0.2 6.4-3.7 9.2-10.1 11.7-16.6 3-7.4 4.9-15.3 11.2-21.1 2.2-2 4.7-3.4 6.7-1.2 1.1 1.2 0.6 4.7-0.3 6.6-2.2 4.5-5.6 8.3-7.4 12.9-1.8 4.3-2.6 9.1-3.1 13.7-0.2 1.8 0.9 4.9 2.2 5.3 2 0.8 5.5 0.8 6.8-0.5 5.4-5 10.2-10.6 15.4-16.2 0.7 0.5 0.7 0.5-1.8 6.8-0.7 1-1 1.6-1.2 2.2 0 0 0.4 0.3-0.1 0.3-3.1 3.2-5.5 6.7-8.6 9.4-4.4 3.7-10 6.1-15.4 3-3.1-1.7-5-5.5-6.3-7.1-2.4 1.9-5.4 5.1-9 6.7-3.1 1.3-7.5 1.9-10.5 0.7-2.3-0.9-3.5-5-4.7-7.8-0.5-1.4 0-3.3 0-4.9 0.4-1.1 0.7-2.1 1.4-3.8 0.8-3.5 1.8-6.4 1.9-9.3 0-3.3-2-5.1-5.2-3-2.2 1.4-4.4 3.2-5.8 5.3-5.2 7.6-10.2 15.4-15.8 24-1.7-1.3-3.6-2.8-5.4-4.3 2-5.6 4-11.1 6.4-17.3 0.8-3.8 1.6-6.9 1.7-10 0-4.2-2-5.4-5.8-3.5-1.6 0.8-3.3 1.8-4.3 3.2-6 8.3-11.7 16.7-17.6 25 0 0-0.1 0.2-0.3 0.5-0.4 0.8-0.5 1.3-0.6 1.7 0 0-0.1 0.1-0.3 0.4-0.4 0.8-0.5 1.4-0.6 1.9 0 0 0.2 0.1-0.1 0.2-0.5 0.7-0.6 1.3-0.8 1.9 0 0 0.1 0-0.3 0.1-2.7-1-4.9-2-7-3.3 1-2.6 1.8-4.9 3-8.2-3.6 3.4-6.1 6-8.9 8.4-9.1 7.7-17.5 4.9-19.9-6.2-4 3.6-7.9 7.8-12.4 11-4.8 3.4-11.9 0.5-13.8-4.9-0.5-1.4-0.6-3-1.1-5.4-3.9 6.2-9.4 9.7-15 8.9-4.6-0.6-8.1-5.4-7.4-11.3 0.4-1.3 0.8-2.6 1.5-4.6 0.8-2.8 1.9-5.1 1.9-7.3-0.1-2.6-0.4-6.4-2.1-7.5-1.6-1.2-5.8-0.7-7.7 0.7-4 3-7.8 6.6-10.9 10.6-4.4 5.6-8.1 11.8-12.4 18.2-1.8-0.9-4.6-1.3-5.3-2.8-0.7-1.5 0.5-4 0.8-5.8-4.2 3.2-8.2 6.9-12.7 9.6-3.6 2.2-5.6 4.9-6.3 8.7 0 0 0.2 0.2-0.2 0.2-0.5 0.7-0.7 1.3-0.8 1.8 0 0 0.1 0.2-0.2 0.2-0.4 0.3-0.5 0.7-0.8 1.3-4 5.5-7.2 11.5-11.8 16.1-6.3 6.2-11.8 4.5-14.8-3.5-0.7-7.2 5-10.5 9.2-14.5 2.1-2 5.1-3.2 7.9-4.4 4.5-2 8.5-4.3 9.3-10.2 0-0.4 0-0.4 0.2-0.6 0.3-0.4 0.4-0.7 0.6-1.3 1.1-3.3 2-6.3 3.2-10.4-3.7 3.9-6.5 6.9-9.3 9.8-3.5 3.7-8.1 6.5-12.8 4.3-3.3-1.6-5.4-5.7-7.3-7.9-1.6 1.3-4.3 3.3-6.8 5.4-5.4 4.4-11.3 8.1-18.4 7.7-3.8-0.2-8.3-1.6-11-4.1-2.9-2.6-4-7.1-6.1-11.1-5.4 4.1-10.9 8.9-17 12.7-8.4 5.3-16.6 5.1-22.1-2.7-1.4-1.9-2.2-4.3-3.5-6.9-1.9 2-3.4 4.1-5.3 5.7-3.8 3.2-8.4 5.1-13.3 3.8-6.8-1.9-7.9-4-8.4-13.2 0 0 0.1-0.2 0.3-0.6 0.2-1.4 0.3-2.4 0.4-3.4 2.1-5.9 3.9-11.9 6.4-17.6 1.3-3.1 3.6-5.9 6.1-8.1 1.5-1.4 4.2-1.3 6.4-1.9-0.1 2.4 0.6 5.2-0.3 7.2-2.1 4.4-5.5 8.3-7.3 12.8-1.8 4.3-2.8 9.1-3.2 13.8-0.4 5.5 4.2 8.2 8.9 5.1 4.2-2.8 8.8-5.5 9.8-11.4 0.3-1.9 2.4-3.4 3.8-5.1 5.1-6.3 10.5-12.5 15.3-19.1 1.4-2 0.3-5.5 1.4-7.9 0.6-1.4 3.3-1.8 5.1-2.7q0.4 2.2 0.8 4.5c0.8 4.6 1.6 9.2 2.5 13.7 1.6 7.7 3.2 15.4 4.8 23.3 4.9-1.8 9.1-5.6 11.6-11.8 4.7-11.6 12.2-20.8 24.7-24.9 4.3-1.4 8.4-1.5 11.2 1.9 2.8 3.2 2 7.4 0.4 11.3-0.3 0.7-0.8 1.3-1.6 2.5-7.5 9.3-16.6 14.1-27.8 15.9 0 1.6 0 3.6 0 5.5 1 6.8 6.4 10 13.4 7.8 8.2-2.5 13.9-8.6 18.8-14.9 3.3-4.2 3.7-10.8 7-15 7.1-9 16.4-14.7 28.5-13.8 1.5 0.1 3.2 1.9 4.1 3.3 0.4 0.6-1.3 2.4-2.5 3.2-2.1-0.6-3.6-0.9-5-0.7-11 1.4-20.4 10.6-22.6 22.2-0.1 0.1 0 0.4-0.1 0.6-0.2 0.6-0.2 1-0.4 1.7 0.6 2.7 0.8 6.2 2.4 7.1 1.6 0.8 5.2-0.4 6.9-1.8 7.2-6.3 14.3-12.9 14.9-23.7 1.8-1 3.2-2 4.6-2.9zm-68.8 16.1q0 0.8 0 1.6c0.3-0.3 0.6-0.5 1.5-0.8 0.5-0.3 0.9-0.6 1.4-0.9 0 0 0 0 0.7-0.1 6.9-2.8 12.7-7.1 17.9-13.3 0.4-0.7 1.1-1.4 1.1-2.1 0.2-2.1 0.1-4.2 0-6.3-1.8 0.2-3.8 0.1-5.5 0.9-8.9 4-13.3 11.9-16.6 20.6 0 0-0.1 0-0.5 0.4zm-46.5 4.2c0 0 0 0-0.7 0.4-1.7 5.2 1.8 13 6.9 13.9 2.4 0.5 5.2-1.1 8.4-2.3-0.4-1-0.6-2.3-1.3-2.8-3.6-2.4-7.3-4.5-10.9-6.7 0 0 0.1 0-0.2-0.5-0.3-0.5-0.7-0.9-0.9-1.9q-0.6-0.1-1.3-0.1zm81.1 40.4c0.8 3.9 2.8 4.4 5.3 1.5 2.8-3.3 5.4-6.8 8.7-10.5q1.4-3.1 2.7-6.2c-4.5 1.5-8.4 3.3-11.4 6-2.4 2.2-3.5 5.6-5.3 9.2zm-66.6-34.1c0.9-0.2 2.6-0.4 2.6-0.7 0.8-8.6-1.2-16.8-3.7-25.4-3.7 5-7 9.3-10.3 13.7-1.5 1.8-1.6 3.2 1.2 4.5 3.3 2.4 6.6 4.9 10.2 7.9z"/>
	<path id="Layer" class="s4" d="m339.6 796c-2.1 6.1-0.5 11.5 4 16 19.8 19.5 39.8 38.8 59.6 58.3 24.9 24.4 49.7 48.8 74.5 73.2 6.4 6.2 12.9 12.5 19.5 18.6 1.9 1.9 2.8 3.3 2.1 6.3-4.4 19.3-5.6 38.9-3.3 58.5 1.3 11.8 3.1 23.6 5.7 35.2 1.6 6.9 4 13.8 10.3 18.4 1 0.8 1.2 2.6 1.9 4 2.1 4.4 4.2 8.9 6.7 13.5 0.4 0 0.2 0.1 0.2 0.1 3.8 4 4.4 9 4.7 14 0.4 5.5 3.7 8.2 8.3 9.8 5.3 1.7 10.6 2.6 16.4-0.8 1.4 0.8 2.6 1.8 2.8 3 2.2 11.9 3.9 23.9 6.3 35.7 2.2 11.4 3.2 22.9 0.5 34.2-2.3 9.9 1.1 17 7.4 24.4 12.2 14.4 25.6 28.1 34.3 45.2 3.4 6.6 8.2 8 14.6 7.4 1-0.1 2-0.4 3-0.3 10.3 1.3 19.4-0.6 25.8-9.8-0.2 8.6-8.7 16.9-17.5 17.1-5.9 0.1-11.7-0.1-17.5 0-4.4 0.1-7.3-1.9-9.2-5.6-6.2-12.4-15.2-22.8-24-33.3-7.1-8.5-13.7-17.4-20.2-26.3-4.8-6.7-3-14.4-1-21.2 1.8-5.8 0.3-11.1 0.2-16.5-0.1-6.3-1-12.5-1.7-18.8-1-8.5-1.9-17-3.2-25.5-0.1-0.8-2.1-2-3.3-2-4.9-0.2-9.8 0.1-14.7 0.2-0.5 0-1.1-0.1-1.4-0.4-9.7-7.8-22.2-8.9-32.9-14.3-17.2-8.8-34.4-17.3-51.6-25.9-1.8-0.9-3.6-1.7-6.2-2.9-6.2 10.1-12.2 20.1-18.6 30.3 0.1-1.8 0-4 1-5.6 6-10.7 12.2-21.2 18.1-31.4 27.4 13 53.8 25.6 80.3 38.2q0.6-0.7 1.2-1.4c-0.5-2.3-0.9-4.6-1.6-7.6-3.4-6.4-6.8-12-9.9-17.8-1-1.8-0.8-4.8-2.1-5.9-8.6-6.5-10.8-16.3-12.9-25.6-4.2-18.5-6.8-37.1-4.2-56.1 1.4-11 2.7-22 4-32.9 0.1-1.2 0.1-2.9-0.5-3.6-5.2-5.6-10.1-11.6-18.7-12-2.1-0.1-4.3-0.5-6.3-1.1-24.6-7.7-50-10-75.6-8.9-6.6 0.3-13.5 0.4-19.6 2.5-32.1 10.7-60.8 27.2-84.2 51.9-15 15.8-28.9 32.5-44.3 47.8-9.4 9.3-20.4 16.8-31.1 24.7-13 9.7-26.4 18.8-39.4 28.4-2 1.5-2.9 4.5-4.3 6.8 0.1 0.4-0.1 0.6-0.9 0.8-3.7 3.9-6.8 7.8-10 11.6-1.1 1.4-2.4 2.7-3.7 4.1 4.7-15.5 15.1-26.9 27.5-36.4 8.4-6.5 17.3-12.6 26.2-18.3 25-16 46.5-35.9 65.4-58.8 23.9-29.1 52.5-51.8 88.3-65.4 17.8-6.7 35.9-7 54.3-6.7 18.9 0.3 37.2 4.1 55.5 9.3 0.5 0 0.8 0 1 0q-0.3-0.2-0.6-0.4c-2.8-2.6-5.6-5.2-8.9-8.3-1.1-0.4-1.7-0.5-2.2-0.6 0 0 0 0 0 0-3.5-4-6.7-8.4-10.5-12.1-10-10-20.3-19.7-30.4-29.5-12.9-12.5-25.7-25.1-38.5-37.5q-15-14.6-30.1-29.1c-4.8-4.6-10.2-8.7-14.5-13.7-6.3-7.4-6.8-14.4-0.3-19.2z"/>
	<path id="Layer" fill-rule="evenodd" class="s3" d="m1874.9 949.2c-0.8 2-1.7 4-2.5 6-1.5 4.3-3.6 8.4-4.2 12.8-0.4 3 2.2 5.7 5.4 2.9 5.1-4.4 9.7-9.3 14.4-14.1 1.3-1.4 2.5-2.9 3.8-4.3q0.6 0.5 1.3 1c-0.7 1.8-1.4 3.7-2.4 6-0.6 0.7-0.8 0.9-1 1.2 0 0 0.2 0.2-0.2 0.2-0.5 0.5-0.7 0.9-1 1.4q0 0-0.4 0.4c-3.3 3.6-6.1 7.2-9.4 10.1-9.1 7.9-17.7 5-20-6.2-3.9 3.6-7.7 7.6-12 10.9-3.8 2.9-9.8 2-12.4-1.8-1.6-2.4-2.2-5.5-3.1-8-2.9 2.3-5.7 4.9-8.9 7-3.5 2.3-8.1 3.1-11.1 0.1-2.3-2.2-3.3-6.1-4-9.5-0.4-2.6 0.5-5.5 1.1-8.3 0.3-0.4 0.3-0.9 0.3-1.3-0.2 0.4-0.4 0.9-0.9 1.3-5.9 6-10.8 12.7-17.1 17.6-6.6 5.2-14 1.4-15.5-6.8-0.1-0.7-0.2-1.3-0.4-2.6-5.3 7-11.1 12.3-19.6 11.3-6.6-0.8-8.9-6.1-8.8-12.4-3.9 3.6-7.3 7.2-11.2 10.2-4 2.9-8.6 4.1-13.3 1.5-4.7-2.6-4.3-7.1-4-11.4 0-0.3-0.3-0.5-0.6-0.9-1.4 2.1-2.6 4.2-4.2 6.1-1.6 1.9-3.3 3.7-5.3 5.2-4.6 3.7-9.7 2.8-12.4-2.5-1.5-3-2-6.4-2.7-8.8-4.9 4.1-9.9 8.8-15.5 12.6-3.5 2.3-5.6 4.9-6.3 8.7 0 0 0.1 0.1-0.2 0.2-0.5 0.7-0.7 1.3-0.8 1.8 0 0 0.1 0.1-0.2 0.2-4.3 5.8-7.5 12.1-12.2 17-6.4 6.6-12.2 5-15.2-3.1-0.7-7.2 5-10.5 9.2-14.5 2.1-2 5.1-3.2 7.9-4.4 4.5-2 8.5-4.4 9.3-10.2 0.1-0.4 0-0.4 0.2-0.6 0.3-0.4 0.4-0.7 0.6-1.3 1.1-3.2 1.9-6.2 2.9-9.5-4.7 4.4-8.6 8.8-13.3 12-6.8 4.6-14.1 0.7-15-7.5-0.3-2.6-0.1-5.3-0.1-7.9 2.8-12.6 11-20.5 22.6-24.9 3.9-1.5 8.5-1.7 12.7-1.9 1.3 0 2.9 2.2 3.6 3.7 0.3 0.5-1.2 2-2.5 2.7-2.1-0.6-3.6-0.9-5-0.7-11 1.4-20.4 10.6-22.6 22.2-0.1 0.1 0 0.4-0.1 0.6-0.2 0.6-0.2 1-0.4 1.7 0.6 2.7 0.8 6.2 2.4 7.1 1.6 0.8 5.2-0.4 6.9-1.8 7.2-6.3 14.3-12.9 14.9-23.7 1.8-1 3.2-2 4.6-2.9 4-0.5 4.5 1.5 3.6 4.8-2.7 9.2-5.2 18.5-8 28.3 6.6-3.7 12.3-8.2 15.6-15 2.7-5.5 4.6-11.3 7.1-16.9 2.5-5.5 4.6-5.7 9.6-1.7-2.1 4.6-4.7 9-6.1 13.7-1.3 4.5-1.5 9.4-1.6 14.1-0.1 1.5 1.3 3.8 2.5 4.3 1.2 0.5 3.8-0.5 4.6-1.7 5-7.3 9.7-14.8 14.4-22.3 1.5-2.4 2.5-5.1 3.8-7.7 7.8 1.7 7.8 2.7 4.5 9.7-2.7 5.7-4.2 12-5.9 18.2-0.3 1.4 0.7 4.5 1.5 4.7 2.1 0.4 4.8 0.3 6.6-0.8 7.5-4.4 12.5-11 15.8-19.1 2.7-6.7 4.5-14 10.6-18.6 1.6-1.2 4.3-1.1 6.5-1.5-0.1 2.2 0.5 4.9-0.4 6.7-2.3 4.9-6 9.2-8 14.2-1.7 4.5-2.3 9.6-2.6 14.4-0.2 4.1 5 5.7 9.1 3.3 7.3-4.3 11.1-11.3 14.8-18.3 4.2-8 9.7-15 17.5-19.7 3.4-2 7.6-3.3 11.6-4.1 4.3-0.8 6 1.6 5.7 6-2.9-0.3-5.7-0.6-9.1-0.5-9.1 3.4-13.7 10.2-16.9 18.2 0.1 0 0 0-0.3 0.2-0.5 0.9-0.8 1.6-1.1 2.5 0 0 0 0.2-0.2 0.5-0.5 1.5-0.8 2.8-1.3 4.4-0.3 1.5-1 2.6-0.8 3.6 0.5 2.3 0.8 5.3 2.4 6.4 1.2 1 4.8 0.4 6.2-0.8 8.6-7.6 15.6-16.4 19.2-27.8 0.1-0.2 0.2-0.7 0.2-0.7 3.3-7.9 6.4-15.8 10-23.6 4.4-9.6 9-19.1 14-28.3 1.3-2.3 4.4-3.4 6.7-5.1q1 0.7 2 1.4c-0.8 3.2-1.2 6.5-2.4 9.5-7.5 17.4-15.4 34.5-22.6 52-2.2 5.6-2.8 11.9-3.6 17.9-0.4 2.3 0.9 4.8 1.5 7.3 9.1-2.9 13.8-8.7 17.4-16.2 5-10.4 12.3-19.1 23.6-23 3.2-1.2 7.2-1.5 10.6-0.9 7.7 1.3 9.7 5.5 6.4 13.5-1.9 0.3-3.1 0.3-4.6 0.3 1.1-4.3 0.8-7.9-3.9-8.8-4.7-0.9-9.6-0.1-12.5 3.9-4.5 6.3-8.2 13.1-12.2 19.7 0 0 0 0-0.2 0.3-0.3 0.8-0.3 1.4-0.5 2.4-0.3 2.4-0.8 4.3-0.8 6.2 0 4.6 1.9 5.7 5.7 3.4 3.1-1.9 6.1-4 8.3-6.7 4.9-6 9.4-12.3 14.3-18.4 2.1 0.8 3.8 1.6 5.6 2.3zm-214.1 41.6q1.4-3.1 2.7-6.2c-4.5 1.5-8.4 3.3-11.4 6-2.4 2.2-3.5 5.6-5.3 9.2 0.8 3.9 2.8 4.4 5.3 1.5 2.8-3.3 5.4-6.8 8.7-10.5z"/>
	<path id="Layer" fill-rule="evenodd" class="s5" d="m1314.3 1109c0 0 0.1-0.2 0.3-0.6 0.2-1.4 0.3-2.4 0.4-3.4 2.1-5.9 3.9-11.9 6.4-17.6 1.3-3.1 3.6-5.9 6.1-8.1 1.5-1.4 4.2-1.3 6.4-1.9-0.1 2.4 0.6 5.2-0.3 7.2-2.1 4.4-5.5 8.3-7.3 12.8-1.8 4.3-2.6 9.1-3.1 13.8-0.2 1.7 1 4.8 2.2 5.3 2 0.7 5.5 0.6 6.9-0.6 4.2-3.9 8.8-8 11.5-12.9 5.3-9.8 11.6-18.1 21.3-23.7 5.3-3 10.9-3.9 16.6-2 5.2 1.7 6.8 6.6 4 13.3-1.9 0.3-3.1 0.3-4.6 0.3 1.1-4.3 0.8-7.9-3.9-8.8-4.7-0.9-9.6-0.1-12.5 3.9-4.5 6.3-8.2 13.1-12.2 19.7 0 0 0 0-0.2 0.3-0.3 0.8-0.3 1.4-0.5 2.4-0.3 2.4-0.8 4.3-0.8 6.2 0 4.6 1.9 5.7 5.7 3.4 3.1-1.9 6.1-4 8.3-6.7 5-6 9.4-12.3 14.3-18.4 2.1 0.8 3.8 1.6 5.6 2.3-0.8 2-1.7 4-2.5 6.1-1.5 4.2-3.6 8.4-4.2 12.8-0.3 2.9 2 5.2 5.6 2.9 6.5-4.1 12-8.8 14.6-16.7 3.1-9.4 8.4-17.4 18.2-21.4 4.5-1.9 9.3-3.9 13.6-0.1 4.7 4.3 3.5 9.7 0.8 15.2-2.9 0.5-5 0.8-7 1.2 0.3-1.2 0.6-2.3 1.3-4 2.6-3.7 3.5-7 0.3-10.1-9.7 3.6-14.3 8.6-18.1 19.4 0 0 0 0.1-0.2 0.4-0.3 0.9-0.4 1.5-0.4 2.1-0.3 4.1-1.5 8.4-0.6 12.2 1.4 5.6 5.7 7 13.9 4 9.2-3.3 14.5-10.1 18-19.4 4.3-11.7 12.1-20.8 24.7-24.9 4.3-1.4 8.3-1.4 11.1 1.9 2.8 3.2 2 7.4 0.4 11.3-0.3 0.7-0.8 1.3-1.6 2.5-7.5 9.3-16.6 14.1-27.8 15.9 0 1.7 0 3.6 0 5.5 0.2 7.9 7.6 9.5 14.2 7.2 9.5-3.2 15.6-10.4 20.5-18.6 3-5.3 5.3-11 7.7-16.6 0.7-1.6 1-3.8 0.6-5.5-1.2-4.9 1.1-8.9 6.7-10.5 0.1 1.5 0.8 3.1 0.2 4.2-2.6 5.2 1.1 7.8 4.5 9.4 8.4 4.1 7.6 14.1 4.9 20.5-1.3 3.2-2.9 6.4-3.8 9.7-1.1 4 0.8 5.9 4.8 5.1 2-0.4 4.3-1.1 5.6-2.5 4.4-4.5 8.9-8.5 11.4-15 4.4-11.4 12.1-20.5 24.5-24.5 4.3-1.4 8.4-1.5 11.2 1.9 2.8 3.2 2 7.4 0.4 11.3-0.3 0.7-0.8 1.3-1.6 2.5-7.5 9.3-16.6 14.1-27.8 15.9 0 1.7 0 3.6 0 5.5 0.3 8.2 7.9 9.4 14.2 7.3 9-3.1 14.9-10 19.9-17.7 0.7-1.2 2-2 3-3q0.6 0.5 1.2 1.1c-0.7 1.5-1.4 3-2.4 5.1-0.7 1-1.1 1.6-1.4 2.1 0 0-0.3 0.3-0.6 0.6-3.1 3.5-5.6 6.8-8.6 9.6-5 4.6-11 7.5-17.9 7.9-9.6 0.4-14.5-5.1-16.5-13.7-3.9 3.3-7.3 7-11.4 9.3-8.2 4.8-17.6 1.3-17.4-8.6 1.8-4.7 3.6-9.4 5.6-14.8 2.4-7.9 2-9-5.9-14.7-0.8 2.1-1.5 4.1-2.1 6.1 0 0-0.1 0-0.4 0.3-0.3 0.8-0.5 1.3-0.6 1.9 0 0 0.3 0.2-0.1 0.2-0.6 0.7-0.7 1.2-0.9 1.8-1.3 2.7-2.5 5.4-4.1 8.7-4.5 5.7-8 11.6-12.8 15.9-6.6 5.8-14.3 9.6-23.7 6.6-6.2-1.9-8.8-6.8-9.8-11.2-2.4 1.9-5.3 3.9-7.8 6.3-10.1 9.7-29 11.6-31.6-8-2.8 2.6-5.5 5.3-8.3 7.8-3.7 3.3-7.7 5.1-13 3.5-5.2-1.6-6.2-5.6-6.7-9.9-4.1 3.8-7.9 7.8-12.2 11-4.2 3.1-10.6 1.6-13.1-2.7-1.2-2.2-1.5-4.8-2.6-8.5-1.8 2.2-3 4.2-4.7 5.7-3.8 3.5-8.5 5.4-13.6 4.1-6.8-1.7-7.9-3.9-8.4-13.1zm131.9-7.8q0 0.8 0 1.6c0.3-0.3 0.6-0.5 1.5-0.8 0.5-0.3 0.9-0.6 1.4-0.9 0 0 0 0 0.7-0.1 6.9-2.8 12.7-7.1 17.9-13.3 0.4-0.7 1.1-1.4 1.1-2.1 0.2-2.1 0.1-4.2 0-6.3-1.8 0.2-3.8 0.1-5.5 0.9-8.9 4-13.3 11.9-16.6 20.6 0 0-0.1 0-0.5 0.4zm84 0q0 0.8 0 1.6c0.3-0.3 0.6-0.5 1.5-0.8 0.5-0.3 0.9-0.6 1.4-0.9 0 0 0 0 0.7-0.1 6.9-2.8 12.7-7.1 17.9-13.3 0.4-0.7 1.1-1.4 1.1-2.1 0.2-2.1 0.1-4.2 0-6.3-1.8 0.2-3.8 0.1-5.5 0.9-8.9 4-13.3 11.9-16.6 20.6 0 0-0.1 0-0.5 0.4z"/>
	<path id="Layer" fill-rule="evenodd" class="s6" d="m645.1 1260.5c-6.6 9.6-15.7 11.5-26 10.2-1-0.1-2 0.2-3 0.3-6.4 0.6-11.2-0.8-14.6-7.4-8.7-17.1-22.1-30.8-34.3-45.2-6.3-7.4-9.7-14.5-7.4-24.4 2.7-11.3 1.7-22.8-0.5-34.2-2.4-11.8-4.1-23.8-6.3-35.7-0.2-1.2-1.4-2.2-2.6-3.3-1.4-6.4 0-12.2 4.2-17-0.4 2.4-1.1 4.4-1.8 6.5 2.9 6.8 5.5 13.9 7.1 21.3 2.1 9.8 3.2 19.8 5.2 29.6 2.2 10.6 3.9 21.1 2.1 32-0.9 5.5-1.6 11.7 2.3 16.7 6.1 7.7 12.1 15.4 18.7 22.6 7.9 8.8 14.7 18.2 18.6 29.3 1.3 3.8 3.3 4.4 6.5 4.2 4.4-0.3 8.9-1.2 13.3-0.9 5.5 0.4 9.5-1.6 12.8-6.2 3.5-5.8 1.8-9.7-4.5-10.1-7.2-0.3-12.1-3.7-16.1-9.2-1.9-2.6-4.1-4.9-6-7.4-8.7-11.3-15.8-23.1-15-38.4 0.7-11.9 0.2-23.9 0.3-36.2 0.2-1 0.3-1.5 0.3-2 1.3-13.9 6-26.4 15.4-37.1 6-6.8 11.7-14 16.6-21.6 4.8-7.4 8.4-15.4 12.9-23.1 1.7-0.2 3-0.4 4.3-0.6-0.2 7.3-0.9 14.8-0.5 22.1 0.9 14 2.9 27.9 3.8 41.9 1.1 15.6 5.6 30.4 8.8 45.5 1.3 6 2.8 12.7-2.3 19-8 15.3-18.2 28.1-31.9 40.2 3.2 0 4.8 0 6.5 0 0.7 0.3 1.5 1 2.1 1 9.7-0.2 14 8.6 11 17.6zm-30.9-44.4c0.2 0.3 0.5 0.7 0.8 1.8-1.7 3.3-1.9 6.4 0.8 9.4 2.7 3.1 5.1 6.3 8.1 10 7.3-8.2 14.8-16.2 21.8-24.7 3.6-4.4 6.3-9.6 10.1-14.8 0.4-2.2 1.4-4.5 0.9-6.5-3-12.5-7.1-24.9-9.5-37.5-2.2-11.1-2.7-22.6-3.9-34.7-0.1-1.1-0.2-2.1-0.2-3.6 0 0-0.2-0.4-0.1-1.3-0.1-1.7-0.2-3.5-0.1-6.1 0-5.7 0-11.3 0-17.3-0.8 0.6-1.1 0.7-1.2 1-5.6 13.4-14.2 24.4-25.1 34.1-2.3 2-7.5 5-3.6 10.9 4.7 12.3 9.8 24.4 14.1 36.9 2.9 8.5 3.6 17.3-0.9 26.2-2 1.8-4.3 3.3-5.8 5.4-2.2 3.2-3.9 6.9-5.8 10.4 0 0 0 0-0.4 0.4zm7.7-19.2c-0.2-5.7 0.5-11.6-0.8-17-2.6-11.1-6.4-22-9.6-33-1-3.3-1.3-6.8-1.9-10.2q-0.6 0-1.1 0c-0.9 2.7-1.8 5.5-3.2 8.9-5.1 20.8-3.4 61.8 2 68.1 2.4-3.9 4.7-8.2 7.7-12 1.5-1.9 4.1-3 6.9-4.8z"/>
	<path id="Layer" fill-rule="evenodd" class="s5" d="m1500.9 949.2c-0.8 2-1.7 4-2.5 6.1-1.5 3.9-3.8 7.7-4.3 11.8-0.5 4.4 2.7 6.3 6.1 3.7 9-6.7 17.8-13.6 17.9-26.5 0-4 2.9-5.6 6.8-5.3 3.6 0.3 3.7 2.5 3.2 5.4-0.6 2.7-0.8 5.4-1.1 7.7 4.2-3.9 8.5-8.2 13-12.1 4.6-4 10.1-4.3 15.4-1.7 3.5 1.6 4.8 10.4 2.9 15.9-1.1 3.5-2.8 6.9-3.6 10.5-0.4 2.3 0.3 4.8 0.6 7.8 8.8-2.8 13.2-8.3 15.7-15.5 4.5-13.3 12.2-23.3 25.9-28.1 4.2-1.5 8.3-1.4 11.1 1.9 2.8 3.2 2 7.4 0.4 11.3-0.3 0.7-0.8 1.3-1.6 2.5-7.5 9.3-16.6 14.1-27.8 15.9 0 1.6 0 3.6 0 5.5 0.3 8.2 7.9 9.4 14.2 7.3 9-3.1 14.9-10 19.9-17.7 0.7-1.2 2-2 3-3q0.6 0.5 1.2 1.1c-0.7 1.5-1.4 3-2.4 5.1-0.7 1-1.1 1.6-1.4 2.1 0 0-0.3 0.3-0.6 0.6-3.1 3.5-5.5 7-8.6 9.6-7.1 5.8-14.9 10-24.5 6.9-5.6-1.9-8.1-6.4-10-12.3-4.2 6.5-9.6 11.4-16.4 10.6-4.6-0.5-8.1-5.4-7.4-11.3 0.4-1.3 0.8-2.6 1.5-4.6 0.8-2.8 1.9-5.1 1.9-7.3-0.1-2.6-0.4-6.4-2.1-7.5-1.7-1.2-5.8-0.7-7.7 0.7-4.2 3.2-8.1 7-11.3 11.1-4.3 5.5-7.8 11.5-11.6 17.2-4.3-0.2-7.4-1.2-5.9-5.7-4.8 2.6-9.4 6.6-14.6 7.7-6.9 1.5-10-2.1-11.4-10-3.9 3.5-7.7 7.5-12 10.8-3.9 3-9.8 2.1-12.5-1.7-1.6-2.3-2.1-5.5-2.9-7.5-4.7 3.5-9.2 8.1-14.7 10.4-11.3 4.7-22.7-0.5-22.2-15.2 0-2.1 0.3-4.3 0.4-6.4 2.2-13 14.9-26.4 26.6-26 5.6 0.1 9.6 4.2 9 9.9-0.2 2.3-1.2 4.6-2.5 7.1-2.9 0.5-5 0.8-7 1.2 0.3-1.2 0.6-2.3 1.3-4 2.6-3.7 3.5-7 0.3-10.1-9.7 3.6-14.3 8.6-18.1 19.4 0 0 0 0.1-0.2 0.4-0.3 0.9-0.4 1.5-0.4 2.1-0.3 4.1-1.5 8.4-0.6 12.2 1.4 5.6 5.8 7 13.9 4 7.4-2.6 12.9-7.5 16.2-15 4.6-10.5 11.5-19.2 21.8-25 5.3-2.9 10.8-3.8 16.6-1.9 5.1 1.7 6.7 6.7 3.9 13.3-1.9 0.3-3.1 0.3-4.6 0.3 1.1-4.3 0.8-7.9-3.9-8.8-4.7-0.9-9.6-0.1-12.5 3.9-4.5 6.3-8.2 13.1-12.2 19.7 0 0 0 0-0.2 0.3-0.3 0.8-0.3 1.4-0.5 2.4-0.3 2.4-0.8 4.3-0.8 6.2 0 4.6 1.9 5.7 5.7 3.4 3.1-1.9 6.1-4 8.3-6.7 4.9-6 9.4-12.3 14.3-18.4 2.1 0.8 3.8 1.6 5.6 2.3zm79.3 6q0 0.8 0 1.6c0.3-0.3 0.6-0.5 1.5-0.8 0.5-0.3 0.9-0.6 1.4-0.9 0 0 0 0 0.7-0.1 6.9-2.8 12.7-7.1 17.9-13.3 0.4-0.7 1.1-1.4 1.1-2.1 0.2-2.1 0.1-4.2 0-6.3-1.8 0.2-3.8 0.1-5.5 0.9-8.9 4-13.3 11.9-16.6 20.6 0 0-0.1 0-0.5 0.4z"/>
	<path id="Layer" class="s4" d="m616 901.8c1.1-7.2 4.9-11.7 12.2-14.4 8.6-3.3 16.6-8.3 25-12.4 3.7-1.8 7.5-3.7 11.4-4.9 7.7-2.4 14.8-1.6 21.9 2.9 7.9 5 15.8 11.2 26 9.9 5.7-0.6 11.4-2.1 16.6-4.3 5.2-2.1 9.8-5.1 15.4-6.7 7.1-1.9 13.5-6.3 20.1-9.8 15.5-8.3 31-16.7 46.3-25.3 3.8-2.2 7.3-5.3 10.3-8.5 18-18.7 35.8-37.7 53.7-56.5 17.4-18.3 35-36.6 52.4-54.9 2.1-2.1 4.1-4.4 6.4-6.8 0.8 4.6-0.8 8.2-4.3 11.7-11.5 11.3-22.4 23.1-33.5 34.8-15 15.7-30.1 31.4-45.1 47.1-10.7 11.2-21.1 22.6-31.9 33.7-3.3 3.4-7.2 6.4-11.3 8.6-20.2 10.9-40.5 21.5-60.9 32-2.1 1.1-4.8 1.1-7 2-3.9 1.7-7.8 3.4-11.5 5.5-10.2 6-20.6 6.4-31.3 1.4-3.6-1.7-7.2-3.4-10.4-5.8-8.3-6.1-17.2-7-26.3-2.9-6.9 3.1-13.3 7.3-19.9 11.3 0.1 0.3 0.1 0.4-0.2 0.1-1.9 0.3-3.5 0.8-5.3 1.4-1.1 0.7-1.8 1.4-2.6 2-6.1 1.4-12 3.2-16.2 8.8z"/>
	<path id="Layer" class="s7" d="m792.2 975c5.7-19.5 11.1-39 17.1-58.3 2.2-7.1 3.4-14.8 10.1-20.5 1.5-0.7 2.6-1 4-1.3 2.6 0.1 3.8 0.6 2.6 3.1-1 2.2-2.1 4.4-2.9 6.6-9.3 24.6-16.8 49.6-23.1 76.8 7-1.8 13.5-2.5 19-5.1 16.7-7.8 25.8-22.4 32.5-39.2 0.4-1.2 0.6-2.2 0.8-3.1 0.1-0.1 0.1-0.2 0.3-0.6 2.5-10.1 3.7-19.9 0.5-29.8-2.4-7.3-6.9-12.5-15.2-14-7.8-2-15.2-2.3-22.3 2.4-6.2 3.2-11.9 6.5-12.8 14-0.1 3-0.1 6-0.4 9 0 0.7-1 1.3-2.1 1.6-4.2-1.9-5.6-4.8-5.5-8.6 0.1-7.1 5.1-11.6 10-15 12.2-8.6 25.8-11.7 40.4-7.3 12.8 3.8 17.1 13.6 18.8 24.2 2.1 13.5-0.6 26.2-7.3 38.6-5.8 7.2-10.5 14.6-16.7 20.5-10.4 9.8-23.1 15.4-37.6 16-4.6 0.1-10.2-5.6-10.2-10z"/>
	<path id="Layer" class="s3" d="m1278.9 956c1.8-5.2 3.2-10.5 5.4-15.6 2.4-5.6 4.5-5.8 9.7-1.8-2.1 4.4-4.7 8.6-6 13.2-1.3 4.5-1.6 9.3-1.8 14.1-0.1 1.6 1.2 4.2 2.5 4.7 1.2 0.6 4-0.6 4.9-1.9 5.2-7.9 10.2-16 15.1-24.1 1.1-1.7 1.8-3.7 2.7-5.5 7.8 1.5 7.9 2.6 4.6 9.5-2.7 5.7-4.4 12-5.9 18.2-1 4.4 2.4 6.5 6.8 4.8 8.5-3.2 17.9-17.2 18.1-26.7 0.1-4 2.2-5.9 6.2-5.9 4.4-0.1 4.4 2.6 3.8 5.7-0.4 2.6-0.6 5.2-1 7.8q-0.6-0.8-1.3-1.7c4-3 8.2-5.6 11.8-9 4.3-3.9 9.1-5.6 14.8-4.8 4.6 0.6 6.4 4.3 6.5 7.8 0.1 4.6-1.1 9.3-2.3 13.7-1.3 4.5-4.2 8.7-0.1 13.5 7-1.4 10.3-6.9 13.6-12.3 1-1.7 1.9-3.4 3.1-4.9 0.5-0.8 1.7-1.1 2.6-1.6 0.1 1.1 0.4 2.2 0.2 3.2-0.3 1-1.1 1.9-2.1 3.4-0.7 1.1-1 1.7-1.3 2.4 0 0-0.2 0.2-0.4 0.5-2.9 3.5-5.3 7-8.3 9.9-4.3 4.2-10.5 4.9-14.3 1.1-2-2-2.4-5.7-3.5-8.7 0.4-1.3 0.8-2.6 1.5-4.6 0.8-2.8 1.9-5.1 1.9-7.3-0.1-2.6-0.4-6.4-2.1-7.5-1.7-1.2-5.8-0.7-7.7 0.7-4.1 3-7.9 6.7-11 10.7-4.4 5.6-8 11.8-12 17.7-3.9-0.4-7.4-1.1-5.6-6.4-3.8 2.7-7 5.5-10.7 7.5-8 4.1-14.9-0.4-14.6-9.2 0-1 0-2 0-2.8-3.4 3.8-6.2 7.7-9.8 10.9-4.6 4.1-10.3 3-12.6-2.7-1.6-4-1.5-8.6-2.1-13 0 0 0.2-0.2 0.3-0.6 0.3-1.1 0.3-1.8 0.4-2.4z"/>
	<path id="Layer" class="s5" d="m632.1 893.4c0.9-1 1.6-1.7 3-2.4 2.2-0.4 3.8-0.8 5.3-1.1 0 0 0-0.1 0 0q0.8-0.1 1.5-0.1c-0.3 1-0.4 2.9-1.1 3.1-4.3 1.5-5.2 4.6-6 8.7-1.2 6.6-2.9 13.2-5.8 19.1-3.7 7.8-0.7 12.8 3.8 18.9 9.3 12.5 22.6 16.9 36.7 20.4 1.2 0.3 2.4 0.7 4.5 1 1.2-2.3 2.4-4.8 2-7.1-2.8-14-6-27.9-9.1-41.9 0.4-3-0.6-6.6 2.6-8 3.9 14.3 7.3 28.2 11.7 41.9 1.9 5.7 6.3 10.7 4.8 17.3-0.3 1.2-0.7 2.4-1.4 4.2-2.4 4.4-5.5 6.9-9.9 6.5-16.6-1.9-31.6-7.8-43-20.3-5.8-6.4-9.8-14.4-14.6-21.6 1.1-3.3 2-6.6 3.3-9.9 3.8-9.4 7.7-18.9 11.7-28.7z"/>
	<path id="Layer" class="s8" d="m660.9 1043.3c-2-0.8-3.9-1.5-6-2.5 0.9-4.2 1.1-8.8 3.2-12.1 6.2-9.3 13.1-18.1 19.8-27.1 7.3-9.9 12.1-21.1 16.1-32.7 4.6-13.2 13-22.8 25.5-29.2 8.6-4.3 17.1-9.1 25.3-14.1 9.8-6.1 14.1-16.2 18.1-26.3 1.6-4.2 2-8.8 3.2-13.1 0.2-0.9 1.2-1.6 2.7-3.4 0.8 12.4-2.3 22.7-6.4 33.5-4.9 10-11.4 17.4-21 22.1-7 3.4-14 7.1-20.4 11.5-5.3 3.5-10.8 7.6-14.3 12.8-5.9 8.8-10.3 18.6-15.3 27.9-3.3 6-6.3 12.1-9.9 17.8-4.1 6.7-9 12.8-13.1 19.5-2.9 4.9-5.1 10.2-7.5 15.4z"/>
	<path id="Layer" fill-rule="evenodd" class="s3" d="m1204.1 1112c1.8-4.7 3.6-9.4 5.6-14.8 2.4-7.9 2-9-5.9-14.7-0.8 2.1-1.4 4.1-2.1 6.1 0 0-0.1 0-0.4 0.3-0.3 0.8-0.5 1.3-0.6 1.9 0 0 0.3 0.2-0.1 0.2-0.6 0.7-0.7 1.2-0.9 1.8-1.3 2.7-2.5 5.4-4.1 8.7-5.7 6.5-10.3 13.3-16.4 18.4-6.2 5.1-14.1 7.4-22.1 3.4-6.6-3.3-8.2-9.4-7.9-16.3 0 0 0.2-0.2 0.3-0.6 0-0.8-0.2-1.2-0.3-1.7 3.2-11.2 9.7-20.1 19.3-26.5 3.2-2.1 7.3-3.6 11.1-4 6.9-0.9 10.2 3.6 8.4 10.6-0.4 1.8-1.2 3.6-2.2 5.8-7.5 9.3-16.6 14.1-27.8 15.9 0 1.7 0 3.6 0 5.5 0.2 8 7.7 9.4 14.2 7.2 9.5-3.1 15.6-10.3 20.4-18.6 3.1-5.2 5.4-10.9 7.7-16.5 0.8-1.9 0.8-4.4 0.4-6.5-0.8-4.3 2.2-8.7 7.3-9.5 0 1.6 0.5 3.3-0.1 4.5-2.4 5 1.5 6.9 4.4 9 7.4 5.6 9 12.3 4.8 20.8-1.4 2.9-2.7 6-3.6 9.2-1.1 4.2 1 6.4 5.1 5.3 2.4-0.7 4.9-2 6.6-3.8 4-4.1 7.5-8.6 11.2-12.9 0.5-0.6 1.2-0.9 2.9-0.8-0.7 1.9-1.4 3.9-2.5 6.3-5.3 5.2-9.5 10.8-14.9 14.6-8 5.5-18.1 1.8-17.8-8.3zm-43.4-10c0.5-0.3 1-0.6 1.4-0.9 0 0 0 0 0.7-0.1 6.9-2.8 12.7-7.1 17.9-13.3 0.4-0.7 1.1-1.4 1.1-2.1 0.2-2.1 0.1-4.2 0.1-6.3-1.9 0.3-3.9 0.1-5.5 0.9-9.1 3.9-13.2 11.9-17.2 20.9q0 0.8 0 1.6c0.3-0.2 0.6-0.4 1.5-0.7z"/>
	<path id="Layer" class="s9" d="m1671.1 984.8c0.4-3.8 2.5-6.4 6-8.7 5.6-3.8 10.6-8.5 15.5-12.6 0.7 2.4 1.2 5.8 2.7 8.8 2.7 5.3 7.8 6.2 12.4 2.5 2-1.5 3.7-3.3 5.3-5.2 1.6-1.9 2.8-4 4.2-6.1 0.3 0.4 0.6 0.6 0.6 0.9-0.3 4.3-0.7 8.8 4 11.4 4.7 2.6 9.3 1.4 13.3-1.5 3.9-3 7.3-6.6 11.2-10.2-0.1 6.3 2.2 11.6 8.8 12.4 8.5 1 14.3-4.3 19.6-11.3 0.2 1.3 0.3 1.9 0.4 2.6 1.5 8.2 8.9 12 15.5 6.8 6.3-4.9 11.2-11.6 17.1-17.6 0.3 0 0.3 0 0.3 0-0.3 2.8-1.2 5.7-0.8 8.3 0.7 3.4 1.7 7.3 4 9.5 3 3 7.6 2.2 11.1-0.1 3.2-2.1 6-4.7 8.9-7 0.9 2.5 1.5 5.6 3.1 8 2.6 3.8 8.6 4.7 12.4 1.8 4.3-3.3 8.1-7.3 12-10.9 2.3 11.2 10.9 14.1 20 6.2 3.3-2.9 6.1-6.5 9.4-10-0.9 2.5-1.4 5.7-3.1 8-4.4 5.9-9.3 11.5-17.3 12.1-7.4 0.6-10-1.8-11-9.5-3.2 3-6.1 6.1-9.4 8.6-1.9 1.4-4.3 2.5-6.7 2.9-6.2 0.9-8.1-0.8-11.5-8.7-4.9 2-9.7 4.6-14.7 6-5.7 1.5-9.2-1.8-9.4-7.7-0.1-3.2 0-6.5 0-9.2-3.4 3.8-7 8.6-11.5 12.4-3 2.5-7.1 4.5-10.9 5.1-6 0.8-8.9-2.6-9.7-8.9-4.3 2.5-8.7 6-13.6 7.7-8.9 3-14.7-0.5-15.6-9.7-4 3-7.6 6.7-11.9 9.1-9.8 5.3-16 1.8-17.1-9.2-4.8 5.2-8 13.3-17.1 10.8-6-1.7-6.7-7.3-6.7-12.2-6.4 4.7-12.9 9.5-19.8 14.4z"/>
	<path id="Layer" class="s6" d="m1283 1123.2q-4.2-1.1-8.3-2.2 0-0.9 0-1.8c13 0 21-7.3 26.9-18.6 0.7-4.1 1.5-7.5 1.3-10.9-0.4-5.4-4.4-7.8-9.5-5.8-9.6 3.8-14.9 11.4-17.7 21.1 0 0-0.2 0.2-0.3 0.5-0.2 0.8-0.2 1.1-0.3 1.5-4.3 14.7-8.6 29.4-13.4 44.6-4.6 3.6-4.8-1.1-6.6-2.7 6.7-20.1 13.3-40.2 15.4-61.4 0.5-4.8 1-9.6 1.5-14.3 7.9-0.4 10.5 2.6 8.7 9.5-0.4 1.9-0.6 3.8-1 6.1 3.4-3.1 6.4-5.9 9.5-8.5 5.2-4.4 11.1-4.5 16.8-1.6 4.3 2.1 7.7 11.2 5.1 16.9-1.2 2.7-2 5.6-3.3 9-0.7 1.2-1 1.9-1.3 2.6 0 0-0.2 0.2-0.5 0.5-2.8 3.1-4.9 6.6-8 8.5-4.7 2.9-10 4.7-15 7z"/>
	<path id="Layer" class="s6" d="m1111.7 1105c0 0-0.2 0.2-0.3 0.5-0.2 0.8-0.2 1.1-0.3 1.5-4.3 14.7-8.6 29.4-13.4 44.6-4.6 3.6-4.8-1.1-6.6-2.7 6.7-20.1 13.3-40.2 15.4-61.4 0.5-4.8 1-9.6 1.5-14.3 7.9-0.4 10.5 2.6 8.7 9.5-0.4 1.9-0.6 3.8-1 6.1 3.4-3.1 6.4-5.9 9.5-8.5 5.2-4.4 11.1-4.5 16.8-1.6 4.3 2.1 7.7 11.2 5.1 16.9-1.2 2.7-2 5.7-3.3 9-0.7 1.2-1 1.9-1.3 2.6 0 0-0.2 0.2-0.5 0.5-2.8 3.1-4.9 6.6-8 8.5-4.7 2.9-10 4.7-15 7q-4.2-1.1-8.3-2.2 0-0.9 0-1.8c13 0 21-7.3 26.9-18.6 0.7-4.1 1.5-7.5 1.3-10.9-0.4-5.4-4.4-7.8-9.5-5.8-9.6 3.8-14.9 11.4-17.7 21.1z"/>
	<path id="Layer" class="s10" d="m1313.9 1109.2c0.9 9 2 11.2 8.8 12.9 5.1 1.3 9.8-0.6 13.6-4.1 1.7-1.5 2.9-3.5 4.7-5.7 1.1 3.7 1.4 6.3 2.6 8.5 2.5 4.3 8.9 5.8 13.1 2.7 4.3-3.2 8.1-7.2 12.2-11 0.5 4.3 1.5 8.3 6.7 9.9 5.3 1.6 9.3-0.2 13-3.5 2.8-2.5 5.5-5.2 8.3-7.8 2.6 19.6 21.5 17.7 31.6 8 2.5-2.4 5.4-4.4 7.8-6.3 1 4.4 3.6 9.3 9.8 11.2 9.4 3 17.1-0.8 23.7-6.6 4.8-4.3 8.3-10.2 12.7-15.6-1.3 3.7-2.4 8-4.7 11.4-6.2 9.3-14.7 15.6-25.9 17.7-8.2 1.5-15-3-17.9-11.2-5.1 3.5-10 8.1-15.8 10.5-12.7 5.1-21.6 0.8-23.5-11.2-4.4 3-8.5 6.7-13.3 9.1-7.4 3.6-13.5-0.1-14.7-8.7-3.3 3-6.1 6.1-9.4 8.6-1.9 1.4-4.4 2.5-6.7 2.9-6.2 0.9-8-0.7-11.6-9-4.1 2-8 4.7-12.3 5.9-11.8 3.3-16.1-4.5-14.4-14.2 0.3-1.4 0.8-2.8 1.6-4.4z"/>
	<path id="Layer" class="s11" d="m150 1127.2c0.3-0.4 0.5-0.3 0.6-0.2 1.9 2.8 2.4 7.3 7.3 7 4.9-0.3 8.4-3.1 10.4-7.4 3.5-7.5 7-15 14.7-19 8.6-4.4 17.3-9.4 26.5-12.4 27.4-8.9 51-24.1 69.9-45.3 10.3-11.5 17.1-26 25.4-39.2 4.9-7.9 9.7-15.8 14.5-23.7 0.9-1.5 1.6-2.9 2.4-4.3q1 0.6 1.9 1.3c-0.3 2.2-0.5 4.3-1 6.8-3.7 3.8-7.9 6.9-10.4 11.1-8.9 14.8-16.4 30.7-26.2 45-6.7 9.7-16.1 18-25 26-18.4 16.2-40.7 25-63.4 33.3-13.3 4.8-25.2 12-29.8 27.1-1.5 4.6-5.9 6.9-10.8 7.6-3.7 0.6-7.5-2.4-7.9-6.5-0.2-2.2 0.5-4.6 0.9-7.2z"/>
	<path id="Layer" class="s10" d="m863.9 963.2c0.9 9 2 11.1 8.8 13 4.9 1.3 9.5-0.6 13.3-3.8 1.9-1.6 3.4-3.7 5.3-5.7 1.3 2.6 2.1 5 3.5 6.9 5.5 7.8 13.7 8 22.1 2.7 6.1-3.8 11.6-8.6 17-12.7 2.1 4 3.2 8.5 6.1 11.1 2.7 2.5 7.2 3.9 11 4.1 7.1 0.4 13-3.3 18.4-7.7 2.5-2.1 5.2-4.1 6.8-5.4 1.9 2.2 4 6.3 7.3 7.9 4.7 2.2 9.3-0.6 12.8-4.3 2.8-2.9 5.6-5.9 9.3-9.8-1.2 4.1-2.1 7.1-3.4 10.1-0.5-0.2-0.7-0.4-0.8-0.6q0.1 1.2 0.2 2.4 0 0 0.1 0c-1.9 1.1-3.8 2.1-5.7 3.1-3.3 1.8-6.3 4.4-9.8 5.4-6 1.9-8.3 0-12.3-8.4-5.8 5.8-11.9 10.8-20.2 12.6-11.8 2.6-18.8-1.6-21.2-13.4-5.6 3.3-11.3 5.5-16 10.7-6.6 7.2-22.4 6.5-26.8-6.2-4.3 2.2-8.4 5.2-13 6.5-11.6 3.3-15.9-4-14.5-13.6 0.2-1.6 0.9-3.1 1.7-4.9z"/>
	<path id="Layer" class="s10" d="m326.9 1168.3c4.2 4.9 8.9 9.9 12 15.7 7.8 14.4 14.9 29.2 22.3 43.9 4.3 8.5 8.5 17.2 13 25.7 4.9 9.3 13.5 13.6 23.2 13.9 9.6 0.3 19.2-1.6 29.2-2.4 2.4 4.2 1.1 6.5-3.5 7.4-10.2 1.8-20.4 3.8-30.9 1.6-10-2.2-17.6-7.4-22-16.7-7.9-16.6-15.2-33.5-23.6-49.9-5.1-9.9-11.8-19-17.9-28.3-2.2-3.4-3.9-6.6-1.8-10.9z"/>
	<path id="Layer" class="s12" d="m1420.6 957.2c0.2 1.9-0.1 4.1-0.1 6.2-0.5 14.7 10.9 19.9 22.2 15.2 5.5-2.3 10-6.9 14.7-10.4 0.8 2 1.3 5.2 2.9 7.5 2.7 3.8 8.6 4.7 12.5 1.7 4.3-3.3 8.1-7.3 12-10.8 1.4 7.9 4.5 11.5 11.4 10 5.2-1.1 9.8-5.1 14.6-7.7-1.5 4.5 1.6 5.5 5.9 5.7 3.8-5.7 7.3-11.7 11.6-17.2 3.2-4.1 7.1-7.9 11.3-11.1 1.9-1.4 6-1.9 7.7-0.7 1.7 1.1 2 4.9 2.1 7.5 0 2.2-1.1 4.5-1.9 7-0.3 0-0.4-0.4-0.5-0.7-0.2-3 1.1-7.4-2.9-7.9-3-0.4-7.2 1.2-9.2 3.4-6.1 7.1-11.3 15-17.1 22.3-1.4 1.7-3.7 3.3-5.7 3.5-1.2 0.1-2.7-2.5-3.8-4.4 0.1-0.9 0.1-1.3 0.1-1.7q-0.2 0.7-0.5 1.3c-3.3 2.1-6.5 4.4-10.1 6.1-7.7 3.6-13.8 0.2-15.1-8.1-4.1 3.3-8 7.1-12.5 9.8-5.3 3.2-11.2 1.4-13.4-3.2-0.7-1.6-1.1-3.3-1.7-5.2-3.5 2.5-6.7 4.8-9.9 7.1-5 3.7-10.8 4.2-16.6 3.5-6-0.8-10.6-6.2-10.4-12.8 0.1-5.2 1.4-10.4 2.4-15.9z"/>
	<path id="Layer" class="s13" d="m268.6 1117.2c-0.5 9.1-1.3 18.3-2 27.6-0.9 11.9-1.5 23.8-2.6 35.7-0.4 4.7-1.5 8.8-5.3 12.7-3 3.1-3.1 9.1-4.2 13.8-0.8 3.4-0.2 7.3-1.7 10.3-5.2 11.2-2.9 25.5 5.9 31.9 5.2 3.9 9.7 3.6 15.1 0 9.1-6.1 14.4-15 19-24.9 0.2 0.6 0.5 1.6 0.3 2.4-3.6 13.2-11.5 23.4-22.7 30.8-2.4 1.5-7.2 1.8-9.8 0.5-7.7-3.9-13.4-9.5-13.8-19.4-0.2-8.4-0.4-16.4 4.6-23.6 0.7-1 0.7-2.7 0.4-3.9-1.9-8.1 0.1-15.1 5.1-21.7 2-2.6 3.6-6.1 3.9-9.4 1.1-10.3 1.1-20.8 2.3-31.1 1.3-10.5 3.5-21 5.5-31.7z"/>
	<path id="Layer" class="s6" d="m1585.1 1076.2c-5.5 10.1-10.9 19.8-16.2 29.5q-0.7-0.3-1.5-0.5c1.9-6.6 3.3-13.4 5.7-19.8 6.6-17.1 12.2-34.6 21.9-50.4 0.8-1.3 1.7-2.6 2.9-3.3 1.6-0.9 3.6-1.1 5.3-1.7 0.3 1.7 1.3 3.7 0.7 5-4 9.7-8.3 19.3-12.6 28.9-1.8 4-4 8-6.2 12.3z"/>
	<path id="Layer" class="s11" d="m1277.8 959.2c1 4.2 0.9 8.8 2.5 12.8 2.3 5.7 8 6.8 12.6 2.7 3.6-3.2 6.4-7.1 9.8-10.9 0 0.8 0 1.8 0 2.8-0.3 8.8 6.6 13.3 14.6 9.2 3.7-2 6.9-4.8 10.7-7.5-1.8 5.3 1.7 6 5.6 6.4 4-5.9 7.6-12.1 12-17.7 3.1-4 6.9-7.7 11-10.7 1.9-1.4 6-1.9 7.7-0.7 1.7 1.1 2 4.9 2.1 7.5 0 2.2-1.1 4.5-1.9 7-0.3 0-0.4-0.4-0.5-0.7q-1.2-4-2.4-8c-3.3 1.1-7.7 1.3-9.7 3.6-6 6.7-11.5 14-16.6 21.6-4.1 6-7.3 6.3-10.6 0.9-5.4 1.9-10.4 4.5-15.7 5.3-6.4 0.8-8.6-2.4-9.2-10.9-2.4 2.7-4.7 5.3-7.1 7.9-3 3.3-7.2 4.7-10.7 2.3-2.7-1.9-5.2-5.7-5.7-9-0.7-4.4 0.7-9.1 1.5-13.9z"/>
	<path id="Layer" class="s13" d="m661 1043.5c2.3-5.4 4.5-10.7 7.4-15.6 4.1-6.7 9-12.8 13.1-19.5 3.6-5.7 6.6-11.8 9.9-17.8 5-9.3 9.4-19.1 15.3-27.9 3.5-5.2 9-9.3 14.3-12.8 6.4-4.4 13.4-8.1 20.4-11.5 9.6-4.7 16.1-12.1 21-21.7-0.6 9.8-6 17.7-13.8 23.2-8.3 5.9-17.4 11-26.6 15.4-10.6 5-17 13.5-22.2 23.2-5 9.7-9.1 19.9-14.4 29.4-3.9 7-9.2 13.2-13.7 20-3.4 5.2-6.5 10.7-10.1 16.1-0.3 0.1-0.6-0.3-0.6-0.5z"/>
	<path id="Layer" class="s4" d="m616.9 932.3c5 6.9 9 14.9 14.8 21.3 11.4 12.5 26.4 18.4 43 20.3 4.4 0.4 7.5-2.1 9.8-6.1-0.4 9.9-5.7 13.7-15.8 12.4-12.9-1.6-24.7-6.7-34-14.9-7.5-6.7-12.6-16.3-18.2-24.9-1.2-1.8 0.1-5.1 0.4-8.1z"/>
	<path id="Layer" class="s10" d="m1056.7 965.2c-0.4 5.7 3.1 10.5 7.7 11.1 5.6 0.8 11.1-2.7 15-8.9 0.5 2.4 0.6 4 1.1 5.4 1.9 5.4 9 8.3 13.8 4.9 4.5-3.2 8.4-7.4 12.4-11 2.4 11.1 10.8 13.9 19.9 6.2 2.8-2.4 5.3-5 8.9-8.4-1.2 3.3-2 5.6-3.2 8.3-0.3 0.4-0.6 0.5-0.8 0.6-0.3 0.6-0.4 1.1-0.5 1.6q0 0 0 0c-3.7 2.3-7.2 5.1-11.2 7-7.7 3.7-13.9 0.2-15.1-8.4-3.5 3.1-6.5 6.6-10.2 9-8.1 5.3-14.3 2.9-17.3-6.5-2.4 1.4-4.7 3-7.1 4.3-4.3 2.1-8.7 2.5-12.7-0.6-4-3.1-2.3-7.5-1.9-11.5 0-1 0.6-1.9 1.2-3.1z"/>
	<path id="Layer" class="s10" d="m1490.8 1112.2c0.1 9.7 9.5 13.2 17.7 8.4 4.1-2.3 7.5-6 11.4-9.3 2 8.6 6.9 14.1 16.5 13.7 6.9-0.4 12.9-3.3 17.9-7.9 3-2.8 5.5-6.1 8.6-9.4 0.2 1.2 0.2 2.4 0 4.4-1.1 1.8-2.1 2.9-3.1 3.9-5.6 6.7-12.1 12-21 14-11.1 2.6-17.2-0.6-20.9-10.6-5 2.8-10 6-15.2 8.5-4.1 2-8.4 1-11.5-1.9-3.4-3.3-2.6-7.6-1.4-11.7 0.2-0.6 0.5-1.2 1-2.1z"/>
	<path id="Layer" class="s10" d="m1545.7 965.2c-0.4 5.7 3.1 10.6 7.7 11.1 6.8 0.8 12.2-4.1 16.4-10.6 1.9 5.9 4.4 10.4 10 12.3 9.6 3.1 17.4-1.1 24.5-6.9 3.1-2.6 5.5-6.1 8.6-9.4 1.4 5.8-3.5 9-6.6 12.1-4 3.9-9.2 7.2-14.5 9.2-12.1 4.6-18.2 1.9-24.3-9.3-6.6 7.6-14.7 10.3-20.3 6.8-3.8-2.3-4.4-7.4-1.5-15.3z"/>
	<path id="Layer" class="s4" d="m548.8 958.5c7.1-3.9 13.8-8.5 22.3-7.8 2 0.2 4.5-0.6 6.1-1.8 13-9.4 28.3-16.5 33.9-33.8-1.1 4.2-2.1 8.8-3.9 13-4.6 10.8-14.9 15.8-23.5 22.7-6.2 4.8-12.5 7.3-20.4 7.5-3.9 0.1-7.8 3-12.1 4.7-1.1-1.4-1.7-2.8-2.4-4.5z"/>
	<path id="Layer" class="s9" d="m791.9 975.2c0.3 4.2 5.9 9.9 10.5 9.8 14.5-0.6 27.2-6.2 37.6-16 6.2-5.9 10.9-13.3 16.6-20.1-1.7 4.1-3.2 8.7-5.7 12.6-9.6 14.6-22.7 24.4-39.9 27.8-4.7 1-10 0.7-14.7-0.3-6.6-1.3-7.5-3.5-5.9-9.8 0.4-1.3 0.8-2.6 1.5-4z"/>
	<path id="Layer" class="s10" d="m1190.7 963.2c0.3 1.4-0.2 3.3 0.3 4.7 1.2 2.8 2.4 6.9 4.7 7.8 3 1.2 7.4 0.6 10.5-0.7 3.6-1.6 6.6-4.8 9-6.7 1.3 1.6 3.2 5.4 6.3 7.1 5.4 3.1 11 0.7 15.4-3 3.1-2.7 5.5-6.2 8.5-9.5 0.1 6.4-7 15.4-14.6 18-2.8 0.9-5.8 1.8-8.6 1.5-6-0.6-6.7-1.6-9.6-8.6-4.3 4.1-7.8 9.1-14.9 9.3-7.7 0.3-9.8-6-9.3-11.5 0.2-2.8 1.3-5.4 2.3-8.4z"/>
	<path id="Layer" class="s12" d="m823 894.8c-1 0.4-2.1 0.7-3.5 1.1-7.3 0.5-11.4 5.7-16.4 10 0.6-7.4 6.3-10.7 12.9-13.9 7.9-0.7 15-1.4 22.1-2 8.1 1.1 12.6 6.3 15 13.6 3.2 9.9 2 19.7-0.6 29.3-0.4-5.7-0.1-11.3-0.6-16.8-1.2-15-12.4-23.9-28.9-21.3z"/>
	<path id="Layer" class="s13" d="m1004.1 984.8c0.4-3.8 2.4-6.5 6-8.7 4.5-2.7 8.5-6.4 12.7-9.6-0.3 1.8-1.5 4.3-0.8 5.8 0.7 1.5 3.5 1.9 5.3 2.8 4.3-6.4 8-12.6 12.4-18.2 3.1-4 6.9-7.6 10.9-10.6 1.9-1.4 6.1-1.9 7.7-0.7 1.7 1.1 2 4.9 2.1 7.5 0 2.2-1.1 4.5-1.9 7-0.3 0-0.4-0.4-0.5-0.7q-1.2-4-2.4-8c-3.3 1.1-7.7 1.3-9.7 3.5-6 6.8-11.2 14.3-16.7 21.6-1.2 1.5-2.2 3.6-3.8 4.3-3.8 1.6-6.5-1.3-5.8-6.6-5.3 3.7-10.2 7.1-15.5 10.6z"/>
	<path id="Layer" class="s10" d="m1148.9 1107.2c0 6.7 1.6 12.8 8.2 16.1 8 4 15.9 1.7 22.1-3.4 6.1-5.1 10.7-11.9 16.3-18.1-1.3 3.7-2.4 7.9-4.7 11.4-6.2 9.3-14.6 15.7-25.9 17.6-5.7 1-11.1-0.5-14.8-5.1-4.5-5.5-4-12-1.2-18.5z"/>
	<path id="Layer" class="s11" d="m648 1073.1c-1.7 0.3-3 0.5-5 0.4-8.2-1-15.8-2.5-23.3-2.3-11.4 0.3-22.7 1.7-33.2 6.9-3 1.6-6.4 2.6-9.6 3.9 14.4-10.9 30.9-15 48.6-14.1 7.4 0.4 14.6 2 22 2.9 0.9 0.1 1.9-0.5 3.2-0.7-0.6 1-1.5 2-2.7 3z"/>
	<path id="Layer" class="s13" d="m1643.6 957.2c0.3 2.4 0.1 5.1 0.4 7.7 0.9 8.2 8.2 12.1 15 7.5 4.7-3.2 8.6-7.6 13.3-12-1 3.3-1.8 6.3-3 9.2-0.6-0.2-0.8-0.4-0.9-0.6q0.1 1.2 0.2 2.4 0 0 0.1 0c-2.2 1.3-4.2 2.7-6.4 3.7-4.1 1.9-8.2 4.9-12.3 5-6.2 0.3-10.3-7.5-8.8-15 0.5-2.6 1.4-5.1 2.4-7.9z"/>
	<path id="Layer" class="s9" d="m1203.8 1112.2c0 9.9 10.1 13.6 18.1 8.1 5.4-3.8 9.6-9.4 14.7-14.3-1 9.5-14.9 22.5-24.3 22.9-9 0.4-12.5-6.2-8.5-16.7z"/>
	<path id="Layer" class="s14" d="m1161.9 972.3c2 1.1 3.9 2.6 5.6 3.9 5.6-8.6 10.6-16.4 15.8-24 1.4-2.1 3.6-3.9 5.8-5.3 3.2-2.1 5.2-0.3 5.2 3-0.1 2.9-1.1 5.8-1.9 9-1-1.7-1.7-3.7-2.4-5.8-2.3 1.2-5.6 1.7-6.9 3.6-4.9 6.8-9.2 14-13.5 21.2-1.6 2.8-2.8 5.1-6.7 3.6-4.2-1.7-2.3-4.4-1.6-7 0.1-0.6 0.3-1.2 0.6-2.2z"/>
	<path id="Layer" class="s13" d="m314 1163.8c4.9-16.3 16.5-27.1 31.7-36.9-0.8 3.9-1.3 6.5-2.2 9.2-1.7 0.5-3.2 0.6-4.4 1.3-10 6.2-17 15.3-23.4 25-0.3 0.5-0.9 0.9-1.7 1.4z"/>
	<path id="Layer" class="s14" d="m632.2 1241.6c-1.9 0.3-3.5 0.3-6.7 0.3 13.7-12.1 23.9-24.9 31.7-39.8 0.1 1.4 0.4 3.1-0.2 4.6-4.4 11-11.8 20-19.3 29-1.6 2-3.5 3.7-5.5 5.9z"/>
	<path id="Layer" class="s10" d="m1362.7 965.2c1.4 2.8 1.8 6.5 3.8 8.5 3.8 3.8 10 3.1 14.3-1.1 3-2.9 5.4-6.4 8.2-9.8-0.7 9.7-11.3 19.6-19.6 19.2-6.1-0.4-8.7-3.4-8.3-10.3 0.1-2.1 0.8-4.2 1.6-6.5z"/>
	<path id="Layer" class="s14" d="m666.6 912.3c3.4 13.7 6.6 27.6 9.4 41.6 0.4 2.3-0.8 4.8-1.6 7.1-3.3-12.3-6.5-24.4-8.9-36.7-0.8-3.7 0.5-7.8 1.1-12z"/>
	<path id="Layer" class="s12" d="m1641.9 1001.1c3.3 7.9 9.1 9.5 15.5 2.9 4.7-4.9 7.9-11.2 12.1-17-2.5 10.3-7.5 19.3-16.7 25.5-3.5 2.4-7.4 2.3-10.4-0.8-3.1-3.1-3.3-6.7-0.5-10.6z"/>
	<path id="Layer" class="s12" d="m974.9 1001.1c3.3 7.8 8.8 9.5 15.1 3.3 4.6-4.6 7.8-10.6 12-16.2 0.5-0.2 1-0.2 1-0.2-4.6 7.4-8.7 15-13.8 21.9-1.6 2.3-5.6 3.7-8.6 3.9-6.4 0.3-9.2-6.1-5.7-12.7z"/>
	<path id="Layer" class="s13" d="m1276.1 1104.9c2.4-9.6 7.7-17.2 17.3-21 5.1-2 9.1 0.4 9.5 5.8 0.2 3.4-0.6 6.8-1.3 10.6-0.5-1.1-0.6-2.6-1-4.1-1.9-6.9-8.2-8.8-13.4-3.8-3.9 3.8-7.2 8.2-11.1 12.5z"/>
	<path id="Layer" class="s13" d="m1112.1 1104.9c2.4-9.6 7.7-17.2 17.3-21 5.1-2 9.1 0.4 9.5 5.8 0.2 3.4-0.6 6.8-1.3 10.6-0.5-1.1-0.6-2.6-1-4.1-1.9-6.9-8.2-8.8-13.4-3.8-3.9 3.8-7.2 8.2-11.1 12.5z"/>
	<path id="Layer" class="s13" d="m1500.9 948.8c-1.8-0.3-3.5-1.1-5.6-2.3-1.9-5.6-4.7-7.4-9.4-4.7-4.1 2.4-7.6 6.1-11 9.6-2.4 2.4-4.3 5.5-6.4 8.3 4-6.6 7.7-13.4 12.2-19.7 2.9-4 7.8-4.8 12.5-3.9 4.7 0.9 5 4.5 3.9 8.8 1.5 0 2.7 0 4.4 0 0.1 1.2-0.2 2.4-0.6 3.9z"/>
	<path id="Layer" class="s13" d="m1090.5 959.7c4-6.6 7.7-13.4 12.2-19.7 2.9-4 7.8-4.8 12.5-3.9 4.7 0.9 5 4.5 3.9 8.8 1.5 0 2.7 0 4.4 0 0.1 1.2-0.2 2.4-0.6 3.9-1.8-0.3-3.5-1.1-5.6-2.3-1.9-5.6-4.7-7.4-9.4-4.7-4.1 2.4-7.6 6.1-11 9.5-2.4 2.5-4.3 5.6-6.4 8.4z"/>
	<path id="Layer" class="s13" d="m1384.9 1094.8c-1.8-0.3-3.5-1.1-5.6-2.3-1.9-5.6-4.7-7.4-9.4-4.7-4.1 2.4-7.6 6.1-11 9.6-2.4 2.4-4.3 5.5-6.4 8.3 4-6.6 7.7-13.4 12.2-19.7 2.9-4 7.8-4.8 12.5-3.9 4.7 0.9 5 4.5 3.9 8.8 1.5 0 2.7 0 4.4 0 0.1 1.2-0.2 2.4-0.6 3.9z"/>
	<path id="Layer" class="s13" d="m1842.5 959.7c4-6.6 7.7-13.4 12.2-19.7 2.9-4 7.8-4.8 12.5-3.9 4.7 0.9 5 4.5 3.9 8.8 1.5 0 2.7 0 4.4 0 0.1 1.2-0.2 2.4-0.6 3.9-1.8-0.3-3.5-1.1-5.6-2.3-1.9-5.6-4.7-7.4-9.4-4.7-4.1 2.4-7.6 6.1-11 9.5-2.4 2.5-4.3 5.6-6.4 8.4z"/>
	<path id="Layer" class="s12" d="m1118.7 1123.4c5.3-2.5 10.6-4.3 15.3-7.2 3.1-1.9 5.2-5.4 8-8.4-1 2.9-1.7 6.3-3.6 9-5.4 7.6-13.2 11.4-22.4 12-2.2 0.2-4.6-1-6.8-1.6q0-0.7 0-1.5c3.1-0.6 6.2-1.3 9.5-2.3z"/>
	<path id="Layer" class="s12" d="m1282.7 1123.4c5.3-2.5 10.6-4.3 15.3-7.2 3.1-1.9 5.2-5.4 8-8.4-1 2.9-1.7 6.3-3.6 9-5.4 7.6-13.2 11.4-22.4 12-2.2 0.2-4.6-1-6.8-1.6q0-0.7 0-1.5c3.1-0.6 6.2-1.3 9.5-2.3z"/>
	<path id="Layer" class="s9" d="m1158.4 1112c-0.4-1.9-0.4-3.8-0.4-5.5 11.2-1.8 20.3-6.6 27.6-15.5 0.4 5.9-3.8 9.9-8 12.6-5.8 3.6-12.5 5.7-19.2 8.4z"/>
	<path id="Layer" class="s9" d="m1445.4 1112c-0.4-1.9-0.4-3.8-0.4-5.5 11.2-1.8 20.3-6.6 27.6-15.5 0.4 5.9-3.8 9.9-8 12.6-5.8 3.6-12.5 5.7-19.2 8.4z"/>
	<path id="Layer" class="s9" d="m1529.4 1112c-0.4-1.9-0.4-3.8-0.4-5.5 11.2-1.8 20.3-6.6 27.6-15.5 0.4 5.9-3.8 9.9-8 12.6-5.8 3.6-12.5 5.7-19.2 8.4z"/>
	<path id="Layer" class="s9" d="m1579.4 966c-0.4-1.9-0.4-3.9-0.4-5.5 11.2-1.8 20.3-6.6 27.6-15.5 0.4 5.9-3.8 9.9-8 12.6-5.8 3.6-12.5 5.7-19.2 8.4z"/>
	<path id="Layer" class="s9" d="m944.4 966c-0.4-1.9-0.4-3.9-0.4-5.5 11.2-1.8 20.3-6.6 27.6-15.5 0.4 5.9-3.8 9.9-8 12.6-5.8 3.6-12.5 5.7-19.2 8.4z"/>
	<path id="Layer" class="s14" d="m1142.9 969.4c5.5-8.4 11.2-16.8 17.2-25.1 1-1.4 2.7-2.4 4.3-3.2 3.8-1.9 5.8-0.7 5.8 3.5-0.1 3.1-0.9 6.2-1.6 9.6-0.4-0.3-0.4-1-0.6-1.6-0.6-1.8-1-4.9-2-5.1-1.7-0.3-4.4 0.5-5.7 1.8-5.2 5.8-9.9 11.9-14.9 17.8-0.7 0.8-1.5 1.6-2.5 2.3z"/>
	<path id="Layer" class="s11" d="m1652.8 958c2.1-11.5 11.5-20.7 22.5-22.1 1.4-0.2 2.9 0.1 4.6 0.6 0.4 0.9 0.6 1.4 1 2.3-1.3 1.2-2.7 2.2-4.7 2.9-4.1 0.8-8.4 0.9-11 3.1-4.7 3.7-8.3 8.7-12.4 13.2z"/>
	<path id="Layer" class="s11" d="m985.8 958c2.1-11.5 11.5-20.7 22.5-22.1 1.4-0.2 2.9 0.1 4.6 0.6 0.4 0.9 0.6 1.4 1 2.3-1.3 1.2-2.7 2.2-4.7 2.9-4.1 0.8-8.4 0.9-11 3.1-4.7 3.7-8.3 8.7-12.4 13.2z"/>
	<path id="Layer" class="s3" d="m883.2 917.9c-0.2-6 7.1-11.5 12.1-8.6 3.1 1.8 2.6 5.1-0.6 8.1-4.2 3-7.8 2.7-11.5 0.5z"/>
	<path id="Layer" class="s3" d="m1333.2 1063.9c-0.2-6 7.1-11.5 12.1-8.6 3.1 1.8 2.6 5.1-0.6 8.1-4.2 3-7.8 2.7-11.5 0.5z"/>
	<path id="Layer" class="s3" d="m1234.2 917.9c-0.2-6 7.1-11.5 12.1-8.6 3.1 1.8 2.6 5.1-0.6 8.1-4.2 3-7.8 2.7-11.5 0.5z"/>
	<path id="Layer" class="s3" d="m1765.2 917.9c-0.2-6 7.1-11.5 12.1-8.6 3.1 1.8 2.6 5.1-0.6 8.1-4.2 3-7.8 2.7-11.5 0.5z"/>
	<path id="Layer" class="s11" d="m1787.8 951.8c3.2-8 7.8-14.8 16.7-17.8 4 0.1 7.6 0.2 7.5 5.7 0.1 0.4 0 0.9-0.4 0.9-3.1-0.4-6.3-1.9-8.3-0.9-4.2 2.1-7.6 5.5-11.4 8.4-1.4 1.2-2.7 2.5-4.1 3.7z"/>
	<path id="Layer" class="s1" d="m1898.3 970.2c-3.1 4.6-5.9 8.9-8.8 13.1-4.2-5-0.4-14.2 3.6-16.9 2.7-1.7 4.9-0.3 5.2 3.8z"/>
	<path id="Layer" class="s8" d="m684.1 908c-0.2-7.1 3.5-12.2 9.6-13 4.7-0.7 9.3 1.8 10.2 5.3-4.2 0.3-8.4 0.6-13.2 1.4-2.1 2.9-3.7 5.3-5.3 7.8-0.3-0.4-0.8-1-1.3-1.5z"/>
	<path id="Layer" class="s9" d="m1430.9 954.5c3.4-10.8 8-15.8 17.7-19.4 3.2 3.1 2.3 6.4-0.2 9.8-1.2-3.9-4-4.7-7.4-1.3-3.5 3.4-6.6 7.3-10.1 10.9z"/>
	<path id="Layer" class="s9" d="m1407.9 1100.5c3.4-10.8 8-15.8 17.7-19.4 3.2 3.1 2.3 6.4-0.2 9.8-1.2-3.9-4-4.7-7.4-1.3-3.5 3.4-6.6 7.3-10.1 10.9z"/>
	<path id="Layer" class="s4" d="m683.8 908.2c0.8 0.3 1.3 0.9 1.6 1.3 1.6-2.5 3.2-4.9 5.2-7.4 4.6 0.1 9.4-1.2 12.9 5-4.6 0-9.1-1.2-12.2 0.3-3.1 1.6-4.9 5.8-7.5 9.1-3.1-2.3-1.4-5.2 0-8.3z"/>
	<path id="Layer" class="s11" d="m934.9 708.5c-0.6-4.8 1.3-8.1 5.1-10.8 2.1-1.6 3.6-4.2 5.7-6.4 0.9 8.4-3.3 13.8-10.8 17.2z"/>
	<path id="Layer" class="s9" d="m882.9 918.1c4 2 7.6 2.3 11.5-0.4 0.5 5.8-4.9 10.2-10.3 8.1-4-1.5-3.7-4.5-1.2-7.7z"/>
	<path id="Layer" class="s9" d="m1764.9 918.1c4 2 7.6 2.3 11.5-0.4 0.5 5.8-4.9 10.2-10.3 8.1-4-1.5-3.7-4.5-1.2-7.7z"/>
	<path id="Layer" class="s9" d="m1233.9 918.1c4 2 7.6 2.3 11.5-0.4 0.5 5.8-4.9 10.2-10.3 8.1-4-1.5-3.7-4.5-1.2-7.7z"/>
	<path id="Layer" class="s9" d="m1332.9 1064.1c4 2 7.6 2.3 11.5-0.4 0.5 5.8-4.9 10.2-10.3 8.1-4-1.5-3.7-4.5-1.2-7.7z"/>
	<path id="Layer" class="s8" d="m1559.9 1116.4c0.9-1.4 1.9-2.5 3-3.9 2.7-0.5 5.2-0.7 8.7-0.9-0.8 3-1.3 5.1-2.6 7.3-3.5 0.1-6.2 0.1-8.9 0-0.1-0.7-0.1-1.4-0.2-2.5z"/>
	<path id="Layer" class="s14" d="m1489 1088.8c0.3-2.2 1-4.2 1.8-6.3 7.9 5.7 8.3 6.8 6 14.3-2.6-2.4-5.1-5.1-7.8-8z"/>
	<path id="Layer" class="s14" d="m1202 1088.8c0.4-2.2 1-4.2 1.8-6.3 7.9 5.7 8.3 6.8 6 14.3-2.6-2.4-5.1-5.1-7.8-8z"/>
	<path id="Layer" class="s10" d="m1559.9 1119.2c2.9-0.2 5.6-0.2 8.7-0.1-0.8 2.3-1.7 5.2-3.5 6.6-1.3 0.9-4.1-0.2-6.2-0.5 0.3-1.9 0.6-3.8 1-6z"/>
	<path id="Layer" class="s10" d="m794.5 908.2c0.2 3.6 1.6 6.5 5.4 8.4 0.3 2.1 0.5 3.8 0.6 5.6-8.2-0.3-10-4.2-6-14z"/>
	<path id="Layer" class="s11" d="m1131.7 973.3c0 0 0.3-0.1 0.4-0.2 2.5 0.9 4.7 1.9 7.4 2.8-0.2 2.3-0.9 4.6-1.7 7.5-3-1.1-5.4-2-7.8-2.8 0.4-2 0.7-3.4 1-5.2 0-0.4 0-0.4 0.2-0.5 0.3-0.6 0.4-1.1 0.5-1.6z"/>
	<path id="Layer" class="s12" d="m1090.8 1149.2c2.1 1.3 2.3 6 6.8 2.8-0.1 1.4-0.1 3.2-1 4.5-0.9 1.3-2.7 2.1-4.1 3.2-1.1-2.1-2.5-4-3.1-6.1-0.3-1.2 0.7-2.8 1.4-4.4z"/>
	<path id="Layer" class="s12" d="m1254.8 1149.2c2.1 1.3 2.3 6 6.8 2.8-0.1 1.4-0.1 3.2-1 4.5-0.9 1.3-2.7 2.1-4.1 3.2-1.1-2.1-2.5-4-3.1-6.1-0.3-1.2 0.7-2.8 1.4-4.4z"/>
	<path id="Layer" class="s4" d="m1446.8 949.5c2.2-0.7 4.3-1 6.8-1.4-0.2 7.2-3.3 9.2-9.5 6.3 0.9-1.6 1.7-3.1 2.7-4.9z"/>
	<path id="Layer" class="s4" d="m1423.8 1095.5c2.2-0.7 4.3-1 6.8-1.4-0.2 7.2-3.3 9.2-9.5 6.3 0.9-1.6 1.7-3.1 2.7-4.9z"/>
	<path id="Layer" class="s10" d="m1563.8 1107.1c0-0.7 0.4-1.3 0.9-2 0 0.7-0.3 1.5-0.9 2z"/>
	<path id="Layer" class="s10" d="m1314.7 1105.3c0.2 0.7 0.1 1.7-0.1 3-0.2-0.7-0.2-1.8 0.1-3z"/>
	<path id="Layer" class="s12" d="m1306.8 1107.3c0-0.8 0.3-1.5 0.9-2.4 0 0.8-0.3 1.6-0.9 2.4z"/>
	<path id="Layer" class="s12" d="m1142.8 1107.3c0-0.8 0.3-1.5 0.9-2.4 0 0.8-0.3 1.6-0.9 2.4z"/>
	<path id="Layer" class="s10" d="m864.7 959.3c0.2 0.7 0.1 1.7-0.1 3-0.2-0.7-0.2-1.8 0.1-3z"/>
	<path id="Layer" class="s10" d="m1389.8 962.3c0-0.8 0.3-1.4 0.9-2.2 0 0.7-0.3 1.5-0.9 2.2z"/>
	<path id="Layer" class="s10" d="m1613.8 961.1c0-0.7 0.4-1.3 0.9-2 0 0.7-0.3 1.5-0.9 2z"/>
	<path id="Layer" class="s14" d="m1140.1 975.8q-0.2-0.7 0.4-1.8 0.2 0.6-0.4 1.8z"/>
	<path id="Layer" class="s12" d="m1670.1 986.7c-0.2-0.4 0-1 0.4-1.8 0.2 0.5 0 1.1-0.4 1.8z"/>
	<path id="Layer" class="s13" d="m1003.1 986.7c-0.2-0.4 0-1 0.4-1.8 0.1 0.5 0 1.1-0.4 1.8z"/>
	<path id="Layer" class="s14" d="m1141.1 973.7c-0.3-0.4-0.2-1 0.2-1.8 0.1 0.4 0.1 1.1-0.2 1.8z"/>
	<path id="Layer" class="s14" d="m1141.9 971.5c-0.2-0.4-0.1-0.9 0.2-1.6 0.2 0.4 0.2 1-0.2 1.6z"/>
	<path id="Layer" class="s10" d="m1246 962.6c-0.2-0.5 0.1-1.1 0.6-1.8 0.1 0.5-0.1 1.1-0.6 1.8z"/>
	<path id="Layer" class="s9" d="m1888.9 962.4c-0.1-0.6 0.1-1 0.5-1.6 0.1 0.5-0.1 1.1-0.5 1.6z"/>
	<path id="Layer" class="s9" d="m1407.2 1102.8c-0.3-0.4-0.2-1 0-1.9 0.2 0.4 0.3 1.1 0 1.9z"/>
	<path id="Layer" class="s14" d="m1200 1092.7c-0.1-0.5 0-1 0.5-1.8 0.1 0.5 0 1.1-0.5 1.8z"/>
	<path id="Layer" class="s9" d="m1430.2 956.8c-0.3-0.4-0.2-1 0-1.9 0.2 0.4 0.3 1.1 0 1.9z"/>
	<path id="Layer" class="s11" d="m1278.6 956.2q0.3 0.6-0.1 2-0.3-0.6 0.1-2z"/>
	<path id="Layer" class="s14" d="m1487 1092.7c-0.1-0.5 0-1 0.5-1.8 0.1 0.5 0 1.1-0.5 1.8z"/>
	<path id="Layer" class="s14" d="m1488 1090.7c-0.2-0.5 0-1 0.3-1.8 0.2 0.4 0.1 1.1-0.3 1.8z"/>
	<path id="Layer" class="s14" d="m1201 1090.7c-0.2-0.5 0-1 0.3-1.8 0.2 0.4 0.1 1.1-0.3 1.8z"/>
	<path id="Layer" class="s11" d="m934.2 709.9c-0.3-0.2-0.3-0.5 0-1 0.2 0.1 0.3 0.3 0.4 0.5 0 0.1-0.1 0.2-0.4 0.5z"/>
	<path id="Layer" class="s10" d="m1149.1 1105.1c0.2 0.1 0.4 0.5 0.4 1.2-0.3-0.1-0.4-0.4-0.4-1.2z"/>
	<path id="Layer" class="s9" d="m1890 960.7c-0.1-0.3 0.1-0.5 0.6-0.8 0.1 0.2-0.1 0.5-0.6 0.8z"/>
	<path id="Layer" class="s13" d="m1003 987.7c0 0.3-0.5 0.3-0.7 0.3-0.2-0.3-0.1-0.7 0.2-1.1 0.3 0.1 0.4 0.3 0.5 0.8z"/>
	<path id="Layer" class="s13" d="m1111.4 1106.8q-0.3-0.2 0-1.1 0.3 0.2 0 1.1z"/>
	<path id="Layer" class="s13" d="m1275.4 1106.8q-0.3-0.2 0-1.1 0.3 0.2 0 1.1z"/>
	<path id="Layer" class="s0" d="m172.3 1106.1c1.1-2.2 2-5.2 4-6.7 13-9.6 26.4-18.7 39.4-28.4 10.7-7.9 21.7-15.4 31.1-24.7 15.4-15.3 29.3-32 44.3-47.8 23.4-24.7 52.1-41.2 84.2-51.9 6.1-2.1 13-2.2 19.6-2.5 25.6-1.1 51 1.2 75.6 8.9 2 0.6 4.2 1 6.3 1.1 8.6 0.4 13.5 6.4 18.7 12 0.6 0.7 0.6 2.4 0.5 3.6-1.3 10.9-2.6 21.9-4 32.9-2.6 19 0 37.6 4.2 56.1 2.1 9.3 4.3 19.1 12.9 25.6 1.3 1.1 1.1 4.1 2.1 5.9 3.1 5.8 6.5 11.4 9.8 17.5-19.3-8.8-38.6-17.8-57.8-27.1-6.2-3.1-12.3-6.4-18.1-10.2-11.3-7.2-29.5-6.3-40.7-3.6 8.4-15.9 6.7-35 19-49.1q-0.8-0.6-1.7-1.2c-2.2 3-5.1 5.7-6.7 9-6.1 12.9-12.4 25.7-17.6 38.9-6.4 16.2-17 28.2-31.4 37.7-14.5 9.7-28.6 20.1-42.2 31-4.6 3.7-7.5 9.7-10.3 15.1-3.8 7.5-7.3 15.2-10.2 23.2-5.7 15.4-10.8 31.1-16.4 46.6-3.6 10-9.2 18.6-18.1 24.7-4.7 3.2-13.5-1.6-13.7-7.8-0.3-6.2-0.7-12.4 4-18 1.6-1.9 1-6.3 0.4-9.4-0.6-3.2 0-4.7 2.3-7.4 4.1-4.7 7.5-10.8 8.9-16.9 2.7-11.3 3.6-23.1 5.3-34.6 0.2-1.3 0-2.7 0-4 0.3-6.9 0.7-13.8 1.3-21.3 9.7-5.8 19.5-10.5 28.4-16.4 8.8-5.7 14.1-14.3 15.2-25 2.4-8.1 4.3-16.2 2.2-24.8-2.4-9.8-5-19.6-6.7-29.6-0.7-4.5 0-9.6 1.2-14.1 2.1-7.2 5.3-14.1 7.7-21.2 0.8-2.4 0.7-5.2 0.6-7.8 0-1.5-0.6-3.7-1.6-4.1-1.1-0.5-3.4 0.3-4.3 1.3-5.6 6.7-11.4 13.5-16.6 20.6-10.1 13.8-18.5 29.3-30.3 41.5-14.6 15-31.5 28-51.3 36.3-10.3 4.3-20.9 8.2-30.9 13.2-6.6 3.3-12.2 8.4-18.6 12.9z"/>
	<path id="Layer" class="s15" d="m421 1259.9c-5.7-0.3-11.5-0.7-17.2-0.9q-5.2-0.2-10.5 0.1c-6.8 0.2-9.6-4.8-12.1-9.7-5.1-9.7-9.3-19.8-14.7-29.3-10.2-17.6-21-34.8-31.5-52.1 7.8-10.6 14.8-22.3 14.2-37.6 8.8-6.4 17.5-11.9 25.7-18 10.6-7.8 20.2-17 24.9-29.6 2.2-5.7 5.9-7.6 10.9-6.7 8.2 1.5 16.3 3.9 24.4 6-8 10.2-16.9 19.8-21.2 32.5-1.2 3.8-3.5 7.3-6 10.4-11.8 15.2-17.8 32.4-20.3 51.9-0.4 1.9-0.4 3.2-0.4 4.4 0 0 0.1 0.4-0.2 0.7-0.4 2-0.4 3.5-0.4 5-0.1 0.8-0.1 1.5-0.6 2.7-0.9 5.2-2 9.7-1.9 14.3 0.3 9.8 0.9 19.5 2 29.2 1.5 12.2 6.9 18.6 17.4 19.9 4.8 0.6 9.9-0.8 15.8-1.3 0.5 2.4 1.1 5.2 1.7 8.1z"/>
	<path id="Layer" class="s12" d="m435.5 1082c-8.5-2-16.6-4.4-24.8-5.9-5-0.9-8.7 1-10.9 6.7-4.7 12.6-14.3 21.8-24.9 29.6-8.2 6.1-16.9 11.6-25.7 17.5-2.7-2.7-1.8-4.7 1-6.6 8.1-5.5 16.1-11.3 24.2-16.7 12.5-8.4 21.9-19.2 27.6-33.2 1.4-3.3 7.4-5.8 12.5-4.6 8.6 2.2 17.1 5 25.6 7.5q0.4 0.9 0.7 1.8c-1.7 1.3-3.3 2.5-5.3 3.9z"/>
	<path id="Layer" class="s9" d="m421.3 1260c-0.9-3-1.5-5.8-2-8.2-5.9 0.5-11 1.9-15.8 1.3-10.5-1.3-15.9-7.7-17.4-19.9-1.1-9.7-1.7-19.4-2-29.2-0.1-4.6 1-9.1 1.9-13.9 0.5 9.5 0.6 19.2 1.1 28.9 0.2 3.8 1.2 7.5 1.8 11.2 2.5 16.1 20.3 20.5 30.8 13.8 1.1 2.6 2.4 5.1 3.2 7.7 0.9 2.8 1.3 5.7 2.1 9.2-1.4-0.3-2.4-0.5-3.7-0.9z"/>
	<path id="Layer" class="s4" d="m320.7 1082.1c-0.9 10.5-6.2 19.1-15 24.8-8.9 5.9-18.7 10.6-28.4 15.9-1.5-4.5 0.9-6.9 4.9-8.8 7.3-3.6 14.4-7.4 21.3-11.5 7.9-4.7 13.7-11.4 17.2-20.4z"/>
	<path id="Layer" class="s0" d="m157.4 1122.7c1.3-1.4 2.6-2.7 3.7-4.1 3.2-3.8 6.3-7.7 9.8-11.6-2.2 5.3-4.4 10.7-7.4 15.7-1.2 1.9-4.2 2.7-6.2 3.4 0.1-1.5 0.1-2.5 0.1-3.4 0 0 0.1 0 0 0z"/>
	<path id="Layer" class="s9" d="m386.8 1186.7c-0.2-1.2-0.2-2.7 0.1-4.5 0.2 1.2 0.1 2.6-0.1 4.5z"/>
	<path id="Layer" class="s9" d="m387.3 1181c-0.1-0.9-0.1-2.2 0.1-3.7 0.2 0.9 0.1 2.1-0.1 3.7z"/>
	<path id="Layer" class="s4" d="m157.2 1123c0.2 0.6 0.2 1.6 0 2.8-0.3-0.7-0.2-1.6 0-2.8z"/>
	<path id="Layer" class="s0" d="m464 937.4q0.7-0.3 1.8 0.2-0.7 0.3-1.8-0.2z"/>
	<path id="Layer" class="s0" d="m560 944.8c-4.1 1.7-8.2 3.4-12.7 5.2-3.6-1-6.8-2.7-10.1-3.3-7.7-1.5-15.4-2.8-23.1-3.6-2.6-0.2-5.3 1.1-8 1.8q0 0.6 0 1.3c-0.5-0.4-1-0.7-1.5-1.1-15.9-15.6-31.8-31.2-47.7-46.7-10.9-10.6-21.7-21.1-32.6-31.6-10.8-10.5-21.6-21-32.5-31.5-8.1-7.8-16.4-15.4-25.3-23.8 3.1-3 5.9-5.7 9.4-8.4 1.7-0.3 2.7-0.5 3.6-0.9 13.5-4.5 26.9-9.2 40.4-13.6 6.9-2.2 16.2 0.3 20.4 7.6 2.9 5.1 6.8 9.7 10.6 14.3 12.7 15.4 25.6 30.7 38.2 46.2 23.7 29.3 47.3 58.8 70.9 88.1z"/>
	<path id="Layer" class="s0" d="m576.6 1082.1c3.5-1.4 6.9-2.4 9.9-4 10.5-5.2 21.8-6.6 33.2-6.9 7.5-0.2 15.1 1.3 22.9 2.3-3.8 8-7.4 16-12.2 23.4-4.9 7.6-10.6 14.8-16.6 21.6-9.4 10.7-14.1 23.2-15.4 37.1 0 0.5-0.1 1-0.6 2.2-1.2 8.4-2.4 16.1-2.7 23.8-0.2 8.1 0.2 16.2 1 24.3 0.6 5.1 1.3 10.7 3.7 15.2 4.6 8.3 10.3 16.1 15.8 23.9 4.7 6.5 10.6 11.1 19.3 11.1 1.4 0.1 2.8 2 4.2 3-3 4.4-7 6.4-12.5 6-4.4-0.3-8.9 0.6-13.3 0.9-3.2 0.2-5.2-0.4-6.5-4.2-3.9-11.1-10.7-20.5-18.6-29.3-6.6-7.2-12.6-14.9-18.7-22.6-3.9-5-3.2-11.2-2.3-16.7 1.8-10.9 0.1-21.4-2.1-32-2-9.8-3.1-19.8-5.2-29.6-1.6-7.4-4.2-14.5-7.1-21.3 0.7-2.1 1.4-4.1 2.1-6.6 7.1-7.4 14.3-14.5 21.7-21.6z"/>
	<path id="Layer" class="s16" d="m555.2 1085.9c-2.1 1-4.4 3.1-6.2 2.7-8.5-1.9-17-4-25.2-6.9-11-3.8-15.9-12.2-18.3-23.7-3.6-18.4-6.4-36.8-6.4-55.6 0-7.9 0.5-15.9 1-23.8 0.2-1.8 1.5-3.5 2.9-5.3 14 12.9 27.3 25.9 40.9 38.6 3.2 2.9 4.2 5.7 4.2 9.8-0.3 21.7 1.7 43.2 7.1 64.2z"/>
	<path id="Layer" class="s17" d="m572 942.2c-1.1 0.3-2.1 0.7-3.5 1-7-8.5-13.6-17.1-20.3-25.5q-23.2-29.2-46.5-58.2c-16.8-21-33.7-41.9-50.5-62.8-2.6-3.2-4.7-7.2-7.9-9.5-3.9-2.8-8.6-5-13.3-5.9-4.4-0.9-9.4-0.4-13.8 0.8-15.8 4.5-31.9 8.3-45.9 17.4-3.7 2.3-6.7 5.8-10.3 9.3-2.6 3.3-3.1 5.5 0 8.5 46.5 45.5 92.9 91.2 139.3 136.7 15.5 15.2 31.1 30.2 46.8 45 2.9 2.7 4.3 5.2 3.4 9-1.6-0.9-3.4-1.5-4.6-2.7-6.2-6.4-12.2-13.1-18.6-19.4-19.9-19.7-39.8-39.3-59.8-58.8-10.9-10.8-22-21.3-32.9-32-17.7-17.3-35.2-34.6-52.8-51.8-9.5-9.3-19-18.7-28.8-27.7-10.6-9.7-5.8-16.6 2-23.4 3.5-3 7.7-5.1 12.2-7.9 2.4-0.7 4.2-1 6-1.4 14.5-3.5 28.9-7.5 43.6-10.5 10.7-2.1 20.9-1.3 28.7 8.6 30.1 38.1 60.7 75.9 90.9 113.9 12.4 15.6 24.4 31.5 36.6 47.3z"/>
	<path id="Layer" class="s18" d="m605.3 1061.8q-6.7 2.6-13.4 5.2c-10.4 4-19.6 9.7-27.3 17.8-0.5 0.6-1.2 1.1-1.9 1.6-0.2 0.2-0.6 0-1.4 0-0.8-6.3-1.7-12.8-2.3-19.3-1.1-12.7-2.2-25.3-2.8-38-0.3-5.9 0.7-11.9 1.2-17.8 0.2-2.3 0.9-4.6 1.8-7 14.5 14.8 31.7 25.4 48.8 34.5-0.9 8-1.8 15.5-2.7 23z"/>
	<path id="Layer" class="s19" d="m549.7 1008.3c0.7-4.1-0.7-6.6-3.6-9.3-15.7-14.8-31.3-29.8-46.8-45-46.4-45.5-92.8-91.2-139.3-136.7-3.1-3-2.6-5.2-0.2-8.2 1.5 1.7 2.3 4.1 3.9 5.7 40.4 39.9 80.7 79.8 121.3 119.5 21.6 21.1 43.6 41.9 65.5 62.9 2.6 2.4 2.3 9.3-0.8 11.1z"/>
	<path id="Layer" class="s20" d="m572.3 942.4c-12.5-16-24.5-31.9-36.9-47.5-30.2-38-60.8-75.8-90.9-113.9-7.8-9.9-18-10.7-28.7-8.6-14.7 3-29.1 7-43.6 10.5-1.8 0.4-3.6 0.7-5.8 1.1 5.9-2.4 12-5.4 18.4-7 12.2-3.1 24.6-5.8 36.9-8.1 10.8-2 19.6 1.1 26.8 10.1 41 52.2 82.2 104.1 123.4 156 1.6 2 3.4 3.6 5.5 5.4 0.1 4.1-2.4 2.9-5.1 2z"/>
	<path id="Layer" class="s21" d="m560.3 944.9c-23.9-29.4-47.5-58.9-71.2-88.2-12.6-15.5-25.5-30.8-38.2-46.2-3.8-4.6-7.7-9.2-10.6-14.3-4.2-7.3-13.5-9.8-20.4-7.6-13.5 4.4-26.9 9.1-40.4 13.6-0.9 0.4-1.9 0.6-3.3 0.8 7-3.5 14.2-7.2 21.7-10.1 7.7-3.1 15.7-5.4 23.7-7.8 9.1-2.7 15-0.5 20.9 6.9 33.6 41.6 67.3 83.3 100.9 124.9 7.2 9 14.3 17.9 21.8 27.1-0.2 1-0.5 1.9-0.9 2.8-1.2-0.6-2.4-1.2-4-1.9z"/>
	<path id="Layer" class="s22" d="m646.9 1066c-9.6-3.8-19.6-5.4-30-5.1-3.5 0.1-5.7-1.1-4.3-5.4 1.4-4.2 2.1-8.6 3.7-13.2 12.9 2 25.2 4.4 37.6 7.1-0.3 2.2-0.6 3.9-0.9 5.7 0 0 0-0.1-0.3-0.1-0.5 0.7-0.6 1.4-0.7 2.1 0 0 0-0.1-0.3-0.1-0.4 0.3-0.6 0.7-0.7 1 0 0 0 0-0.2 0.1-0.5 0.8-0.7 1.4-0.8 1.9 0 0 0 0-0.3 0.2-0.4 1-0.6 1.9-0.7 2.8 0 0 0 0-0.3 0-0.5 0.7-0.6 1.4-0.7 2.1 0 0 0-0.1-0.3-0.1-0.5 0.3-0.6 0.6-0.8 1z"/>
	<path id="Layer" class="s23" d="m555.4 1086.1c-5.6-21.2-7.6-42.7-7.3-64.4 0-4.1-1-6.9-4.2-9.8-13.6-12.7-26.9-25.7-40.6-38.8-1-1.8-1.8-3.5-2.6-5.2q0.6-0.4 1.2-0.8c1 0.8 2 1.6 3 2.6 13.3 13.1 26.5 26.2 39.8 39.3 1.1 1.1 3.2 1.2 4.2 2.3 1.2 1.3 2 3.2 2.1 4.9 1.4 17.4 2.6 34.8 4.1 52.1 0.4 5.1 1.9 10.1 3 15.2 0.4 1.9 1 4-2.7 2.6z"/>
	<path id="Layer" class="s17" d="m548.3 988.2c-1.2-0.7-2.6-1-3.4-1.9-11-10.9-21.9-21.8-32.8-32.7-0.5-0.5-0.7-1.2-0.6-2.1 8.4 0.6 16.5 1.5 24.5 2.8 1.1 0.1 2.6 1.9 2.9 3.2 1.4 5.9 2.2 12 3.9 17.8 1.3 4.5 3.6 8.6 5.5 12.9z"/>
	<path id="Layer" class="s22" d="m553.2 1094.7c-2.1 3.9-4.1 7.9-6.6 11.6-3 4.3-11.3 3.8-16.5-0.7-2.9-2.5-5.7-5-8.9-7.5-0.4 0-0.2-0.1-0.3 0-1.2-3.2-2.4-6.5-3.3-10.1 11.5 3.5 22.9 5.8 34.7 5.1 0.3 0 0.6 1 0.9 1.6z"/>
	<path id="Layer" class="s19" d="m605.6 1061.7c0.6-7.4 1.5-14.9 2.4-22.9-17.1-9.1-34.3-19.7-48.6-34.8-0.6-2.2-0.9-4.2-1.3-6.2q0.6-0.3 1.2-0.7c14.1 17.7 33.3 28.4 52 38.7-1.1 8.2-2.1 15.9-3.3 23.5-0.1 0.9-1.3 1.6-2.4 2.4z"/>
	<path id="Layer" class="s23" d="m548.2 988.2c-1.8-4.3-4.1-8.4-5.4-12.9-1.7-5.8-2.5-11.9-3.9-17.8-0.3-1.3-1.8-3.1-2.9-3.2-8-1.3-16.1-2.2-24.6-3.2-4.5-2-1.1-2.7 0.4-2.7 4.7 0 9.5 0.2 14.3 0.6 4.1 0.4 8.2 1.4 12.3 1.9 2.6 0.4 3.7 1.7 3.7 4.3-0.1 12.3 5 22.8 11 33.1 0.9 1.4 0.9 3.4 1.3 5.2q-0.8 0.2-1.6 0.5c-1-1.2-2-2.4-3.4-4.2-0.7-0.8-1-1.1-1.4-1.4 0 0 0.2-0.1 0.2-0.2z"/>
	<path id="Layer" class="s23" d="m553.6 1094.7c-0.7-0.6-1-1.6-1.3-1.6-11.8 0.7-23.2-1.6-34.7-5.4-1-1.1-1.7-2.1-2.2-3.1-0.2-0.4-0.1-0.9-0.3-2.1 13.7 5.2 27.5 8.6 43.2 7.2-2 2.2-3.2 3.6-4.7 5z"/>
	<path id="Layer" class="s19" d="m653.9 1049.1c-12.4-2.4-24.7-4.8-37.5-7.2-0.3-1.3-0.2-2.5-0.2-3.1 13.4 2.5 26.4 4.9 39.3 7.4 0.4 0.1 0.5 1.7 0.1 2.8-1.1 0.1-1.4 0.1-1.7 0.1z"/>
	<path id="Layer" class="s23" d="m529.2 1112.6c-0.1-1.1-0.3-2.2-0.4-3.1 5.6 1.1 11.1 2.2 17.5 3.4-0.7 2-1.5 4.5-2.7 6.5-0.5-1.6-0.6-2.9-0.6-3.5-4.9-1.2-9.4-2.3-13.8-3.3z"/>
	<path id="Layer" class="s17" d="m529.2 1113c4.4 0.6 8.9 1.7 13.8 2.9 0 0.6 0.1 1.9 0.2 3.6-5.1 2.2-11.2-0.6-14-6.5z"/>
	<path id="Layer" class="s23" d="m653.9 1049.4c0.3-0.3 0.6-0.3 1.4-0.1-0.2 1.9-1 3.6-2 5.6 0-1.6 0.3-3.3 0.6-5.5z"/>
	<path id="Layer" class="s23" d="m649.3 1062.9q-0.3-1.1 0.4-2.8 0.3 1.1-0.4 2.8z"/>
	<path id="Layer" class="s23" d="m650.3 1060c-0.2-0.5 0-1.1 0.5-1.9 0.1 0.5 0 1.2-0.5 1.9z"/>
	<path id="Layer" class="s23" d="m652.2 1056.9c-0.1-0.5 0-1.2 0.5-1.9 0.2 0.5 0 1.1-0.5 1.9z"/>
	<path id="Layer" class="s23" d="m648.2 1064.9c-0.1-0.5 0-1.2 0.5-1.9 0.2 0.5 0 1.1-0.5 1.9z"/>
	<path id="Layer" class="s17" d="m548.1 988.8q0.4-0.1 1.1 0.8-0.4 0.1-1.1-0.8z"/>
	<path id="Layer" class="s23" d="m651.3 1058.1q-0.3-0.6 0.4-1.1 0.3 0.5-0.4 1.1z"/>
	<path id="Layer" class="s23" d="m647.2 1066c-0.1-0.4 0-0.7 0.5-1.1 0.1 0.4 0 0.7-0.5 1.1z"/>
	<path id="Layer" class="s0" d="m907.1 705.1c-32.3 34.9-64.5 69.9-96.8 104.7-0.3 0.4-1.3 0.1-1.9 0.1-1-8-1.7-8.8-9.8-11.3 6.2-7.2 12.9-14 19.2-21 14.2-15.6 28.3-31.5 42.5-47.2 10.1-11.1 20.1-22.3 30.3-33.2 1.1-1.1 4.3-1.7 5.4-1 3.9 2.6 7.4 5.9 11.1 8.9z"/>
	<path id="Layer" class="s15" d="m807 834.1c-8.6 4.7-17.2 9.5-25.8 14.2-7 3.8-14.1 7.5-22.2 11.8 1.5-2.5 2.6-3.8 2.9-5.2 1.5-6-0.6-7.9-8.5-8.2 6.7-14.1 13.6-28.1 20.8-41.9 0.8-1.6 2.9-2.5 4.5-3.7 0.7 1.6 2 3.1 2.2 4.8 1.2 7.8 3 9.1 10.3 6.9 4.5-1.3 6.5 0 7.9 4.3 1.2 3.5 2.6 7.3 7.7 6.9 3.8-0.3 5.8 1.8 6.4 5.4 0 0 0.1 0.3-0.3 0.5-1.6 1.2-2.7 2.2-3.8 3.2 0 0-0.1-0.1-0.3-0.1-0.8 0.4-1.3 0.7-1.8 1.1z"/>
	<path id="Layer" class="s0" d="m887 691.8c-8.2 9-16.2 18-24.4 27-4.3 4.8-8.7 9.5-13.1 14.2-8.3 8.9-16.6 17.8-24.8 26.8-10.4 11.6-20.7 23.3-31 35-0.6 0.8-1.1 1.7-1.3 2.1-2.6-2.7-4.6-4.8-6.8-7.3 17.9-19.9 36.1-39.5 54.4-59 11.2-12.1 22.6-24.1 33.9-36.1 5.7-6 5.7-6 13.1-2.7z"/>
	<path id="Layer" class="s0" d="m916 715.8c-11.6 12.8-23.1 25.6-34.6 38.3-11.8 12.9-23.8 25.7-35.6 38.6-7.7 8.5-15.2 17.2-22.8 25.8-0.7 0.8-1.5 1.7-1.7 1.9-2-2.7-3.8-5.2-5.5-7.9 1.5-1.6 3-2.7 4.2-4 8.4-9 16.6-18 25-27 11.4-12.2 23-24.2 34.5-36.5 5.7-6.2 11.2-12.6 16.9-18.8 4.9-5.4 10-10.6 15.2-16.1 0.8 1.2 1.4 2.1 2.1 3 0.7 0.9 1.5 1.8 2.3 2.7z"/>
	<path id="Layer" class="s11" d="m887.3 691.8c-7.7-3.3-7.7-3.3-13.4 2.7-11.3 12-22.7 24-33.9 36.1-18.3 19.5-36.5 39.1-54.8 58.9-1.6 0.1-3-0.1-4.9-0.4 9.8-10.3 19.1-20.2 28.4-30.1q34-36.8 68-73.6c3.3-3.5 12.6-2.9 15.4 1.3 0.2 0.3-0.5 1.1-0.4 2 0.3 0.2 0.4 0.3-0.1 0.1-0.5 0.3-0.5 0.8-0.6 1.2-0.1 0 0-0.1 0-0.1-1.1 0.6-2.2 1.2-3.7 1.9z"/>
	<path id="Layer" class="s24" d="m907.4 705.1c-4-3-7.5-6.3-11.4-8.9-1.1-0.7-4.3-0.1-5.4 1-10.2 10.9-20.2 22.1-30.3 33.2-14.2 15.7-28.3 31.6-42.5 47.2-6.3 7-13 13.8-19.6 21-1.4 0.2-2.6 0.2-4.6 0.2 8.1-8.7 15.8-17 23.4-25.4 12.3-13.5 24.5-27 36.7-40.5 7.8-8.5 15.7-17 23.5-25.6 4.8-5.4 9.3-11.1 13.9-17-0.1-0.4-0.2-0.3 0.2-0.3 0.5-0.3 0.6-0.6 0.8-1 0 0-0.1-0.1-0.1 0 1.8-0.1 4.1-0.9 5.3-0.1 5.2 3.7 10 7.8 15.4 12.1-2.2 1.8-3.5 2.9-5.3 4.1z"/>
	<path id="Layer" class="s11" d="m813.6 829.2c-1-3.4-3-5.5-6.8-5.2-5.1 0.4-6.5-3.4-7.7-6.9-1.4-4.3-3.4-5.6-7.9-4.3-7.3 2.2-9.1 0.9-10.3-6.9-0.2-1.7-1.5-3.2-2.2-4.8-1.6 1.2-3.7 2.1-4.5 3.7-7.2 13.8-14.1 27.8-21.2 42-1.8 1.8-3.6 3.2-5.4 4.6q-0.4-0.3-0.8-0.6 3.3-6.6 6.6-13.2c6.7-13.4 13.5-26.7 19.9-40.2 1.6-3.1 3.9-4.4 6.6-3.3 1.6 0.6 2.5 3.2 3.3 5.1 0.7 1.7 0.6 3.7 1.3 5.3 0.9 2.2 2.1 3.7 5.3 2.4 7.2-2.9 8.9-1.8 11.9 5.1 1.2 2.9 2.8 5.2 6.9 5.1 6.2-0.1 8.4 5.4 5 12.1z"/>
	<path id="Layer" class="s25" d="m916.3 715.8c-1.1-0.9-1.9-1.8-2.6-2.7-0.7-0.9-1.3-1.8-2.1-3-5.2 5.5-10.3 10.7-15.2 16.1-5.7 6.2-11.2 12.6-16.9 18.8-11.5 12.3-23.1 24.3-34.5 36.5-8.4 9-16.6 18-25 27-1.2 1.3-2.7 2.4-4.5 3.7-4-0.3-2.4-1.8-1.1-3.2 5.5-5.8 10.9-11.6 16.4-17.3 8-8.4 16.1-16.7 24.1-25.1q20-21.3 39.7-42.8c6.2-6.7 12.2-13.7 18.2-20.6 6.6 6.8 7 8.2 3.5 12.6z"/>
	<path id="Layer" class="s0" d="m940.3 690.1c-2 2.1-4 4.3-6.4 6.9-6.2-15.6-17.9-23.8-32.3-29.4 2-1.6 4.5-4.1 6.5-3.7 10 1.6 19.1 5.4 25.3 13.9 2.7 3.8 4.6 8.2 6.9 12.3z"/>
	<path id="Layer" class="s11" d="m940.6 689.9c-2.6-3.9-4.5-8.3-7.2-12.1-6.2-8.5-15.3-12.3-25.3-13.9-2-0.4-4.5 2.1-6.9 3.6-1.4 0.1-2.7-0.1-4-0.4 4.8-9.2 11.4-11.9 20.6-8.3 12.4 4.7 21.5 12.4 23.8 26.3 0.2 1.5-0.4 3.1-1 4.8z"/>
	<path id="Layer" class="s10" d="m915.2 681c7.8 4.8 12.4 12.1 15.3 20.7 1 2.8 3.2 5.8-1.1 7.9-1.9-3.7-3.1-7.3-4.9-10.6-6.8-12.3-18.6-18.4-30.9-23.5-1.2-0.6-3 0.2-4.6 0.4-1.6 0-3.2 0-5 0 4.3-7.9 8.3-9.4 13.7-5.3-0.3 1.2-0.6 2.3-0.5 2.3 4.6 1.8 9.3 3.4 13.9 5 0 0 0 0 0 0.4 0.8 0.5 1.6 0.7 2.4 0.8 0 0 0.1 0.2 0 0.6 0.5 0.7 1.1 1 1.7 1.3z"/>
	<path id="Layer" class="s0" d="m889.4 676c1.2-0.3 3-1.1 4.2-0.5 12.3 5.1 24.1 11.2 30.9 23.5 1.8 3.3 3 6.9 4.5 10.7-2.7 4.2-3.2 0.3-3.9-1-7.4-12.5-16.4-23.4-29.8-29.9-1.8-1-3.7-1.8-5.9-2.8z"/>
	<path id="Layer" class="s0" d="m911 677.6c-4.5-1.3-9.2-2.9-13.8-4.7-0.1 0 0.2-1.1 0.6-1.9 4.5 2 8.8 4.2 13.2 6.6z"/>
	<path id="Layer" class="s11" d="m809.4 833.1q1.2-1.5 3.4-3.1-1.1 1.6-3.4 3.1z"/>
	<path id="Layer" class="s0" d="m913.3 678.9c-0.6 0.1-1.4-0.1-2.2-0.7 0.6-0.1 1.3 0.2 2.2 0.7z"/>
	<path id="Layer" class="s0" d="m915.1 680.7c-0.5 0-1.1-0.3-1.5-0.9 0.5 0 1 0.3 1.5 0.9z"/>
	<path id="Layer" class="s11" d="m807.3 834.1q0.3-0.6 1.5-1-0.2 0.6-1.5 1z"/>
	<path id="Layer" class="s0" d="m1090.5 959.7c2.1-2.8 4-5.9 6.4-8.4 3.4-3.4 6.9-7.1 11-9.5 4.7-2.7 7.5-0.9 9.1 4.7-4.6 6.5-9.1 12.8-14 18.8-2.2 2.7-5.2 4.8-8.3 6.7-3.8 2.3-5.7 1.2-5.7-3.4 0-1.9 0.5-3.8 1.1-6.4 0.4-1.2 0.4-1.8 0.4-2.5 0 0 0 0 0 0z"/>
	<path id="Layer" class="s15" d="m985.7 958.1c4.2-4.6 7.8-9.6 12.5-13.3 2.6-2.2 6.9-2.3 10.7-3-0.1 11-7.2 17.6-14.4 23.9-1.7 1.4-5.3 2.6-6.9 1.8-1.6-0.9-1.8-4.4-2.2-7.3 0.4-0.9 0.3-1.3 0.3-1.7 0 0-0.1-0.3 0-0.4z"/>
	<path id="Layer" class="s14" d="m902.9 957.1c-2.7-0.6-2.6-2-1.1-3.8 3.3-4.4 6.6-8.7 10.3-13.7 2.5 8.6 4.5 16.8 3.7 25.4 0 0.3-1.7 0.5-2.7 0-0.9-6.3-1.7-11.8-2.6-17.4q-0.7 0-1.4 0.1-3.1 4.7-6.2 9.4z"/>
	<path id="Layer" class="s0" d="m966.1 942.1c-4.6 5.8-10.4 10.1-17.7 12.6 2-7.4 6.8-12.2 13.6-15.2 2.6-1.1 4.1-0.4 4.1 2.6z"/>
	<path id="Layer" class="s11" d="m966.4 941.9c-0.3-2.8-1.8-3.5-4.4-2.4-6.8 3-11.6 7.8-14 15.3 0.1 0.3 0.1 0.3-0.3 0.2-0.9-0.1-1.5-0.2-2-0.3 3.3-8.6 7.7-16.5 16.6-20.5 1.7-0.8 3.7-0.7 5.5-0.9 0.1 2.1 0.2 4.2 0 6.3 0 0.7-0.7 1.4-1.4 2.3z"/>
	<path id="Layer" class="s0" d="m903 957.5c2-3.5 4.1-6.7 6.1-9.8q0.7-0.1 1.4-0.1c0.9 5.6 1.7 11.1 2.5 17-3.4-1.9-6.7-4.4-10-7.1z"/>
	<path id="Layer" class="s9" d="m912.8 972c-2.7 0.6-5.5 2.2-7.9 1.7-5.1-0.9-8.6-8.7-6.4-13.7 1.2 0.7 1.9 1.3 2.7 1.9 0 0-0.1 0-0.2 0.4 1.8 6.1 6.5 8.2 11.8 9.7z"/>
	<path id="Layer" class="s25" d="m979.9 999c1.7-2.8 2.8-6.2 5.2-8.4 3-2.7 6.9-4.5 11.4-6-0.9 2-1.8 4.1-3.4 6.3-4.8 2.8-9 5.5-13.2 8.1z"/>
	<path id="Layer" class="s0" d="m979.9 999.4c4.2-3 8.4-5.7 12.9-8.3-2.3 3.4-4.9 6.9-7.7 10.2-2.5 2.9-4.5 2.4-5.2-1.9z"/>
	<path id="Layer" class="s15" d="m913 971.7c-5.5-1.2-10.2-3.3-12-9.5 3.7 1.9 7.4 4 11 6.4 0.7 0.5 0.9 1.8 1 3.1z"/>
	<path id="Layer" class="s0" d="m1001.8 971.2c-0.3-0.6-0.3-1.4-0.4-2.2 0.1 0.2 0.3 0.4 0.6 0.9 0.2 0.6 0.1 0.9-0.2 1.3z"/>
	<path id="Layer" class="s15" d="m901 961.7c-0.6-0.4-1.3-1-2.2-1.9-0.1-0.4-0.1-0.4 0.2-0.2 0.4 0.3 0.6 0.3 0.8 0.4 0.4 0.5 0.8 0.9 1.2 1.7z"/>
	<path id="Layer" class="s0" d="m1150.4 948.5c-0.1 0.9-0.5 1.6-1.3 3.2 0.1-1.8 0.2-2.7 0.5-3.6 0.4 0 0.6 0.1 0.8 0.4z"/>
	<path id="Layer" class="s13" d="m1090.3 960c0.2 0.4 0.2 1-0.1 1.8-0.2-0.4-0.2-1 0.1-1.8z"/>
	<path id="Layer" class="s0" d="m945.7 954.7c0.5 0.1 1.1 0.2 2 0.3-0.1 0.4-0.5 0.7-1.4 0.7-0.5-0.5-0.6-0.7-0.7-0.9 0 0 0.1 0 0.1-0.1z"/>
	<path id="Layer" class="s11" d="m945.4 955c0.3 0 0.4 0.2 0.6 0.7-0.2 0.6-0.5 0.8-0.8 1.1 0-0.6 0-1.1 0.2-1.8z"/>
	<path id="Layer" class="s11" d="m985.6 958.7c0.1 0.2 0.2 0.6 0 1.1-0.2-0.1-0.2-0.5 0-1.1z"/>
	<path id="Layer" class="s9" d="m899.9 959.8c-0.3 0.1-0.5 0.1-0.9-0.2 0.2-0.2 0.6-0.1 0.9 0.2z"/>
	<path id="Layer" class="s1" d="m475 946q0.3 0.2 0.6 0.4c-0.2 0-0.5 0-0.7-0.2 0.2-0.3 0.1-0.2 0.1-0.2z"/>
	<path id="Layer" class="s0" d="m1787.8 951.8c1.4-1.2 2.7-2.5 4.1-3.7 3.8-2.9 7.2-6.3 11.4-8.4 2-1 5.2 0.5 8.2 1.1-3.2 11.4-10.2 20.2-18.8 27.8-1.4 1.2-5 1.8-6.2 0.8-1.6-1.1-1.9-4.1-2.4-6.4-0.2-1 0.5-2.1 1.1-3.8 0.7-1.9 0.9-3.2 1.2-4.5 0 0 0-0.2 0.4-0.2 0.6-0.9 0.8-1.8 1-2.7 0 0 0.1 0 0 0z"/>
	<path id="Layer" class="s0" d="m1842.5 959.7c2.1-2.8 4-5.9 6.4-8.4 3.4-3.4 6.9-7.1 11-9.5 4.7-2.7 7.5-0.9 9.1 4.7-4.6 6.5-9.1 12.8-14 18.8-2.2 2.7-5.2 4.8-8.3 6.7-3.8 2.3-5.7 1.2-5.7-3.4 0-1.9 0.5-3.8 1.1-6.4 0.4-1.2 0.4-1.8 0.4-2.5 0 0 0 0 0 0z"/>
	<path id="Layer" class="s15" d="m1652.7 958.1c4.2-4.6 7.8-9.6 12.5-13.3 2.6-2.2 6.9-2.3 10.7-3-0.1 11-7.2 17.6-14.4 23.9-1.7 1.4-5.3 2.6-6.9 1.8-1.6-0.9-1.8-4.4-2.2-7.3 0.4-0.9 0.3-1.3 0.3-1.7 0 0-0.1-0.3 0-0.4z"/>
	<path id="Layer" class="s25" d="m1646.9 999c1.7-2.8 2.8-6.2 5.2-8.4 3-2.7 6.9-4.5 11.4-6-0.9 2-1.8 4.1-3.4 6.3-4.8 2.8-9 5.5-13.2 8.1z"/>
	<path id="Layer" class="s0" d="m1646.9 999.4c4.2-3 8.4-5.7 12.9-8.3-2.3 3.4-4.9 6.9-7.7 10.2-2.5 2.9-4.5 2.4-5.2-1.9z"/>
	<path id="Layer" class="s11" d="m1786.2 955c-0.1 1-0.3 2.3-0.9 3.8 0.1-1 0.4-2.3 0.9-3.8z"/>
	<path id="Layer" class="s0" d="m1668.8 971.2c-0.3-0.6-0.3-1.4-0.4-2.2 0.1 0.2 0.3 0.4 0.6 0.9 0.2 0.6 0.1 0.9-0.2 1.3z"/>
	<path id="Layer" class="s11" d="m1787.5 952c0.1 0.7-0.1 1.6-0.7 2.5-0.1-0.9 0.2-1.6 0.7-2.5z"/>
	<path id="Layer" class="s13" d="m1842.3 960c0.2 0.4 0.2 1-0.1 1.8-0.2-0.4-0.2-1 0.1-1.8z"/>
	<path id="Layer" class="s9" d="m1808 957q0.3-0.7 0.6-1.3c0 0.4 0 0.9-0.3 1.3-0.3 0-0.3 0-0.3 0z"/>
	<path id="Layer" class="s11" d="m1652.6 958.7c0.1 0.2 0.2 0.6 0 1.1-0.2-0.1-0.2-0.5 0-1.1z"/>
	<path id="Layer" class="s0" d="m1352.5 1105.7c2.1-2.8 4-5.9 6.4-8.3 3.4-3.5 6.9-7.2 11-9.6 4.7-2.7 7.5-0.9 9.1 4.7-4.6 6.5-9 12.8-14 18.8-2.2 2.7-5.2 4.8-8.3 6.7-3.8 2.3-5.7 1.2-5.7-3.4 0-1.9 0.5-3.8 1.1-6.4 0.4-1.2 0.4-1.8 0.4-2.5 0 0 0 0 0 0z"/>
	<path id="Layer" class="s0" d="m1467.1 1088.1c-4.6 5.8-10.4 10.1-17.7 12.6 2-7.4 6.8-12.2 13.6-15.2 2.6-1.1 4.1-0.4 4.1 2.6z"/>
	<path id="Layer" class="s0" d="m1551.1 1088.1c-4.6 5.8-10.4 10.1-17.7 12.6 2-7.4 6.8-12.2 13.6-15.2 2.6-1.1 4.1-0.4 4.1 2.6z"/>
	<path id="Layer" class="s11" d="m1551.4 1087.9c-0.3-2.8-1.8-3.5-4.4-2.4-6.8 3-11.6 7.8-14 15.3 0.1 0.3 0.1 0.3-0.3 0.2-0.9-0.1-1.5-0.2-2-0.3 3.3-8.6 7.7-16.5 16.6-20.5 1.7-0.8 3.7-0.7 5.5-0.9 0.1 2.1 0.2 4.2 0 6.3 0 0.7-0.7 1.4-1.4 2.3z"/>
	<path id="Layer" class="s11" d="m1467.4 1087.9c-0.3-2.8-1.8-3.5-4.4-2.4-6.8 3-11.6 7.8-14 15.3 0.1 0.3 0.1 0.3-0.3 0.2-0.9-0.1-1.5-0.2-2.1-0.3 3.4-8.6 7.8-16.5 16.7-20.5 1.7-0.8 3.7-0.7 5.5-0.9 0.1 2.1 0.2 4.2 0 6.3 0 0.7-0.7 1.4-1.4 2.3z"/>
	<path id="Layer" class="s13" d="m1352.3 1106c0.2 0.4 0.2 1-0.1 1.8-0.2-0.4-0.2-1 0.1-1.8z"/>
	<path id="Layer" class="s0" d="m1530.7 1100.7c0.5 0.1 1.1 0.2 2 0.3-0.1 0.4-0.5 0.7-1.4 0.7-0.5-0.5-0.6-0.7-0.7-0.9 0 0 0.1 0 0.1-0.1z"/>
	<path id="Layer" class="s11" d="m1530.4 1101c0.3 0 0.4 0.2 0.6 0.7-0.2 0.6-0.5 0.8-0.8 1.1 0-0.6 0-1.1 0.2-1.8z"/>
	<path id="Layer" class="s0" d="m1446.7 1100.7c0.5 0.1 1.1 0.2 2 0.3-0.1 0.4-0.5 0.7-1.4 0.7-0.5-0.5-0.6-0.7-0.7-0.9 0 0 0.1 0 0.1-0.1z"/>
	<path id="Layer" class="s11" d="m1446.4 1101c0.3 0 0.4 0.2 0.6 0.7-0.2 0.6-0.5 0.8-0.8 1.1 0-0.6 0-1.1 0.2-1.8z"/>
	<path id="Layer" class="s0" d="m655.2 1198.2c-3.2 4.8-5.9 10-9.5 14.4-7 8.5-14.5 16.5-21.8 24.7-3-3.7-5.4-6.9-8.1-10-2.7-3-2.5-6.1-0.9-10.2-0.1-0.9-0.2-1.2-0.3-1.4 0 0 0 0 0.4 0 2.1-1.5 3.7-3.3 5.6-4.4 4.5-2.7 6.2-6.7 6.2-11.7 3.9-8.6 3.2-17.4 0.3-25.9-4.3-12.5-9.4-24.6-14-37.6 4.7-5.4 9.7-9.8 13.7-15 5.3-6.9 9.8-14.4 14.5-21.5 0 2.8 0 6.1-0.1 9.8 0.5 2.1 1.1 3.9 1.7 5.7 0 0 0.2 0.4-0.3 0.7-0.7 1.6-1.1 2.9-1.5 4.6 0.7 10.2 0.7 20 2.2 29.6 1.9 12 4.8 23.9 7.6 35.8 1 4.2 2.8 8.3 4.3 12.4z"/>
	<path id="Layer" class="s15" d="m621.1 1197.2c-2 1.5-4.6 2.6-6.1 4.5-3 3.8-5.3 8.1-7.7 12-5.4-6.3-7.1-47.3-1.4-68.5 1.1 0.1 2 0.6 2.1 1.2 2.8 10.6 5.5 21.2 8.2 31.9 1.6 6.3 3.3 12.6 4.9 18.9z"/>
	<path id="Layer" class="s12" d="m639.4 1258.9c-1.7-0.8-3.1-2.7-4.5-2.8-8.7 0-14.6-4.6-19.3-11.1-5.5-7.8-11.2-15.6-15.8-23.9-2.4-4.5-3.1-10.1-3.7-15.2-0.8-8.1-1.2-16.2-1-24.3 0.3-7.7 1.5-15.4 2.7-23.3 0.2 11.6 0.7 23.6 0 35.5-0.8 15.3 6.3 27.1 15 38.4 1.9 2.5 4.1 4.8 6 7.4 4 5.5 8.9 8.9 16.1 9.2 6.3 0.4 8 4.3 4.5 10.1z"/>
	<path id="Layer" class="s13" d="m655.5 1198c-1.8-3.9-3.6-8-4.6-12.2-2.8-11.9-5.7-23.8-7.6-35.8-1.5-9.6-1.5-19.4-1.8-29.6 0.8-0.4 1.3-0.5 1.8-0.5 1.2 11.3 1.7 22.8 3.9 33.9 2.4 12.6 6.5 25 9.5 37.5 0.5 2-0.5 4.3-1.2 6.7z"/>
	<path id="Layer" class="s14" d="m621.5 1197c-2-6.1-3.7-12.4-5.3-18.7-2.7-10.7-5.4-21.3-8.2-31.9-0.1-0.6-1-1.1-1.9-1.5 0.6-2.7 1.5-5.5 2.4-8.2q0.5 0 1.1 0c0.6 3.4 0.9 6.9 1.9 10.2 3.2 11 7 21.9 9.6 33 1.3 5.4 0.6 11.3 0.4 17.1z"/>
	<path id="Layer" class="s14" d="m641.3 1109c0-3.3 0-6.6 0-9.4-4.7 7.1-9.2 14.6-14.5 21.5-4 5.2-9 9.6-13.7 14.6-4-4.8 1.2-7.8 3.5-9.8 10.9-9.7 19.5-20.7 25.1-34.1 0.1-0.3 0.4-0.4 1.2-1 0 6 0 11.6-0.4 17.7-0.6 0.5-0.9 0.5-1.2 0.5z"/>
	<path id="Layer" class="s11" d="m626.5 1199.8c0.3 4.8-1.4 8.8-5.9 11.5-1.9 1.1-3.5 2.9-5.7 4.3 1.6-3.4 3.3-7.1 5.5-10.3 1.5-2.1 3.8-3.6 6.1-5.5z"/>
	<path id="Layer" class="s13" d="m641.2 1109.4c0.4-0.4 0.7-0.4 1.3-0.4 0.3 1.7 0.4 3.5 0.5 5.7q-1-2.1-1.8-5.3z"/>
	<path id="Layer" class="s14" d="m643.3 1119.5c-0.5 0.4-1 0.5-1.8 0.5 0-1.3 0.4-2.6 1.1-4 0.5 1 0.6 2 0.7 3.5z"/>
	<path id="Layer" class="s11" d="m614.4 1215.9c0.3 0 0.4 0.3 0.5 0.8-0.2 0.1-0.5-0.3-0.5-0.8z"/>
	<path id="Layer" class="s0" d="m1468.5 959.7c2.1-2.8 4-5.9 6.4-8.3 3.4-3.5 6.9-7.2 11-9.6 4.7-2.7 7.5-0.9 9.1 4.7-4.6 6.5-9.1 12.8-14 18.8-2.2 2.7-5.2 4.8-8.3 6.7-3.8 2.3-5.7 1.2-5.7-3.4 0-1.9 0.5-3.8 1.1-6.4 0.4-1.2 0.4-1.8 0.4-2.5 0 0 0 0 0 0z"/>
	<path id="Layer" class="s0" d="m1601.1 942.1c-4.6 5.8-10.4 10.1-17.7 12.6 2-7.4 6.8-12.2 13.6-15.2 2.6-1.1 4.1-0.4 4.1 2.6z"/>
	<path id="Layer" class="s11" d="m1601.4 941.9c-0.3-2.8-1.8-3.5-4.4-2.4-6.8 3-11.6 7.8-14 15.3 0.1 0.3 0.1 0.3-0.3 0.2-0.9-0.1-1.5-0.2-2-0.3 3.3-8.6 7.7-16.5 16.6-20.5 1.7-0.8 3.7-0.7 5.5-0.9 0.1 2.1 0.2 4.2 0 6.3 0 0.7-0.7 1.4-1.4 2.3z"/>
	<path id="Layer" class="s0" d="m1580.7 954.7c0.5 0.1 1.1 0.2 2 0.3-0.1 0.4-0.5 0.7-1.4 0.7-0.5-0.5-0.6-0.7-0.7-0.9 0 0 0.1 0 0.1-0.1z"/>
	<path id="Layer" class="s13" d="m1468.3 960c0.2 0.4 0.2 1-0.1 1.8-0.2-0.4-0.2-1 0.1-1.8z"/>
	<path id="Layer" class="s11" d="m1580.4 955c0.3 0 0.4 0.2 0.6 0.7-0.2 0.6-0.5 0.8-0.8 1.1 0-0.6 0-1.1 0.2-1.8z"/>
	<path id="Layer" class="s0" d="m640.1 889.6c-1.2 0.6-2.8 1-4.7 1.3 1.2-0.5 2.8-1 4.7-1.3z"/>
	<path id="Layer" class="s15" d="m823.4 894.9c16.1-2.7 27.3 6.2 28.5 21.2 0.5 5.5 0.2 11.1 0.4 17.2 0.1 0.5 0.1 0.6-0.3 0.8-0.5 1.3-0.7 2.3-0.8 3.3-6.4 16.5-15.5 31.1-32.2 38.9-5.5 2.6-12 3.3-19 5.1 6.3-27.2 13.8-52.2 23.1-76.8 0.8-2.2 1.9-4.4 2.9-6.6 1.2-2.5 0-3-2.6-3.1z"/>
	<path id="Layer" class="s0" d="m837.9 889.6c-6.9 1-14 1.7-21.6 2.4 6.4-4.7 13.8-4.4 21.6-2.4z"/>
	<path id="Layer" class="s12" d="m851.5 937.1c-0.2-0.7 0-1.7 0.4-2.9 0.2 0.7 0 1.7-0.4 2.9z"/>
	<path id="Layer" class="s0" d="m1180.1 1088.1c-4.6 5.8-10.4 10.1-17.7 12.6 2-7.4 6.8-12.2 13.6-15.2 2.6-1.1 4.1-0.4 4.1 2.6z"/>
	<path id="Layer" class="s11" d="m1180.4 1087.9c-0.3-2.8-1.8-3.5-4.4-2.4-6.8 3-11.6 7.8-14 15.2 0.1 0.4 0.1 0.4-0.2 0.3-0.7 0-1.2 0.1-1.8 0-0.1-0.1-0.4-0.4-0.4-0.4 3.6-8.5 7.7-16.5 16.8-20.4 1.6-0.8 3.6-0.6 5.5-0.9 0 2.1 0.1 4.2-0.1 6.3 0 0.7-0.7 1.4-1.4 2.3z"/>
	<path id="Layer" class="s11" d="m1160 1102.1q-0.4 0.3-0.8 0.6c0-0.5 0-1.1 0.2-1.9 0.2-0.2 0.5 0.1 0.6 0.4 0.1 0.4 0 0.9 0 0.9z"/>
	<path id="Layer" class="s0" d="m1160.3 1102c-0.3 0.1-0.2-0.4-0.2-0.6 0.5-0.3 1-0.4 1.7-0.4-0.1 0.4-0.6 0.7-1.5 1z"/>
	<path id="Layer" class="s0" d="m1508 976q0.1-0.7 0.4-1.4c0 0.4 0 0.8-0.1 1.3-0.3 0.1-0.3 0.1-0.3 0.1z"/>
	<path id="Layer" class="s0" d="m1131.5 973.4q0.2 0.6-0.3 1.5-0.2-0.6 0.3-1.5z"/>
	<path id="Layer" class="s3" d="m891.6 688.8c0.3 0.6 0.2 0.9-0.3 1.3-0.2-0.5-0.2-1 0.3-1.3z"/>
</svg>